<svg xmlns="http://www.w3.org/2000/svg" data-name="Layer 1" viewBox="0 0 885 708"><path fill="#f0f0f0" d="M149 708s-13-31 25-55Z" data-name="Path 482"/><path fill="#f0f0f0" d="M133 708s-4-23-34-23Z" data-name="Path 483"/><path fill="#f0f0f0" d="M576 708s-13-31 25-55Z" data-name="Path 482"/><path fill="#f0f0f0" d="M560 708s-4-23-34-23Z" data-name="Path 483"/><circle cx="565.1" cy="394" r="110.9" fill="#f0f0f0"/><path fill="#f0f0f0" d="M565 394h1l5 314h-11l5-314z"/><circle cx="803.1" cy="479.1" r="80.9" fill="#f0f0f0"/><path fill="#f0f0f0" d="m803 479 4 229h-8l4-229z"/><path fill="#ffb6b6" d="M355 480a11 11 0 0 0 9-14l31-22-18-7-27 22a11 11 0 0 0 5 21Zm-22 217h-10l-5-37h15v37z"/><path fill="#2f2e41" d="M335 707h-31v-1a12 12 0 0 1 12-12h19Z"/><path fill="#ffb6b6" d="M258 697h-10l-4-37h14v37z"/><path fill="#2f2e41" d="M261 707h-32v-1a12 12 0 0 1 13-12h19Zm5-219-21 113-7 90 23-1 14-87 33-76 10 163h21l12-206-85 4z"/><path fill="#4E4FEB" d="m354 359-29-12-33 4-29 15s9 109-4 134c0 0 10 14 51 10 0 0 40-5 41-18l1-36 14-48Z"/><path fill="#4E4FEB" d="m275 369-12-3s-12 6-12 21-21 69 5 71 19-37 19-37Zm70-4 9-6s14 3 19 14c0 0 58 42 42 58s-48 35-48 35l-12-14 29-26-24-23Z"/><path fill="#ffb6b6" d="M330 317a24 24 0 0 1-48 0v-1a24 24 0 0 1 48 1Z"/><path fill="#2f2e41" d="M310 313h4c3 2 2 6 4 9l2 3 1 4c1 2 4 2 5 1a8 8 0 0 0 4-5l2-4a5 5 0 0 0 1-1 3 3 0 0 0 1-2v-11c2-7 3-10-2-15a16 16 0 0 0-9-4c-3-1-7 4-10 3-8 0-15-7-22-5a15 15 0 0 0-8 6c-4 6-4 8-3 14a2 2 0 0 0 0 1l1 1a2 2 0 0 1 1 2 10 10 0 0 1-1 3 1 1 0 0 0 0 1c3 1 7-1 10-1s6 3 10 2l9-2Z"/><path fill="#fff" d="M310 446a3 3 0 0 1-1 0l-27 3a3 3 0 0 1-3-1l-22-60a3 3 0 0 1 2-3l25-6 24-13a3 3 0 0 1 1 0l26-7a3 3 0 0 1 4 2l20 51a3 3 0 0 1-1 3l-7 9a3 3 0 0 1-1 1l-15 6-25 14a3 3 0 0 1 0 1Z"/><path fill="#e4e4e4" d="m322 367-4 1-9 2-12 6-4 3-7 3-7 2-4 1-14 3 22 57 15-2h3l8-2 24-13 15-6 6-9-19-50Z"/><path fill="#fff" d="m266 399 72-28 2 4-73 28zm4 11 72-28 2 4-73 28zm9 22 72-28 2 4-73 28z"/><path fill="#fff" d="m322 367 22 56-4 2-22-57 4-1zm-25 9-4 13-2 4-3 10-1 2-1 3-1 2-7 21-2-5 6-17 1-3v-1l2-4 2-6 1-4 5-12 4-3z"/><path fill="#fff" d="m279 384 22 59h-3l-23-58 4-1z"/><circle cx="273.7" cy="429.7" r="10.4" fill="#ffb6b6"/><circle cx="701.2" cy="184" r="184" fill="#e4e4e4"/><path d="M994 157a184 184 0 0 1-306 195 184 184 0 1 0 306-195Z" opacity=".1" style="isolation:isolate" transform="translate(-157 -96)"/><path fill="#e4e4e4" d="M701 184h-1l-9 522h19l-9-522z"/><path fill="#cacaca" d="M835 708H1a1 1 0 0 1 0-2h834a1 1 0 0 1 0 2Z"/></svg>