<svg id="logowos" xmlns="http://www.w3.org/2000/svg" viewBox="0 0 600 99.3"><path d="M20.7 29.5c-6 3.7-3 19.5 6.8 35.2C34.4 76 42.4 83.4 49 85c9.3 2.3 16.6-4.5 20.5-12l2 1.2a37.7 37.7 0 0 1-33.2 20A36 36 0 0 1 2.8 58a36 36 0 0 1 35.6-36.2c10.5 0 17.3 8 22.5 8 5.2 0 6.3-2.9 6.3-7.5h2.4c1.5 11.6-1.7 26-17.4 26-15.5 0-20.9-25.5-31.5-18.7Z"/><path d="M73.5 36.7c0 8 4.7 8.8 10.4 7.8 7-1.3 9.8-8.5 18.5-8.5 12.3 0 11.9 7.5 17 7.5 3.5 0 4.7-3 4.7-6.8h2.7c1 17.4-3.9 22.9-12.8 22.9-13.7 0-10.1-17.4-16.6-18.4-2.7-.4-3.7 2.3-3.7 6.1l.2 46.2H71V36.7h2.6Zm77.3 33.4c12.2 19.2 25.3 20 37.4 6.6l2 2c-9 10.2-15.5 15.5-31.5 15.5-18.8 0-31.4-12-31.4-29.1 0-17.2 12.6-29.1 31.4-29.1 27.7 0 28.6 22.7-9.2 31.9l1.3 2.2Zm-7.1-28.7c-5.4 3.5-2.5 12.4 4.4 24.3 8.8-1.8 15.7-9 10.3-17.8-4.4-7.1-10.7-9-14.7-6.5Z"/><path d="M231.7 74.3c-.3 10-5.2 20-18.4 20-9.6 0-12.3-6.9-19.5-6.9-4.4 0-6.5 2.2-6.5 6.1h-2.7c0-5.1.4-19.6 11.5-19.6 13.6 0 13.5 18 20.9 17.3 2.6-.2 5-2.7 4-6.4-.9-4-4.7-8.5-16.3-10.7-9.9-1.9-20.4-8.5-20.7-20.5-.3-9 7-17.6 15.4-17.6 9.6 0 13.4 5.4 20.7 5.4 4 0 7.5-1.5 7.5-4.7h2.7c0 5-2 16.5-11 16.5-8.3 0-12.6-14.6-19.9-14.6-6.2 0-8.6 8.2 6.6 12 16 4 26.1 10.4 25.7 23.7Zm9.5 0c-.4 2.8.8 5.8 5 5.8 7.3 0 10-12.7 19.4-12.7 13.6 0 14.5 14.5 13 26h-2.4c0-4.6-.1-7.6-4.8-7.6-5.2 0-5.7 8.4-15 8.4-8.9 0-18.2-4.8-18.2-22.8V39h-7.4v-2.4h7.4c14.7 0 20.4-7.6 20.4-14.5h2.5v14.5h15.6V39h-15.6v16c0 13.6-18.8 12.5-19.9 19.2Zm61.8-4.2c12.3 19.2 25.4 20 37.5 6.6l2 2c-9 10.2-15.6 15.5-31.5 15.5-18.8 0-31.4-12-31.4-29.1 0-17.2 12.6-29.1 31.4-29.1 27.7 0 28.5 22.7-9.3 31.9l1.4 2.2Zm-7-28.7c-5.4 3.5-2.6 12.4 4.3 24.3 8.9-1.8 15.8-9 10.3-17.8-4.4-7.1-10.7-9-14.7-6.5Z"/><path d="M359.6 70.1c12.1 19.2 25.3 20 37.3 6.6.8.6 1.4 1.4 2 2-8.9 10.2-15.5 15.5-31.5 15.5-18.8 0-31.4-12-31.4-29.1 0-17.2 12.6-29.1 31.4-29.1 27.8 0 28.6 22.7-9.2 31.9.4.7.8 1.5 1.4 2.2Zm-7.2-28.7c-5.3 3.5-2.5 12.4 4.4 24.3 8.9-1.8 15.8-9 10.3-17.8-4.4-7.1-10.7-9-14.7-6.5Z"/><path d="M398 36.7c0 8 4.5 8.6 10.3 7.9C415.5 43 420 36 428.7 36c8 0 14.1 2.5 18 6.7 5-2.5 9.3-6.7 15.9-6.7 18.1 0 25.7 12 23 28.4-1.2 8.4-1.8 14.3 2.3 17.9 2.7 2.4 6.2 1.7 9.5-1.7l1.6 1.7c-7 9.2-25.2 17.3-34.1 6.2-5-6.4-4-15.5-2.6-24.7 3.2-21.5-1.1-24.4-6-22.6-4.4 1.7-5.3 5.8-4.9 10.5 1 3.8 1 8.1.4 12.7-2.1 13.2-2.5 25.4 6.6 20.2l1.1 2c-7.7 7-20.7 11.8-28.5 1.9-5-6.4-4.1-15.5-2.8-24.7 3.3-21.5-1-24.4-5.8-22.6-3.3 1.3-4 5.2-4 10.3v42h-23V36.7h2.6Z"/><path d="M572 2.5a62.8 62.8 0 0 0-38.7 18.2l-2.3 2.4h-2c-9.3.4-19.4 4.8-26.1 11.4-1.5 1.3-1.5 1.4-1.5 2 0 .5.2.8.5 1.2l.3.4 6.8 1 6.7 1-1 1c-1 1.3-1.2 1.7-.9 2.5.5.8 22 22.3 22.5 22.5.8.3 1.3 0 2.5-1l1-1 .9 6.7 1.2 6.9c.5.6 1.3 1 2 .6 1-.3 3.9-3.6 6-7a44 44 0 0 0 7-20.3v-1.9l2.3-2.3a60.3 60.3 0 0 0 18.4-41.5c0-1.9-.3-2.5-1.1-2.8h-4.6.2Zm-15.8 14.7c3.3.7 5.8 3.2 6.6 6.5l.2 1.6c0 3-1.9 6.2-4.6 7.5a12 12 0 0 1-3.7 1 9 9 0 0 1-7.6-4.6 12 12 0 0 1-1-3.8c0-2.2 1-4.4 2.6-6a8 8 0 0 1 7.5-2.2Zm-44 38.8a10 10 0 0 0-5.3 2.5c-2.2 1.8-4.7 7.3-8.1 17.3-1.8 5.3-1.8 5.7-1.1 6.4.8.7 1 .7 6.4-1 10-3.5 15.6-6 17.3-8a10.4 10.4 0 0 0-6.5-17.2h-2.6Z"/></svg>