<svg xmlns="http://www.w3.org/2000/svg" fill="none" viewBox="-11.5 -11.5 71 71"><rect width="71" height="71" x="-11.5" y="-11.5" fill="#4E4FEB" rx="35.5"/><g fill="#fff" fill-rule="evenodd" clip-rule="evenodd"><path d="M24 4a28.6 28.6 0 0 0-14 4l3 4.5 1.5.6a22 22 0 0 0 19 0l1.6-.8L38 8a17.2 17.2 0 0 0-1.9-1 27 27 0 0 0-12-3Zm-7 5.1-3.2-.8C16.2 7.2 20 6 24 6c2.9 0 5.5.6 7.7 1.3-2.6.4-5.3 1-8 1.7-2 .6-4.4.6-6.8.1Z"/><path d="M34.6 14.8h-.3a24 24 0 0 1-20.7 0h-.2C4 25-5.8 44.3 24 44c30-.3 20-19.3 10.6-29.2ZM25.7 22h-3.4v1.6c-1.1 0-2.2.4-3 1.1-.8.7-1.3 1.7-1.3 2.8 0 1 .4 2 1.1 2.8.8.8 1.8 1.2 3 1.3h3.7c.2 0 .3.1.5.3l.2.5-.2.5c-.2.2-.3.3-.5.3h-7v3.2h3.4V38h3.4v-1.6c1.1 0 2.2-.4 3-1.1.8-.7 1.3-1.7 1.3-2.8 0-1-.4-2-1.1-2.8a4.4 4.4 0 0 0-3-1.3h-3.6a.9.9 0 0 1-.5-.3.8.8 0 0 1-.2-.5l.2-.5c.2-.2.3-.3.5-.3h7v-3.2h-3.4V22Z"/></g></svg>