<svg xmlns="http://www.w3.org/2000/svg" data-name="Layer 1" viewBox="0 0 929 635"><circle cx="546.4" cy="233" r="233" fill="#f2f2f2"/><path fill="#e6e6e6" d="M131 563a39 39 0 0 0 38-6c13-11 17-30 21-47l10-50-21 15c-15 10-30 21-41 36s-15 35-6 51"/><path fill="#f2f2f2" d="M133 624c-2-15-4-31-3-47 2-13 6-27 15-38a64 64 0 0 1 16-15c2-1 3 2 1 3a61 61 0 0 0-24 29c-5 13-6 28-5 42l3 25a2 2 0 0 1-1 2 2 2 0 0 1-2-1Z"/><path fill="#e6e6e6" d="M273 603a22 22 0 0 0 20 7c10-1 17-9 24-16l19-22-14 1c-10 1-21 1-30 6s-18 13-19 23"/><path fill="#f2f2f2" d="m256 633 12-24c5-6 11-11 18-14a36 36 0 0 1 13-3v2a35 35 0 0 0-20 7c-7 5-11 12-15 19l-6 13a1 1 0 0 1-1 1 1 1 0 0 1-1-1Z"/><path fill="#e6e6e6" d="M154 597a29 29 0 0 0 25 13c12-1 23-10 32-18l29-25-19-1c-14-1-27-1-40 3s-25 14-27 27"/><path fill="#f2f2f2" d="M127 633c10-18 22-38 43-45a48 48 0 0 1 18-1c2 0 2 3 0 2a45 45 0 0 0-29 8c-8 6-14 13-20 22l-9 15c-1 2-4 0-3-1Z"/><path fill="#4e4feb" d="M566 326c21-11 46-9 67-2s42 20 63 30c65 28 143 23 204-12 5 13-1 29-8 41s-14 27-11 42c3 18 23 29 30 46 8 16 4 35-2 52s-13 34-12 51 14 37 32 37c-27 4-54 8-80 4s-52-18-64-42c-6-12-9-25-16-37-12-19-35-28-56-35s-45-13-60-30c-15-16-19-38-27-58a187 187 0 0 0-64-85"/><path fill="#2f2e41" d="M590 242c-7-3-16-4-23-1s-12 11-10 18c1 3 3 6 2 9 0 2-3 4-5 5l-7 4c-2 2-2 6 0 7l2 1a4 4 0 0 1 1 5 9 9 0 0 1-2 3c-3 2-6 5-6 8a5 5 0 0 0 4 4 18 18 0 0 0 6 0l74 3a28 28 0 0 0 8-1 9 9 0 0 0 6-4c1-2 0-6-2-8l-6-7c-2-2-4-5-3-8l3-6v-7c-2-3-7-3-9-5s-2-5-2-8c0-6-4-11-10-14a21 21 0 0 0-19 1Z"/><path fill="#a0616a" d="m542 622-11-3 8-47 17 5-14 45z"/><path fill="#2f2e41" d="m542 634-38-11a15 15 0 0 1 19-11l24 7Z"/><path fill="#a0616a" d="M653 622h-12l-6-47h18v47z"/><path fill="#2f2e41" d="M656 634h-39a15 15 0 0 1 15-16h24Zm-20-47a5 5 0 0 1-4-4l-18-114a4 4 0 0 0-7 0l-47 113a5 5 0 0 1-6 3l-17-6a4 4 0 0 1-3-5l39-171a5 5 0 0 1 3-4l52-12a5 5 0 0 1 4 1c34 25 31 106 25 194a5 5 0 0 1-5 4l-16 1Z"/><circle cx="592.5" cy="282.5" r="24.6" fill="#a0616a"/><path fill="#3f3d56" d="M594 410a40 40 0 0 1-17-4h-1l-22-58v-9a24 24 0 0 1 25-25l23 1a24 24 0 0 1 23 24c0 1 5 10-4 19 0 2-3 22 8 33v1s-14 18-35 18Z"/><path fill="#a0616a" d="M626 414a10 10 0 0 0 6-14l23-27-18-3-20 26a10 10 0 0 0 9 18Z"/><path fill="#3f3d56" d="M641 393a4 4 0 0 1-2-1l-12-7a4 4 0 0 1-1-6l8-14a6 6 0 0 0-3-9l-24-11a14 14 0 0 1-8-16 14 14 0 0 1 20-10l37 19a19 19 0 0 1 7 28l-18 25a4 4 0 0 1-4 2Z"/><path fill="#2f2e41" d="M567 279c8-1 15-8 14-16a13 13 0 0 0 11 13c3 1 7-1 10 1 4 2 5 7 9 9 3 1 7-1 9-4s1-8 0-11a32 32 0 0 0-52-13c-4 3-6 7-7 12s2 9 6 11Z"/><path fill="#a0616a" d="M510 211a10 10 0 0 1 3 15l20 30h-19l-15-29a10 10 0 0 1 11-16Z"/><path fill="#3f3d56" d="m526 232 24 59 26 44a14 14 0 0 1-8 20 14 14 0 0 1-17-7l-50-107a4 4 0 0 1 3-6l16-5a5 5 0 0 1 1 0 4 4 0 0 1 5 2Z"/><path fill="#ccc" d="M757 635H1a1 1 0 0 1 0-2h756a1 1 0 0 1 0 2ZM598 108v82a1 1 0 1 1-2 0v-82a1 1 0 0 1 2 0Zm87 70-29 28a1 1 0 0 1-1-1l28-29a1 1 0 1 1 2 2Zm-176 0 28 28a1 1 0 0 0 2-1l-29-29a1 1 0 1 0-1 2Z"/></svg>