<svg class="contact" xmlns="http://www.w3.org/2000/svg" fill="none" stroke="#000" stroke-width="0" viewBox="-6.5 -6.5 37 37"><rect id="call-out" width="37" height="37" x="-6.5" y="-6.5" fill="#000" stroke="none" rx="18.5"/><path id="call-in" fill="#fff" stroke="none" d="M9 16C2.8 9.8 3.1 5.1 6 3l.6-.5a1.5 1.5 0 0 1 2 .4l1.6 2.3a1.5 1.5 0 0 1-.2 2L8.5 8.5c-.4.3-.6.8-.4 1.3.3.9 1 2.4 2.9 4.2 1.8 1.8 3.3 2.6 4.2 3 .5 0 1-.1 1.3-.5l1.3-1.5a1.5 1.5 0 0 1 2-.2l2.3 1.5a1.5 1.5 0 0 1 .4 2.1l-.5.7c-2.1 2.8-6.8 3-13-3.1z"/></svg>