<svg xmlns="http://www.w3.org/2000/svg" data-name="Layer 1" viewBox="0 0 873 590"><path fill="#f2f2f2" d="M59 445H46c-27 3-47 16-46 32v9l4 2h661l139-1a235 235 0 0 0 25-1c12-2 21-5 26-9 7-6 7-13 7-21l-3-50-2-45c0-8-1-16-9-21-8-6-23-10-44-10h-1c-67 1-133 24-164 57l-11 13-16 17a75 75 0 0 1-10 8l-1 1-2 1a76 76 0 0 1-13 6l-1 1h-1l-8 2c-12 3-26 3-41 2a197 197 0 0 1-41-8l-39-15a985 985 0 0 0-39-16 191 191 0 0 0-47-8c-16-1-31 1-43 5a75 75 0 0 0-10 4c-14 8-23 19-32 30-11 13-22 27-44 34-25 8-62 5-88-1l-24-6-10-3-16-4h-2a188 188 0 0 0-18-4h-2l-7-1H59Z"/><path fill="#e6e6e6" d="M743 462c19-16 46-25 69-15a115 115 0 0 0-51 60c-4 9-7 21-16 26-6 3-13 3-19 2-7-2-13-5-18-8h-2c7-24 18-48 37-65Z"/><path fill="#fff" d="M812 447a99 99 0 0 0-55 26 43 43 0 0 0-8 11 24 24 0 0 0-3 12v12a15 15 0 0 1-7 10c-5 3-10 3-15 4-6 1-12 1-17 5v-1c8-6 19-4 28-8 5-1 8-4 10-9v-12a26 26 0 0 1 2-13 39 39 0 0 1 8-10 96 96 0 0 1 25-18 100 100 0 0 1 32-10v1Z"/><path fill="#fff" d="M762 468a15 15 0 0 1 2-19v1a14 14 0 0 0-1 18h-1Zm-16 26a29 29 0 0 0 20-4l1 1a30 30 0 0 1-21 4v-1Zm44-42a8 8 0 0 0 6 5v1a9 9 0 0 1-7-5 1 1 0 0 1 0-1 1 1 0 0 1 1 0Z"/><path fill="#e6e6e6" d="m838 528-1-1a110 110 0 0 0-18 0h-2a116 116 0 0 0-41 9 113 113 0 0 0-15 8c-7 4-14 10-22 11a19 19 0 0 1-2 1l-31-27-1-1v-1h1l1-1 4-3a166 166 0 0 1 34-18l1-1a108 108 0 0 1 17-4 95 95 0 0 1 10-2 79 79 0 0 1 25 2 63 63 0 0 1 40 28Z"/><path fill="#fff" d="M838 528a99 99 0 0 0-60-12 43 43 0 0 0-13 3 24 24 0 0 0-10 8l-7 10a15 15 0 0 1-12 3c-5-1-10-3-14-6-5-3-10-6-16-6v-1c10 1 18 9 27 11 5 2 10 1 13-1 4-3 6-7 8-10a26 26 0 0 1 10-9 39 39 0 0 1 12-3 96 96 0 0 1 30 0 100 100 0 0 1 32 12v1Z"/><path fill="#fff" d="M785 514a15 15 0 0 1 13-14v1a14 14 0 0 0-12 14l-1-1Zm-29 11a29 29 0 0 0 19 9v1a30 30 0 0 1-19-9v-1Zm61-6a8 8 0 0 0 2 7l-1 1a9 9 0 0 1-2-8 1 1 0 0 1 0-1 1 1 0 0 1 1 1Z"/><path fill="#e6e6e6" d="M256 479c15-23 42-40 70-36a128 128 0 0 0-39 78c-2 12-2 25-10 33-5 5-13 7-20 7-7 1-14-1-21-3h-2c1-27 6-56 22-79Z"/><path fill="#fff" d="M326 444a109 109 0 0 0-52 43 47 47 0 0 0-6 13 27 27 0 0 0 0 14l4 13a16 16 0 0 1-6 13c-4 4-9 6-14 8-6 2-12 5-17 10l-1-1c8-9 20-9 29-16 4-3 7-7 7-13 1-4-1-9-3-13a29 29 0 0 1-1-14 43 43 0 0 1 6-13 106 106 0 0 1 21-26 111 111 0 0 1 32-20l1 2Z"/><path fill="#fff" d="M278 480a16 16 0 0 1-4-21l1 1a15 15 0 0 0 3 19v1Zm-10 32a32 32 0 0 0 20-10c1-1 2 0 1 1a33 33 0 0 1-21 10v-1Zm35-57a9 9 0 0 0 8 4v1a10 10 0 0 1-9-4 1 1 0 0 1 0-1 1 1 0 0 1 1 0Z"/><path fill="#e6e6e6" d="m375 522-1 1a122 122 0 0 0-19 4h-2a129 129 0 0 0-42 22 125 125 0 0 0-14 13c-6 6-12 13-19 17a21 21 0 0 1-3 2l-40-20v-1h-2l1-1v-1l4-5c10-11 20-21 32-29l1-1a119 119 0 0 1 17-10 105 105 0 0 1 10-4 88 88 0 0 1 27-5 70 70 0 0 1 50 18Z"/><path fill="#fff" d="M375 523a109 109 0 0 0-67 3 47 47 0 0 0-13 7 27 27 0 0 0-8 12l-5 12a16 16 0 0 1-12 7c-6 1-12-1-17-2-6-2-12-4-19-3v-1c11-2 21 5 32 5 5 0 11-1 14-6 3-3 4-8 6-12a29 29 0 0 1 7-12 43 43 0 0 1 13-7 106 106 0 0 1 32-8 111 111 0 0 1 37 4v1Z"/><path fill="#fff" d="M315 523a16 16 0 0 1 9-19l1 1a15 15 0 0 0-9 18h-1Zm-28 20a32 32 0 0 0 23 4v1a33 33 0 0 1-23-4v-1Zm63-24a9 9 0 0 0 4 7v1a10 10 0 0 1-5-8 1 1 0 0 1 0-1 1 1 0 0 1 1 1Z"/><path fill="#ffb6b6" d="M364 306a10 10 0 0 0-1-15l16-77-17 5-13 75a10 10 0 0 0 15 12Z"/><path fill="#e6e6e6" d="m401 100-11-8s-9-1-11 16l-12 82-16 75 22 5 18-81 17-56Z"/><path fill="#3f3d56" d="m393 239-51-39a4 4 0 0 1-1-6l35-44a4 4 0 0 1 5-1l51 40a4 4 0 0 1 1 5l-35 45a4 4 0 0 1-5 0Z"/><path fill="#fff" d="m392 235-46-36a3 3 0 0 1-1-5l32-40a3 3 0 0 1 4-1l47 36a3 3 0 0 1 1 5l-32 41a3 3 0 0 1-5 0Z"/><path fill="#e4e4e4" d="M352 198a1 1 0 0 1 0-1l16-21a1 1 0 1 1 1 1l-16 21a1 1 0 0 1-1 0Zm2 2a1 1 0 0 1 0-1l16-21a1 1 0 1 1 2 1l-16 21a1 1 0 0 1-2 0Zm12-10a1 1 0 0 1 0-1l7-9a1 1 0 1 1 1 1l-7 9a1 1 0 0 1-1 0Zm4 18a1 1 0 0 1 0-1l25-33a1 1 0 1 1 1 1l-25 33a1 1 0 0 1-1 0Zm2 2a1 1 0 0 1 0-1l25-33a1 1 0 1 1 2 1l-26 33a1 1 0 0 1-1 0Zm6 4a1 1 0 0 1 0-1l25-32a1 1 0 1 1 2 1l-26 32a1 1 0 0 1-1 0Zm3 3a1 1 0 0 1 0-2l25-32a1 1 0 1 1 1 1l-25 32a1 1 0 0 1-1 1Zm6 4a1 1 0 0 1 0-1l25-32a1 1 0 1 1 1 1l-25 32a1 1 0 0 1-1 0Zm3 2a1 1 0 0 1-1-1l25-32a1 1 0 0 1 2 1l-25 32a1 1 0 0 1-1 0Z"/><circle cx="347.6" cy="260.3" r=".3" fill="#fff"/><path fill="#2f2e41" d="M398 22a83 83 0 0 1-6 19c-16 33 29 22 45 22 18 0 34 9 32-31-1-18-14-32-32-32-15 0-36 7-39 22Z"/><path fill="#ffb6b6" d="M453 508h-15l-7-57h22v57z"/><path fill="#2f2e41" d="M461 534h-10l-2-10-5 10h-29a6 6 0 0 1-3-12l22-15v-11l24 2Z"/><path fill="#ffb6b6" d="m542 489-12 9-40-42 17-13 35 46z"/><path fill="#2f2e41" d="m563 505-8 7-8-7 2 11-22 17a6 6 0 0 1-10-8l9-26-6-8 19-13Z"/><path fill="#ffb6b6" d="m405 244 70-11-14-42h-56v53z"/><path fill="#2f2e41" d="M471 212s28 25 15 94l-16 68 43 75-22 12-53-74-25-57-12-100Z"/><path fill="#2f2e41" d="m427 346-2 27 5 77 25 9 5-80-33-33z"/><path fill="#e6e6e6" d="m419 72 28 1 10 18 25 5-15 75 3 42h-24a72 72 0 0 0-49 18l1-55-11-41 3-44 20-2Z"/><circle cx="434.5" cy="37.5" r="25.7" fill="#ffb6b6"/><path fill="#2f2e41" d="M417 11a29 29 0 0 1 45 26c-13 3-27 6-41 1l-3-8-2 8c-5 2-9 3-13 0a30 30 0 0 1 14-27Z"/><path fill="#4E4FEB" d="m478 265 3 31a4 4 0 0 0 4 3h16a4 4 0 0 0 3-3l3-24a6 6 0 1 0 2-11 4 4 0 0 0-3-1h-25a4 4 0 0 0-3 5Zm30 6 1-6a4 4 0 0 0 0-2h1a4 4 0 1 1 0 8 4 4 0 0 1-2 0Z"/><path fill="#ffb6b6" d="M502 299a10 10 0 0 1 1-15l-16-77 18 6 12 74a10 10 0 0 1-15 12Z"/><path fill="#e6e6e6" d="m472 104 10-8s10-1 11 16 12 82 12 82l17 76-23 4-17-81-18-56Z"/><circle cx="379.7" cy="168.1" r="6" fill="#4E4FEB"/><path fill="#ffb6b6" d="M188 578h12l6-48h-18v48z"/><path fill="#2f2e41" d="M184 574h4l14-6 7 6a16 16 0 0 1 16 16h-41Z"/><path fill="#ffb6b6" d="m236 570 12 3 17-46-18-4-11 47z"/><path fill="#2f2e41" d="m234 565 3 1 15-2 6 7a16 16 0 0 1 12 19l-40-9Zm-69-236 11 127s-4 76 9 103h20l10-110 1-74 43 63-27 120 24 2 45-131-49-122Z"/><circle cx="176.4" cy="96.8" r="29.3" fill="#ffb8b8"/><path fill="#3f3d56" d="m228 154-24-10-12-13-29 5-8 13-25 24 30 133-1 29s18 8 100-11c1-1-1-2-1-2Z"/><path fill="#2f2e41" d="M146 113h-1Zm60-38a19 19 0 0 0-10-9 18 18 0 0 0-14 0l-12-5c-4-1-10 2-12 5a20 20 0 0 1-3 3c-2 2-5 2-8 2l4 3-5 1 6 4c-6 3-8 10-8 17 1 6 4 12 8 17l1-10c0-4 0-8 3-10l7-1a310 310 0 0 1 35 2 10 10 0 0 1 4 1c3 2 4 6 4 9a62 62 0 0 0 2-16 30 30 0 0 0-2-13Z"/><circle cx="214.7" cy="371.9" r="46.1" fill="#fff"/><path fill="#3f3d56" d="M215 325a47 47 0 0 0-7 0l-4 1a47 47 0 0 0-20 82l3 2a47 47 0 1 0 28-85Zm0 92a45 45 0 0 1-27-9l-2-2a45 45 0 0 1 20-78l3-1a45 45 0 0 1 6 0 45 45 0 0 1 0 90Z"/><rect width="51.2" height="6.1" x="353" y="511" fill="#4E4FEB" rx="3" transform="rotate(-180 297 437)"/><rect width="51.2" height="6.1" x="353" y="524" fill="#4E4FEB" rx="3" transform="rotate(-180 297 449)"/><rect width="51.2" height="6.1" x="353" y="536" fill="#4E4FEB" rx="3" transform="rotate(180 297 462)"/><path fill="#9e616a" d="M731 576h-14l-6-50h20v50zm-63 0h-13l-6-50h19v50z"/><path fill="#2f2e41" d="M669 590h-41a16 16 0 0 1 16-16l7-6 14 6h4Zm64 0h-41a16 16 0 0 1 16-16l7-6 14 6h4Zm-78-314-20 122 6 18-7 13 10 113-4 9 12 7h24l1-102 6-15v-8l12-63 3 88 3 15-3 11 4 7 10 70h28l-3-17a12 12 0 0 0 7-13l-2-7 4-21 6-117-2-94-31-25Z"/><circle cx="701.2" cy="94" r="25.2" fill="#9e616a" data-name="Ellipse 219"/><path fill="#9e616a" d="M646 324a11 11 0 0 0-2-16l10-37-19 6-6 34a11 11 0 0 0 17 13Z"/><path fill="#e6e6e6" d="m656 146-4-1-3 2s-10 13-10 25-12 125-12 125l22 10 17-89Z" data-name="Path 1101"/><path fill="#2f2e41" d="M723 76s7-13-8-14c0 0-12-11-25-2 0 0-7 0-10 7 0 0-6-2-7 4 0 0-4 11 0 22l5 11s-6-21 10-23 33-11 35 2l3 16s12-18-3-23Z" data-name="Path 1104"/><path fill="#fff" d="M815 429a8 8 0 0 1-5-2l-76-68a8 8 0 0 1-1-11l49-55a8 8 0 0 1 11-1l77 68a8 8 0 0 1 0 11l-49 55a8 8 0 0 1-5 3h-1Z"/><path fill="#3f3d56" d="M815 429a8 8 0 0 1-5-2l-76-68a8 8 0 0 1-1-12l49-55a8 8 0 0 1 12 0l76 68a8 8 0 0 1 1 11l-49 55a8 8 0 0 1-6 3h-1Zm-27-137a6 6 0 0 0-5 2l-49 55a6 6 0 0 0 1 9l76 68a6 6 0 0 0 9-1l49-55a6 6 0 0 0 0-9l-77-68a6 6 0 0 0-4-1Z"/><path fill="#4E4FEB" d="M843 377a3 3 0 0 1-2-1l-60-54a3 3 0 1 1 4-5l60 54a3 3 0 0 1-2 6Zm-11 12a3 3 0 0 1-2 0l-60-54a3 3 0 1 1 4-5l60 54a3 3 0 0 1-2 5Zm-12 13a3 3 0 0 1-2-1l-60-53a3 3 0 1 1 5-5l60 53a3 3 0 0 1-3 6Z"/><path fill="#9e616a" d="M752 326a11 11 0 0 1 6-15v-39l16 11-2 35a11 11 0 0 1-20 8Z"/><path fill="#e6e6e6" d="m753 156 8-7 5 4s6 7 10 26 0 126 0 126l-24-3 3-56-9-48Z" data-name="Path 1100"/><path fill="#3f3d56" d="m764 151-25-12-17-16h-31l-10 13-26 9 4 91-3 7 3 3c1 1-1 10-1 10l-1 10 3 2-4 6-2 8s81-20 96 13l-1-15-2-13 2-11 3-3-5-5 3-24Z"/><path fill="#ffb8b8" d="M196 353a12 12 0 0 0-8-16l-6-41-16 14 8 37a12 12 0 0 0 22 6Z"/><path fill="#3f3d56" d="m133 172-4 1-3 3s-4 17 1 29 40 129 40 129l25 1-20-96Z" data-name="Path 1101"/><path fill="#ffb8b8" d="M233 347a12 12 0 0 1 2-18l-10-40 20 7 7 37a12 12 0 0 1-19 14Z"/><path fill="#3f3d56" d="M224 155h4l4 2s10 14 10 26l11 135-23 11-17-96Z" data-name="Path 1101"/></svg>