<svg xmlns="http://www.w3.org/2000/svg" width="48" height="48" viewBox="0 0 256 256"><path fill="#085e9f" d="M44 12 27 2.5a4.3 4.3 0 0 0-4 0L6 12a4 4 0 0 0-2 3.5v19A4 4 0 0 0 6 38l17 9.5a4.2 4.2 0 0 0 4 0L44 38a4 4 0 0 0 2-3.5v-19a4 4 0 0 0-2-3.5zM25 37a12 12 0 1 1 9.5-19.3l-4.3 2.6a7 7 0 1 0 0 9.4l4.3 2.6A12 12 0 0 1 25 37zm12-11h-2v2h-2v-2h-2v-2h2v-2h2v2h2zm7 0h-2v2h-2v-2h-2v-2h2v-2h2v2h2z" font-family="none" font-size="none" font-weight="none" style="mix-blend-mode:normal" text-anchor="none" transform="scale(5)"/></svg>