<svg xmlns="http://www.w3.org/2000/svg" width="48" height="48" viewBox="0 0 256 256"><path fill="#865096" d="M25 2c-.7 0-1.4.2-2 .5L6 12a4 4 0 0 0-2 3.5v19A4 4 0 0 0 6 38l17 9.5a4.2 4.2 0 0 0 4 0L44 38a4 4 0 0 0 2-3.5v-19a4 4 0 0 0-2-3.5L27 2.5c-.6-.3-1.3-.5-2-.5zm0 11a12 12 0 0 1 9.5 4.7l-4.3 2.6a7 7 0 1 0 0 9.4l4.3 2.6A12 12 0 1 1 25 13zm10 7h2v2h2v-2h2v2h2v2h-2v2h2v2h-2v2h-2v-2h-2v2h-2v-2h-2v-2h2v-2h-2v-2h2zm2 4v2h2v-2z" font-family="none" font-size="none" font-weight="none" style="mix-blend-mode:normal" text-anchor="none" transform="scale(5)"/></svg>