<svg xmlns="http://www.w3.org/2000/svg" viewBox="0 0 363 438"><path fill="#f2f2f2" d="M336 37H51c-11 0-20 9-20 19v196c0 11 9 19 20 19h285c11 0 19-8 19-19V56c0-10-8-19-19-19Z"/><path fill="#3f3d56" d="M305 52H19C9 52 0 61 0 71v196c0 11 9 19 19 19h286c11 0 19-8 19-19V71c0-10-8-19-19-19Zm17 157c0 42-33 75-74 75H19c-9 0-17-7-17-17V71c0-9 8-17 17-17h286c10 0 17 8 17 17v138Z"/><path fill="#ccc" d="m41 244-1-1 3-5 2 1-4 5Zm11-15-1-1 9-8 2 2-10 7Zm50-12-6-1v-2l6 1 6-1 1 2-7 1Zm-30 0v-2a42 42 0 0 1 12-2v2a37 37 0 0 0-12 2Zm48-6-1-2 7-8v-1l2 1-1 1-7 9Zm16-19-1-1a37 37 0 0 1 11-6l1 2a39 39 0 0 0-11 5Zm24-6h-2v-2h2l10-1 1 2-11 1Zm23-3-1-2 12-3 1 2-12 3Zm24-7-1-1 10-6 2 2-11 5Zm20-14-2-1 2-2c1-2 2-5 6-7v-1l1 2-6 7-1 2Zm18-15-1-2 12-3v2l-11 3Zm24-5-1-2h6v2h-5Z"/><path fill="#e6e6e6" d="M64 74H36a3 3 0 0 0 0 5h28a3 3 0 0 0 0-5Zm47 0H83a3 3 0 0 0 0 5h28a3 3 0 0 0 0-5Zm47 0h-28a3 3 0 0 0 0 5h28a3 3 0 0 0 0-5ZM33 242h255v2H33z"/><path fill="#ccc" d="M275 96c-19 1-32 6-41 16l-6 10c-1 3-2 6-6 10v-3l5-8c1-3 2-6 6-10 9-11 23-16 41-17l1 2Z"/><path fill="#4E4FEB" d="M228 122c-1 3-2 6-6 10l-1 2c-11 13-27 18-39 22h-3c-11 3-17 3-21 3-5 0-8 0-13 3-10 6-14 14-18 22s-8 15-17 19c-7 3-12 1-17 0-4-1-12-29-18-33-14 3-23 49-34 74l-1-1c11-25 20-72 34-75 7-1 15 32 20 33s9 2 15 0c9-3 12-10 16-18s9-17 19-23c6-3 9-3 14-3 4 0 10 0 21-3h2a73 73 0 0 0 41-25l5-8c1-3 3-2 1 1Z"/><path fill="#ffb6b6" d="M122 351c-1-3-2-6-4-7l-6-27-13 3 8 27v8c2 6 7 10 11 9s6-7 4-13Z"/><path fill="#4E4FEB" d="M120 175s-20 0-25 15c-5 13-11 50-8 52l13 90 18-2-4-109 6-46Z"/><path fill="#2f2e41" d="m213 343-3 95h-48l-2-42-8 42h-51l6-73 7-15 4-11 95 4z"/><path fill="#4E4FEB" d="m175 157-33-2-11 14-24 9 11 107-5 64s70 56 100-6l-8-75 2-87-23-10-9-14Z"/><path fill="#ffb6b6" d="m239 133-1 9 5 33-15 2-4-33-3-9c-1-8 2-15 7-16 5 0 10 6 11 14Z"/><path fill="#4E4FEB" d="M212 185c-6-9-19-10-25-1-2 2-1 5-2 8-1 14 25 55 44 60 2 0 3 3 6 4 7 1 14-5 13-12l-5-95-21 7 2 50-12-21Z"/><circle cx="162.4" cy="123.5" r="29.1" fill="#ffb6b6"/><path fill="#2f2e41" d="m189 102 4-4c4-2 0 18-3 17-7-1-10-4-12 3l-3 5c-2 2-6 2-7 4-2 2-1 4 0 6l3 6c1 2-3 9-5 13 0 1-1-2-3-2-1 0-3 3-5 2l-6-1c-7-2-8 0-9 0l-3-4c-2-1-2-4-3-5h-3c-3-3-3-6-5-12-1-6-4-24 2-25 6 0 2-9 8-8-1-2 0-4 1-5l4-2c7-3 6-6 13-4h15c0 1 4 2 3 3 1-1 9 5 9 6 1 2-2 1 0 1l2 3 2-3h1c3 1-1 11-1 8 0-6 5-2 1-2Z"/><path fill="#3f3d56" d="M301 257h1l6-12-1-1-5 2v-32h-1v32l-6-2v1l6 12Zm34 33 1 1 12-5v-2l-5-1 20-26-2-1-20 25-3-4h-1l-2 13Z"/><path fill="#e6e6e6" d="M319 311h-34c-2 0-4-1-4-3-4-13-4-26 0-39 0-2 2-4 4-4h34c2 0 3 2 3 4v39c0 2-1 3-3 3Z"/><path fill="#fff" d="M292 267c-5 0-10 4-10 9v31c0 2 2 3 4 3h18c10 0 17-7 17-17v-23c0-2-1-3-3-3h-26Z"/><path fill="#e6e6e6" d="M310 278h-16a1 1 0 0 1 0-2h16a1 1 0 0 1 0 2Zm0 15h-16a1 1 0 0 1 0-1h16a1 1 0 0 1 0 1Zm8-8h-33a1 1 0 0 1 0-1h33a1 1 0 0 1 0 1Zm0 14h-13a1 1 0 0 1 0-1h13a1 1 0 0 1 0 1Z"/><ellipse cx="12.5" cy="12.5" fill="#4E4FEB" rx="12.5" ry="12.2"/><path fill="#f2f2f2" d="M112 8H45a4 4 0 0 1 0-8h67a4 4 0 0 1 0 8Zm53 14H45a4 4 0 0 1 0-8h120a4 4 0 0 1 0 8Z"/></svg>