<svg xmlns="http://www.w3.org/2000/svg" viewBox="0 0 525 418"><path fill="#f2f2f2" d="M442 400c2 1 3-2 2-3v-1c1-3 4-5 7-3 10 4 0 12 1 18 0 2 8 3 7 5a72 72 0 0 0-9-76c-3-1-1-4-3-8-1-1-6-1-7-3 1 0 4-3 3-5-1-1 0-3 1-4 3-4 7-4 9 2 5 2 5 6 2 10l-4 8h1l8 12c-1-4 0-10 1-14l8-11a6 6 0 0 1 11 3l-1 1c-2 1-1 5 1 5h1l-7 8c4 15 1 17-10 17l-1 1a73 73 0 0 1 4 30c1-5 3-9 7-11 5-4 12-6 17-9 3-2 6 0 5 3a21 21 0 0 0-3 2c-3 2-2 5 1 6-1 3-14 8-16 10-3 13-2 12-12 9l-5 15h-18l-1-1h5l-4-5-2-7 1-4Z"/><path fill="#3f3d56" d="M252 416H92c-8 0-15-4-19-11a22 22 0 0 1 0-22l80-145c4-7 11-11 19-11s15 4 19 11l80 145a22 22 0 0 1-19 33ZM72 394c0 4 18-4 20-1 3 7-7 21 0 21 0 0 174-3 177-10a20 20 0 0 0 0-20l-80-145c-3-6-10-10-17-10S72 391 72 394Z"/><path fill="#3f3d56" d="M254 414c-2 4 91 3 92 3l27-1a3 3 0 0 0 0-3l-12-22-3-2a89 89 0 0 1-58 24l-46 1Z"/><path fill="#ccc" d="m0 417 1 1h522l2-1-2-1H1l-1 1Z"/><path fill="#a0616a" d="M404 411h-9l-4-35h13v35z"/><path fill="#2f2e41" d="m373 411-1 3c0 1 2 3 4 3h28l2-2v-2s1-3-2-7c0 0-3 3-9-2l-1-3-12 8-6 1-3 1Z"/><path fill="#a0616a" d="m369 381-8 3-16-31 13-5 11 33z"/><path fill="#2f2e41" d="M340 391v3l4 2 27-9 1-3v-1s0-4-4-7c0 0-3 4-9 1l-3-2-8 11-5 3-3 2Zm15-212-17 58-21 52 33 75 12-5-15-69 31-46 14 145 12-1 17-175 2-38-68 4z"/><path fill="#e6e6e6" d="m408 50-25 5-2 12-16 7-8 84s-14 18-3 23l69-6s3-13 0-14-3-31-3-31l15-61-23-8-4-11Z"/><circle cx="393.1" cy="29.4" r="20.7" fill="#a0616a"/><path fill="#2f2e41" d="M407 33c-2 0 0 5-1 5-2 1-6-4-6-10v-4c0-3-2-6-3-6l-2 2 1 3c0 1-6 3-8 0-2-2-1-5-1-6l-4 4-3 2v-4l-2 5c-1 2-5 4-6 3l-2-3c0-2-3-8-2-11 1-5 5-2 6-3 2-3 4-2 8-4 3-3 3-6 5-6l5 2 4-2 4 2h2c3 1 5 3 5 4l3 4c1 2 3 1 5 2 3 2 4 7 4 13l-1 10c-1 4-5 9-7 11l-4 2-1-3 2-5c3-3 3-4 3-5 0-2-3-3-4-2Z"/><path fill="#a0616a" d="M334 226c0 5 2 10 6 10s6-3 7-9l-1-6 3-23-11-1-1 23-3 6Z"/><path fill="#e6e6e6" d="M365 73s-5 1-9 8c-2 4-12 75-12 75l-10 59h17l12-55 11-33-9-54Z"/><path fill="#a0616a" d="M412 217c-2 5 0 10 3 11s7-2 9-7v-7l7-22-11-3-5 23-3 5Z"/><path fill="#e6e6e6" d="M423 70s9-6 15 3c7 9 10 87 10 87l-19 48-14-5 13-58-23-45 18-30Z"/><circle cx="218.5" cy="311.4" r="73" fill="#4E4FEB"/><g fill="#fff"><circle cx="218.5" cy="349.5" r="6.7"/><path d="m218 267 1 22c0 18 4 42-1 42s-5-49-20-54c-16-5 22-24 20-10Z"/></g><path fill="#3f3d56" d="m121 349-7 14c8-6 20-11 30-14-9-4-20-11-27-18l4 14c-45-9-77-43-77-82l-1-1c0 41 31 77 78 87Z"/></svg>