<svg xmlns="http://www.w3.org/2000/svg" fill="currentColor" class="bi bi-globe" viewBox="0 0 16 16"><path d="M0 8a8 8 0 1 1 16 0A8 8 0 0 1 0 8zm7.5-7c-.7.3-1.3.9-1.9 2a8 8 0 0 0-.5 1h2.4V1zM4.1 4a9.3 9.3 0 0 1 .6-1.5 6.7 6.7 0 0 1 .6-1 7 7 0 0 0-3 2.5H4zm-.6 3.5c0-.9.1-1.7.3-2.5H1.7A7 7 0 0 0 1 7.5h2.5zM4.8 5a12.5 12.5 0 0 0-.3 2.5h3V5H4.8zm3.7 0v2.5h3a12.5 12.5 0 0 0-.3-2.5H8.5zm-4 3.5a12.5 12.5 0 0 0 .3 2.5h2.7V8.5h-3zm4 0V11h2.7c.1-.8.3-1.6.3-2.5h-3zM5.1 12l.5 1c.6 1.1 1.2 1.7 1.9 2v-3H5.1zm.2 2.5a6.7 6.7 0 0 1-.6-1 9.3 9.3 0 0 1-.6-1.5H2.3a7 7 0 0 0 3 2.5zM3.8 11a13.7 13.7 0 0 1-.3-2.5H1c0 .9.3 1.7.7 2.5h2.1zm6.9 3.5a7 7 0 0 0 3-2.5H12a9.3 9.3 0 0 1-.6 1.5 6.7 6.7 0 0 1-.6 1zM8.5 12v3c.7-.3 1.3-.9 1.9-2l.5-1H8.5zm3.7-1h2.1a7 7 0 0 0 .7-2.5h-2.5a13.7 13.7 0 0 1-.3 2.5zM15 7.5a7 7 0 0 0-.7-2.5h-2.1c.2.8.3 1.6.3 2.5H15zm-3.7-5 .6 1.5h1.8a7 7 0 0 0-3-2.5l.6 1zM10.9 4a8 8 0 0 0-.5-1c-.6-1.1-1.2-1.7-1.9-2v3h2.4z"/></svg>