<svg xmlns="http://www.w3.org/2000/svg" viewBox="0 0 744 654"><path fill="#28a097" d="M25 632v-1h-1l1 1Zm1-6-2-2 2 3-1 1 1 2v-4Zm2-88v1-1Zm0-54h1-1Zm2-9h-1 1Zm-2 63v-1 1Zm-4 76v1-1Zm5-52v1-1Zm0 19-1-1v1h1Zm-2 29Zm2-61ZM23 34Zm4-21Zm4 445Zm-1-157c-1 2-1-2-2 0 1 0 1 3 2 0Zm-6 312Zm4-312v1-1Zm2 117v1-1Zm-1 30v-1 1Zm0-45v-1 1Zm0-16v1-1ZM23 82h1c-1 0-1-3-1 0Zm1 532v-1 1Zm-2-211v-3 3Zm1-208Zm-1 198 1-2-1 2Zm2-311Z"/><path fill="#28a097" d="m22 65 1 2c1 2 0 1-1 2l1 4s0 1 0 0l1 8v1l1-1v3-1 1c-1 1 0-2-1-2l1 7-1-2v-3l-2 1 1 7h1c1 5-3 4-1 8 0 1 2 1 1 3h-1c0 3 2 1 1 5l-1-2c-1 2 1 1 1 3h-1l1 12h-1c1 5 0 10-1 15l1 2s0 1 0 0c-1 2 0 0 1 1l-1 1v13-1c0 3 2 3 1 5l-1 17 1 6-2 7 2 3h-1l1 2-1 1v2l1-1-1 5v6-2c1 3-1 0-1 3h1v7l-1-1 1 13c0-2 1-1 1 0l-1 1c1 0 0-2 1 0 0 2-1 1-1 0v2h-1v15l2 2-1 9 1 2c-1 0-1 3-1 1l1 10v-1 2c1 5-3 13-1 17l1 4c0 2-1-1-1 0v12c-2 3 0 11-1 15h1l-1 2h1c1 9-1 19-1 28-1 3 2 2 1 6l-1-1 1 21v-1 5l-1 1 1 5-1-1c1 1 0 4 1 3v7c1 2-1 5 1 5-2 0-1 4-1 6l-1 1 1 3c-1 3 2 7-1 9l2 15c-1 0 0-5-2-5l2 12-1-1 1 13-1-1 1 2v-1l2 4c-2-2-1 4-3 1l1 1c0 1 0 2-1 1l1 4-1-1c1 2 2 3 1 5l1 11c-1-2-1 1-2 1l1 3v-1l1 5-1-1v3l1-2 1 3-1 3 1 3h-2l1 6c0 1 0 2-1 1 0 3 2-1 1 3v-1 10c-1 0 0-3-1-2l1 13v-1c2 1-1 4 0 6l-1-1 1 10-1 6 1 1c-2 6 2 11 0 16l-1-1 1 4 1-1v3c0-2-1 0-1 1h1c-2 2 1 0 0 3v3c-1 1 0-1-1-1 0 2 2 4 1 5v-2l-1 3-1 3 1-1c2 2 0 4 1 7-1-3 0 0-1 0l-1 1v6-1c1 3-1 7 1 11l2 7c-1 1-1-1-1-1v5h-1v3l-1-1 1 4-1-1 1 5 1-1h-1v-3l1 2c1-2-1-5-1-7l2 1-1-3s1-1 1 1v-5l1 1v-6c-1-4-1 0-2-3l2-2h-1l1-2h-1c0-2-1-6 1-6-1-1-1 2-1 0v-5c1 1 0 3 1 1v-5l-1-6 1-7h1l-2-5 2 1v-1l-1-2h1l-1-7c0-1-2 2-2-1h1v-1l1 1-1-2h1v1l1-3-1-1 1-2-1-2 1-1c-1-1 0-5-1-4v-12l-1-6 1-2v-4 2-6c1 1 1-1 1-2v1-3l1 1c1-5-3-9 0-12-1-1-1 2-2 1l2-5c0-3-2-3-1-6-1 1-2 1-2-1s2-3 2-1v1c0-1 0-4 1-3 0-2-1-1-1 0v-7s0 1 0 0l-1-4 1-2c0-2 1-1 1 0-1-3 1-5 1-6v1-2l-1 1 1-2c-1-1-2 1-2-1v-3c0 3 1-1 1 2v-2l1 1-1-5v-2c0 2 0 1-1 0v-3 1l-1-3 1 1v-6l1-1v-6l-1-1 1 5-1-3v3h-1v-6h2l-1-9v1-4l1-1-1-4v-1c1-4-1-4-1-7 1 1 1-1 1 1v-6l-1-1c0-1 0 0 0 0s0-2-1-1c2-4 0-9 2-12l-1-7h1c0-3-2-2-2-5 1-2 1 2 1 1 2-1 0-4 1-7v1-7l-2-8 2 1c-1-2-2 0-2-2l2-3v2-4l-1-7v-3l1-1-2-7 2 6v-5 1l-2-6c3 0 1-7 3-9v-15c-2 2 0-1-2-1v-2l1-4 1 2 1-3v-3l-1 2v-7l1 1-1-9c0-1 0-1 0 0v-15 1-3s0 1 0 0v-3 1c1-5-1-8-1-12l2-5-2-14c2-3 1-11 2-16-1 1-1 0-2-1l1-3 1-5h-2c2-5-1-13 1-16l-1-4h1v-9l1 1-2-5h1v-13 1c0-2 1-7-1-6 2 0 1-5 0-7l1 1-2-5h1l-1-4 1 1-1-3 1-4-1-3 1 1v-8 5c1 0 1-3 2-1l-2-7h1v-7h-1v2a140 140 0 0 1 0-1l-2-1 3-5c-1-4 0-8-2-10l1-2v2l-1-6c0-3 1 1 1-2 2-7-3-11-1-18v1c1-8-1-17 1-25l-1-5h1l-1-2c-1-4 2-6 0-11v1-6l-1-4c1-3 2 0 2-4l-1-4-1 2v-2c-2 0-3-1-4 3l1 2-1 1v-2 4l1 2c-1 0-1-1-1 1 0 1 1-1 1 1v2l-1-1 1 4-1 4 1 4c-2-2 0 4-2 4l1 8v-1l-1 3c2 1 2 3 2 4-1 2-1-1-2 0 1 0 1 3 2 2l-2 2c2 1 1 2 2 3-1 2-2 1-1 3-1 1-1-1-1-1Zm2 56Zm0 4v-2l1 1-1 1Zm6-9v1-2 1Zm-1-2v1-1Zm-1 425Zm-5-349zm2 375Zm0 11-1 1 1-1Zm-1 8 1 1-1-1Zm-1-136c0-1 0 0 0 0Zm2 41v-2 2Zm-3-86Zm3 82v2-2Zm-1 136v1-1Zm0 1Zm0 1v-1 1Zm0-13Zm0-3v3-3Z"/><path fill="#28a097" d="M28 592v3h1c1-3-1 1-1-3Zm0-9c1 2 1 0 1 0h-1Zm0-64h1-1Zm-4-13v1l1 1-1-2zm6-7v-2 2zm0-109-1 1s1 1 1-1Zm-1-47v-2 2Zm1-140 1 1-1-2v1zm-3 427h1l1-1-2 1Zm7 1 2-2-3 2-2-1-2 1h5Zm99 2h-1 1Zm61 0-1 1 1-1Zm10 2v-1 1Zm-71-2h1-1Zm-86-4Zm59 5h-1 1Zm-21 0 1-1h-1v1Zm-33-2h-1 1Zm68 2h1-1Zm580-6c-1 0 0 0 0 0h-1Zm24 4h-1 1Zm-501 4Zm176-1c-2-1 3-1 0-2 0 1-3 1 0 2Zm-351-6Zm351 4Zm-132 2Zm-32-1Zm49 0h2-2Zm18 0h-1 1Zm344-6v1c0-1 3-1 0-1Zm-599 1h1-1Zm238-2h3-3Zm233 1h1-1Zm-222-1 2 1-2-1Zm350 2Z"/><path fill="#28a097" d="M665 627c-3 0-1 1-2 1-3 1-1 0-2-1l-5 1h-1l-8 1h-1l1 1h-3 1-1c-1-1 2 0 2-1l-7 1c-1-1 4-1 1-1h3c-2-2 2 0 0-2l-8 1-1 1c-5 1-4-3-8-1-1 0-1 2-4 1l1-1c-4 0-2 2-6 1l2-1c-2-1-2 1-4 1v-1l-13 1v-1c-5 1-12 0-17-1l-2 1s-1 0 0 0c-2-1 0 0-1 1-2 0-2-1-1-1h-15 1c-3 0-3 2-6 1h1l-19-1-7 1-8-2-4 2v-1l-2 1-1-1h-2l1 1-6-1h-6 2c-3 1-1-1-4-1v1h-7v-1l-14 1c2 0 1 1 0 1l-1-1c-1 1 2 0 0 1-2 0-1-1 0-1h-3l1-1h-17l-3 2-10-1c-2 0 0 1-1 1l-2-1-11 1h1-3 1c-6 1-15-3-19-1l-5 1c-3 0 1-1-1-1h-13c-3-2-12 0-17-1v1l-2-1 1 1c-11 1-22-1-32-1-4-1-2 2-7 1l1-1-23 1h1-6l-1-1-5 1 1-1c-1 1-5 0-4 1h-8c-2 1-5-1-5 1 0-2-5-1-7-1 0 0-2 0-1-1l-4 1c-4-1-7 2-10-1l-17 2c0-1 6 0 6-2l-14 2 2-1-15 1 1-1-2 1h1l-4 2c2-2-5-1-2-3l-1 1c-1 0-2 0-1-1l-5 1 1-1c-1 1-3 2-5 1 0 0-1 0 0 0l-12 1c2-1-2-1-2-2l-2 1h1l-6 1 1-1h-4l2 1c-2 0 1 1-2 1l-4-1-4 1v-2l-6 1h-1l-1-1c-3 0 1 2-2 1h-10c-1-1 3 0 2-1l-15 1c0 2-3-1-5 0v-1l-11 1-7-1-1 1c-6-2-12 2-18 0l1-1-5 1 2 1h-3c2 0 0-1-1-1v1c-3-2-1 1-4 0h-4l2-1c-2 0-4 2-6 1h3l-4-1-3-1 1 1c-3 2-5 0-8 1 3-1 0 0 0-1l-1-1h-6c-2 0 0 0 0 0-3 1-7-1-12 1l-8 2c-1-1 1-1 1-1h-5l-1-1h-3l2-1-6 1 2-1-6 1 1 1 1-1h2l-1 1c1 1 5-1 8-1l-1 2 2-1v1h5l-1 1h7-1c5-1 1-1 4-2l2 2 1-1 1 1 1-1c2 0 6-1 6 1 1-1-2-1 1-1h4c0 1-2 0 0 1h6l6-1 8 1v1l6-2-2 2h2l2-1v1l8-1s-2-2 1-2l-1 1h2l-1 1 2-1v1h-1l3 1 1-1 3 1 2-1 1 1c1-1 6 0 5-1h-1 14l7-1 2 1h5-2 6c-1 1 2 1 3 1h-2 4l-1 1c5 1 9-3 13 0 2-1-3-1-1-2l5 2c4 0 3-2 7-1-1-1-1-2 1-2 3 0 3 2 2 2h-2 1c1 0 4 0 3 1 2 0 1-1 0-1h8-1l5-1 3 1c2 0 0 1-1 1 3-1 6 1 7 1h-1 2l-1-1 2 1c1-1-1-2 1-2h4c-4 0 1 1-3 1h3l-1 1 6-1h1l1-1h4-2l3-1v1h6l1 1h7c-1 0-2 0 1-1l-5 1 3-1h-4v-1h7v2l11-1h-2 5l1 1 4-1h2c4 1 4-1 8-1l-2 1h6l2-1c1 0 0 0 0 0s3 0 1-1c4 2 11 0 14 2l8-1v1c3 0 2-2 5-2 2 1-2 1-1 1 1 2 5 0 7 1h8s-1 0 0 0l9-2c-1 1-2 1-1 2 1-1 0-2 2-2l3 2h-2 4l8-1h4l1 1 8-2-7 2h6-2l7-2c0 3 8 1 10 3h17c-3-2 1 0 1-2h2l4 1c1 1-1 1-1 1l4 1h2l-2-1h8l-1 1 10-1c1 0 1 0 0 0h23-1c5 1 8-1 12-1l7 2 16-2c3 2 12 1 17 2-1-1 0-1 1-2l4 1h-1l6 1 1-2c5 2 14-1 17 1l5-1-1 1h11l-1 1 5-2 1 1h14-1c2 0 8 1 7-1 0 2 5 1 7 0v1l5-2v1l4-1-1 1 4-1 4 1 3-1v1h9-6c0 1 3 1 1 2l8-2v1h8v-1h-2l2-2 6 3c4-1 9 0 11-2l2 1h-2l7-1c3 0-1 1 2 1 7 2 12-3 20-1h-1c9 1 19-1 29 1l4-1 1 1 3-1c3-1 6 2 11 0h6l5-1c3 1-1 2 4 2l4-1-2-1h2c0-2 2-3-2-4l-3 1-1-1h2-4l-3 1c0-1 1-1-1-1-1 0 2 1 0 1h-3l1-1-5 1c-1-1-5 0-4-1l-4 1c2-2-5 0-5-2l-9 1h1l-4-1c0 2-3 2-4 2-2-1 1-1 0-2l-3 2-2-2c0 2-1 1-3 2-2-1 0-2-3-1-1-1 1-1 1-1Zm-63 2Zm-5 0h2v1l-2-1Zm11 6h-1 1Zm2-1h-1 1Zm-478-1Zm392-5h1-1zm-421 2h-1 1Zm-13 0-2-1 2 1Zm-9-1-1 1 1-1Zm153-1c1 0 1 0 0 0Zm-46 2h2-2Zm97-3Zm-93 3h-2 2Zm-153-1h-1 1Zm-1 0Zm-1 0h1-1Zm15 0Zm3 0h-3 3Z"/><path fill="#28a097" d="M72 633h-4c1 0 2 0 0 1 4 1-1-1 4-1Zm10 0c-2 1 0 1 0 1v-1Zm73 0-1 1c2 0 0 0 1-1Zm13-4h-1v1l1-1zm9 6h-1 2-1zm122 0v-1 1Zm53-1h3-3Zm158 1-1 1 2-1h-1z"/><path fill="#20a09b" d="M38 36h1-1Zm2-1-2 1 1-1v1s-1 0 0 0v-1h1Zm-3-8Zm-2-5Zm1-1Zm1 6Zm0 8Zm2-6v-1 1Zm1 1-1 1v-1h1Zm0 3Zm-2-6h1-1Zm-22 9Zm-5-1Zm25-16ZM25 6v3-3Zm12 29ZM25 9Zm9 7h-1 1Zm0 3Zm-2-5Zm-1-2ZM18 32l-1-1 1 1Zm19 3ZM27 19Zm-4 3Zm4-3v-1 1ZM17 31Z"/><path fill="#20a09b" d="m18 34-1-1h1l-1-1h1l-1-1-1-1s-1 0 0 0v1-1l1 1v-1l1 1h-1l2 1v-1l-2-1h2l-1-1 1 1-1-1h1-1 1v-1h1l1-1h-1 1-1 1v-2 1l-1-1h1l1-1-1-1h2l-1-1 1 1-1-1h2l-1-1 1 1c-1-1 1 0 0 0v-1h1v-1l-1-1 1 1-1-1 1 1v-1 1l1-1v1-1l-1-1v1-2 1-1l1 1s0 1 0 0v-1 1-1s0 1 0 0v2-1 1-2 3l1-3-1 2 1-1c-1 1 0 0 0 0v1c-1 0 0-1 0 0v-1c0 1 0 0 0 0h1-1v1c1 0 1 0 0 0a6 6 0 0 1 2 0l-2 1h2-1l1 1s0 1 0 0h2l-2 1h1-1 2-1l2 1-2 1h1v-1l1 1h-1 1l1-1v1l-1 1h1-1 1-1 1v1h-1l2 1c1-1-1 0 0 0l-1 1h2-1v1l1-1c-2 2 2 1 0 2h2l-1 1v-1h1-1 1l-1 1h1-1v1h2-2v1s-1 0 0 0l1 1h2-1v1s1-1 0 0h-1 1-1 2-1 1c1-1-1 0-1-1h1-1 1l1-1h-1 1c1-1-1 0 0 0v-1l-2 1 2-1h-2l1-1-1 1c2-1 0 0 0-1h1v-1h-1l1-1h-1 1-1l1-1h-1l-2 1h1v-1c1 0 0 1 0 0h1v-1 1-1h-1l-1-1h1-1v-1h1l-1-1h1-1 1c1-1-2 0 0-1h-1l1-1h-1l-2 1 2-1h-1 1v-1 1-1h-2 1l1-1v-1h1-1l-2 1 1-1h1-1l1-1-2 1c1 0 0 0 0 0h-1 1v-1l1-1c-1 1 0 0 0 0h-2l1 1h-1 1-2l2-1c1-1-1 0-1-1v1h-1l1-1h-1l1-1h-2 1c0-1 0-1 0 0v-1l-1 1v-1l-1 1 1-1v-2h-1l-1 1 1-1v-2s-1 1 0 0c0-2-1 0-1 0V9l-1 2 1-2-1 2V7v2c-1 1 0-2-1 0V6v2-3 1s0-1 0 0v2-3c-1 0-1 1-1-1v1h-1v4l-1-2V5v2c0 1 0 0 0 0h-1V6v3-1l-1 2v1s0 1 0 0h-1v1-1 3h-2v-1l1 3-2 1h1l-1 1-1-1 1 1c-2 0 1 2-1 1v1l-1-1v1h-1l2 1h-1v1l-1-1s-1 1 1 1v1h-1l1 1c-1 0 0 0 0 0h-1 1-1l1 1h-1s1 1 0 0l-2-1 1 1h-1l1 1c1 0 1 0 0 0l1 1-2-1 1 2v-1h-1l1 1h-1c-2 0 2 2 0 2-1 0 0 2-2 2h1-1l1 1h-1v1h-1 1-2l1 1h1l4 2-1-1 1 1h-1 1l-1-1 1 1-1-1h1v-1l1 1-1-1h2l-1-1h1l-2-1 2 1-1-1 1 1-1-1h1l1 1Zm1-6Zm0-1h-1 1Zm-6-2h1-1Zm1 1Zm23 1Zm-14-4zm13 8h-1 1Zm0 1Zm0 0Zm-7-11Zm4 3h-1 1Zm-6-5zm5 5Zm5 12Zm0 0Zm1 0h-1 1Zm-1-1Zm0-1v1-1Z"/><path fill="#20a09b" d="m40 31-1 1 1-1c1 0 0 1 0 0Zm0-1c0 1 0 0 0 0Zm-3-5Zm-4 1h-1 1zm4-3zm-6-11v1-1Zm-3-5V6v1ZM17 18zm680 625v1-1Zm1 1-1-2 1 2-1-1v1h1Zm8-2Zm5-2Zm2 0h-1 1Zm-7 2h1-1Zm-8 0Zm7 2Zm-2 1v-2 2Zm-3 0Zm6-2Zm-8-22Zm0-5Zm16 25Zm13-12-3 1 3-1Zm-29 13Zm26-12Zm-6 9-1-1 1 1Zm-3 0Zm4-3s0 1 0 0c0 0 0 1 0 0Zm2-1Zm-19-12v-1 1Zm-4 19Zm16-11v1-1Zm-3-3Zm3 3 1 1-1-1Zm-12-9Zm-2 1 1-2-1 2 1-1h1l1-1s0-1 0 0l-1 1 1-1-1 1v1c0 1 0 0 0 0l1-1v2l1-1-1 1 1-1v1-1 1h1l1 2v-1 1l1-1-1 1h2l1-1h-1c1 1 2 1 1 2 1-1 1 1 1-1v2l1-1v1-1 1-1 2l1-1v1c0-1-1 1 0 0v-1 1l1 1 1-1v-1 2h-1 1v1-1l1-1v1l1-1-1 1h1c1 0 0 0 0 0h-1v1l2-1-2 1h1-2 1c1 0 0 0 0 0h1c1 0 1 0 0 0h-2 2-2 1l1 1-1-1v1l-1-1 1 1-1-1 1 1c1 0-1 0 0 0-1 0-1 0 0 0l-1-1 1 1h-1c1 0 1 1 0 0a6 6 0 0 1 0 2l-1-2v2-1l-1 1 1 2-2-2 1 1-1-1v1-1 1s0 2-1 1v-1h-1l1 1v1l-1-1 1 1v1l-1-1v1-1 1l-1-1 1 1-1-1v1h-1v-1l-1 2c1 1 0-1 0 0v-1l-1 1h-1l1 1c-2-2-1 1-2 0v2-2 2-1 1l-1-1v1-1c0-1 0 0 0 0l-1-1v1l1 1-1-1-1-1v1-1 1c0 1-1-1-1 1l1 2-1-1v-1 1l-1-1v1-1 2-1c0-1 0 0 0 0 1 2 1 0 1 0v1-1l1 1c0 1-1 0 0 0v1-1 1h1l-1-2 1 2v-2l1 1-1-1h1v1h1v-1l1 1v-1 1h1v-1 1-1l-1-2 1 1s0-1 0 0v1h1v-1 1-1 1-1l1-1v1l1-2v1c0 1 1 0 0 0h1v1-1l1 1c1 1-1-2 1-1l-1-1 1 2v-3 1l1 1-1-1 1 1v-1c0 1 0 0 0 0v-1l1 1v1h1v-1 1l-1-2h1v2-1 1-1h1l-1-1h1-1v-1h1l1 1s0 1 0 0v-1 1l-1-1v-1c1 1 0 0 0 0l1 2 1-1v-1 1-1l1 1v-2l1 1v-1s-1 0 0 0l-1-1h3s1 0 0 0v-1h1l1 1 1-1v1-1l-1-1h1-2 5l-2-1c-2 0 1 0 0 0h2-2 3-1 1c-2 0-3 0-2-1h4l-2-1h-4l2-1h3l-2-1-1 1c-1 0 0 0 0 0v-1h1-3l1-1h-3l1-1h-2 1-3l1-2h-3c1-1-1-1-1-2v1s-1 1 0 0v-1l-1 1c1-2-2 0-1-2v1-1h-1l1-1-2 2 1-1-1-1h-2 1l-2 1h1-1v-1 1-1h-1 1-1v-1 1l1-2-1 1c0-1 0-1 0 0v-1l-1 1h1-1l-1 1 1-2-1 1v-1l-1 1v-1c1-2-2 2-1-1l-1 1-1-2-1 1v-1 1c-1 0 0-3-1-2v1-1l-1 1 1-1-1 1 1-2-2 1v1l-2 3h1-1 1l-1 1 1-1v1l1-1h-1v1l1-1v2-1 2l1-1v1l1-2-1 2 1-1v1-1 2Zm6 0h-1 1Zm0 1v-1 1Zm2-6Zm-1 1Zm-1 23Zm5-14h-1 1zm-8 12Zm-1 1-1-1 1 1Zm-1 0Zm11-7Zm-3 3Zm5-6zm-5 6Zm-12 5Zm0 0Zm0 0Zm2 0h-1 1Z"/><path fill="#20a09b" d="m699 642-1-1v1h1Zm3 2h-1l1 1v-1Zm1 0v1-1Zm5-3 1 1-1-1Zm-1-4v1-1zm4 5zm10-6-1-1 1 1Zm5-4h1-1Zm-11-10h1-1z"/><path fill="#e45656" d="m27 631 1-1-1-1v2Zm4-7c0-1 0-3-1-2v3l-1 2-1 2 3-5Zm67-80h-1 1Zm64-25s1 0 0 0Zm9-10-1 1 1-1Zm-73 35h1-1Zm-62 66-1 1a320 320 0 0 0 1-1Zm33-54-1 1 1-1Zm-13 16v-1l-1 1h1Zm-16 34Zm45-56Zm474-326Zm13-24v1-1ZM181 490Zm150-61c-2 2 1-3-1-1 0 0-1 3 1 1ZM36 609Zm294-181Zm-128 17h-1 1Zm-17 33 1-1-1 1Zm24-51 1-1-1 1Zm14-6h-1 1Zm312-141h1c-1 0 0-3-1 0ZM36 610v-1a90 90 0 0 1 0 1Zm170-186 1-3-1 3Zm196-112 1-1-1 1ZM217 416l2 1-2-1Zm319-136Z"/><path fill="#e45656" d="M543 260c-2 3 0 1 0 2-1 4-1 1-2 2l-2 6-3 9v1h1l-2 2 1-1-1 2v-3l-2 8v-2l1-3c-2 2 1-2-1 0l-3 8v1a22 22 0 0 1-1 2v1h-1v-1l-4 1-4 1 1-1c-5 1-3 2-7 2l3-1-5 1-14 2h-1l-19 2-2 1-1-1c-2 0 0 1-1 1h-1l-16 2h1l-7 2 1-1-21 3c-1 1-8 0-8 2h-9l-4 1v-1l-3 1h-4 2v1a228 228 0 0 0-3 0v1l-1 1-1 1-2 2-3 6 1-3-2 4-5 7v-1l-9 14c2-1 2-1 1 1h-1c0 1 1-1 1 1-2 2-2 1-1 0l-2 2v-1c0 1-3 3-3 5l-7 11-1 3-7 9v3c-1 0-3 3-2 1l-7 11 1-1-1 2c-3 6-10 12-12 18v-1l-3 5c-2 3 1-1-1 0-2 6-5 9-8 13l-2 3a38 38 0 0 0-1 2h-2l-3-1-5-1v1l-3-1s2 0 1 1l-36-6h-8l2-1-27-3h1-6l-1-1-6-1h1-5l-8-1h-4l-1-1h-4l-1 2-1 1v1l-1 4h-1l-2 4c-2 4-3 9-5 10l-7 19c-1-1 3-7 2-7l-6 14v-1l-7 15v-1 2-1l-1 5c0-2-2 5-2 1v2h-1l-2 5v-1l-2 6-5 12c0-2-1 2-2 2l-1 2h1l-1 2-1 1v1h-2 1v-1h1-1l-1 1-2 1 2-1c-2 1 1 1-2 2l-4 1-4 2v-1c-1 1-6 2-7 4v-1l-1 1h-1l-3 1h1l-11 4c-1 0 3-1 1-1l-15 7 1-1c0 2-4 1-6 3v-1l-12 6 1-1-8 3-1 1c-7 1-13 6-19 7l1-1-5 3h2l-3 1h-2 1l-4 2-2 1-1 2c0 1 0 0 0 0v-1l-1 1v2l-1 3 1-3c-2 1-2 2-2 3l-2 3 1-1c0 4-2 6-3 10 1-4 0-1-1-2l-1 2-2 5-1 1c-1 2 1 0 1 0l-6 13-2 9v-2l-3 6c0-1 0 0 0 0l-1 3v-1l-2 5v-2l-2 7 1-2h-1l2-3-1 2c2-1 3-6 4-8v1l1-3v1l2-4v1l1-2v1c2-4 1-6 3-7v-4l2-2v-1l1-1v-1l3-7c0-1-1 2 0 0l2-5c1 1-1 3 1 1-1-2 2-4 2-6l3-7 1-2 1-2a515 515 0 0 0 1-2h1l1-1v1l5-3-1 1 2-1 2-1v1l9-4c0-1-4 0 0-2l-1 1 2-1-1 1 2-1h1l-2 1 4-1 1-1h3l2-2h1c1-1 7-3 5-3l-1 1 1-1 14-5c2-1 6-2 7-4h2l5-2-2 1 7-2 3-1h-2l4-1v1c5-2 9-6 14-6h-2l6-1 6-4 2-2c2-1 3 0 2 1h-1l-1 1 3-1 1-1h2c0-1 0-1 0 0h-2 2a1259 1259 0 0 0 3-8l2-5 1-3c2-1 1 0 1 1l4-7-1 2 1-3-1 1 1-2v-1l2-4c-2 4 1 0 0 3l1-2 2-6 1-1c-1 2-1 1-1-1l2-4-1 1 2-3-1 1 4-7 1-1 3-6v-1l-2 5 1-4-2 5v-1c1-2 1-5 3-7l1 1 5-12-1 2 2-5 1-1 2-4 1-2 3-9v3l1-3 2-4v-3l1 1c-1-1 0-3-1-2a13 13 0 0 0 2-3l1 1h5l5 1 9 1h-1l7 1h-1c0 1 5 0 8 2h-1 9v1h10l-1 1 3-1 3 2-3-1 5 1 9 1v-1l5 1v1h10-8l7 1h-3 9c-1 1 8 1 10 3l8 1h4l2 1h3l2-2 1-2c-3 1 1-2 0-2l1-2 3-4v2l3-3 1-3-2 2c2-4 3-3 6-7l-1 1 6-10c0-1 1-1 0 0l10-16v1l2-3 2-4v1l7-12 5-5c3-6 5-11 9-16l11-16 1-2c0-1 1-4 2-3l4-5-1-1 4-5a77 77 0 0 0 2-4h1l1-1h5l5-1v1l12-2-1 1 6-3 1 1 15-2h-1c2 0 9 0 8-1l8-2v1l6-2h-1l5-1-1 1 4-1h6l3-1h-1l10-1-6 1s3 0 1 1l9-2h4l5-1v-1h-2v1h-4l4-1 2-1 6 1 13-3h2-1l-1 1 2-1h2l1-2v-1l1-1v-1l1-2c5-7 4-13 9-21v1c4-10 8-21 13-30l1-5h1l1-3c1-5 4-7 6-12h-1l2-5 1-2 2-4c1-4 1 1 3-4l1-6-2 2 1-2c-1 0-1-2-3 2l-1 3-1 1 1-3-1 4-1 1-1 3h-1c0 2 2 0 1 2l-2 2v-1l-1 5-3 5-1 4c0-3-2 5-3 4l-4 11 1-1-2 3-1 5c-2 2 0-1-1-1l-1 4-2 2v3l-2 3v-1Zm-45 39h1-1Zm-6 1a80 80 0 0 0 2 0h-2Zm13 2h-2 2Z"/><path fill="#e45656" d="M506 301h1-1v1-1ZM97 544Zm312-234h1-1zM65 555Zm-9 10-1 2 1-2Zm-5 10Zm130-98Zm-25 42 1-1-1 1Zm50-95Zm-46 93-3 1 3-1ZM32 618v1-1Zm0 1-1 1 1-1Zm-1 2v-1 1Zm7-16Zm2-4-2 4 2-4Zm9-16-1 4c0-1 1-1 0 0 3-4-1 1 1-4Zm5-10c-1 2 0 0 1 0h-1Zm67-40v1-1Zm14-8h-2v1l2-1zm10 0h-1l3-1-2 1zm74-106c-1 0-1 0 0 0Zm60 8 3 1-3-1Zm121-106v1l1-2-1 1z"/><path d="M702 71c-28 2-53 14-73 34l-4 4h-4c-17 1-36 9-49 22l-2 3v2l1 1 13 2 12 2-1 2c-2 2-3 3-2 5l42 42 4-2 2-2 2 12 2 13c1 1 3 2 4 1 2 0 7-6 11-13 8-11 12-25 13-38v-3l5-5c21-20 33-48 34-77 0-4-1-5-2-5h-9 1Zm-30 27c6 2 11 6 12 12l1 3c0 6-4 12-9 14l-7 2c-6 0-12-4-14-8l-2-7c0-5 2-9 5-12 4-3 9-5 14-4Zm-82 73c-4 0-7 2-10 4-4 4-9 14-15 33-4 10-4 10-2 12 1 1 2 1 12-2 18-7 29-12 32-15a19 19 0 0 0-12-32h-5Zm-401-58-11-20h-7v20h-8V63h18l9 2a14 14 0 0 1 8 13c0 4-1 7-3 9-1 3-4 5-8 6l12 20h-10Zm-18-26h10l7-2 2-7-2-6-7-2h-10v17Zm81 10h-30a11 11 0 0 0 11 10c4 0 8-2 9-5h9l-6 9c-3 2-7 3-12 3l-10-2-7-8c-2-3-3-6-3-10l3-11c1-3 4-6 7-7 3-2 6-3 10-3s7 1 10 3c3 1 5 3 7 6s2 7 2 11v4Zm-8-7c0-3-1-5-3-7-3-2-5-3-8-3s-6 1-8 3-3 4-3 7h22Zm23-7a18 18 0 0 1 17-10 17 17 0 0 1 13 7v-6h9v39h-9v-5l-5 4-9 2-9-3c-3-1-5-4-7-7l-2-11 2-10Zm29 3-5-4-6-2-6 2-4 4-2 7 2 8a12 12 0 0 0 10 6 12 12 0 0 0 11-6l1-7-1-8Zm27-3c2-3 4-6 7-7 3-2 7-3 10-3 5 0 9 1 12 4 3 2 6 5 7 9h-9l-4-4-6-2c-3 0-6 1-8 4-2 2-3 5-3 10s1 7 3 10c2 2 5 3 8 3 5 0 8-2 10-6h9a18 18 0 0 1-19 13l-10-2-7-8-2-10 2-11Zm80-8c2 1 4 3 5 6 2 2 2 5 2 9v23h-8V91l-2-8c-2-2-5-3-8-3s-5 1-7 3-3 5-3 8v22h-8V60h8v18l6-4 7-1 8 2Zm-282 85-24 58h-8l8-19-16-39h9l11 30 12-30h8Zm21 38c-3-2-6-4-7-7-2-3-3-7-3-11s1-8 3-11l7-7c3-2 7-2 10-2l11 2 7 7c2 3 3 7 3 11l-3 11-8 7c-3 2-6 2-10 2s-7 0-10-2Zm16-6 4-5c2-2 2-4 2-7l-2-7-4-5-6-1-6 1-4 5-2 7c0 4 2 8 4 10s5 3 8 3l6-1Zm66-32v40h-8v-5l-5 4-7 1c-3 0-6 0-9-2l-5-5c-2-3-2-6-2-10v-23h8v22l2 8c2 2 5 3 8 3s5-1 7-3c2-1 3-4 3-8v-22h8Zm31 1 7-1v8h-2l-8 2-2 9v21h-8v-40h8v6l5-5Zm48 1 10-10c3-2 8-3 12-3 6 0 10 1 15 4 4 3 7 6 9 11h-10l-6-6-8-2c-3 0-6 1-8 3-3 1-5 3-7 6l-2 10 2 9 7 7 8 2 8-2c3-1 4-3 6-6h10c-2 5-5 9-9 11-5 3-9 4-15 4-4 0-9-1-13-3l-9-9c-2-4-3-8-3-13s1-10 3-13Zm75-1 8-1v8h-3l-7 2c-2 2-2 5-2 9v21h-9v-40h9v6l4-5Zm58 22h-30a11 11 0 0 0 11 11c5 0 8-2 10-6h9c-2 4-4 7-7 9s-7 3-12 3c-3 0-7 0-10-2l-7-7c-2-3-2-7-2-11l2-11 7-7c3-2 6-2 10-2s7 0 10 2 6 4 7 7l3 10-1 4Zm-8-7c0-3-1-5-3-7s-5-3-8-3-5 1-7 3-4 4-4 7h22Zm30 23c-3-1-5-3-6-5l-2-6h8l3 4 5 2 6-2 1-3c0-2 0-3-2-3l-6-3-8-2-5-4-2-6 2-6c1-2 3-3 6-4l8-1c4 0 8 1 11 3 2 2 4 5 4 9h-8l-2-4-6-2-5 2-1 3 1 3 3 1 5 2 7 2 4 4c2 1 2 3 2 6l-1 6-6 4-8 1-8-1Zm49-32v22l1 3 4 1h5v7h-7c-3 0-6-1-8-3s-3-4-3-8v-22h-5v-7h5v-10h8v10h10v7h-10Z"/></svg>