<svg xmlns="http://www.w3.org/2000/svg" data-name="Layer 1" viewBox="0 0 690 573"><path fill="#a0616a" d="m185 539 12 4 21-43-17-6-16 45z"/><path fill="#2f2e41" d="m200 545 3-8h-3l-13-4-3-1-11 26-1 1 9 3v-1l4-6 1 7v2l22 7a5 5 0 0 0 6-3c3-4-12-19-14-23Z"/><path fill="#a0616a" d="M103 548h12l6-48h-18v48z"/><path fill="#2f2e41" d="M119 549v-8h-3l-13 1h-3l-2 28-1 1h9v-1l2-7 3 7 1 1h23a5 5 0 0 0 5-5c1-4-18-14-21-17Zm72-299 19 26s-10-1 0 3 11 3 11 9-11 5-6 11 42 82 42 82-30 111-33 115-8 1-4 5 9-1 4 4l-13 15-21-3s-24-23 14-60c0 0 9-37 5-37s-4 6-4-6v-12l-50-93s-31-25-31-36 67-23 67-23Z"/><path fill="#2f2e41" d="M156 276s22 113 19 116-3 11-3 11l-52 114-20 1c0-33 0-57 17-80l9-168Z"/><path fill="#e6e6e6" d="m185 141-25-19-12-1-19 12-5 24-11 27 16 72s2 5-2 6-4 8-4 8 1 7-3 7-14 1-5 13 80-33 80-33l10-54s20-27-1-42Z"/><path fill="#a0616a" d="M78 305a12 12 0 0 1 4-17l30-104 20 10-34 99a12 12 0 0 1-20 12Z"/><path fill="#e6e6e6" d="M133 132s-6-3-9 10c-3 10-28 70-28 85a9 9 0 0 0-7 9l30 4c5-5 6-11 4-12l7-18 27-57-20-19Z"/><path fill="#a0616a" d="M294 271a12 12 0 0 0-11-14l-70-81-15 18 73 75a12 12 0 0 0 23 2Z"/><path fill="#e6e6e6" d="M170 139s4-5 13 5c7 8 55 52 61 65a9 9 0 0 1 11 4l-26 17c-6-2-10-7-9-9l-14-13-49-40 10-25Z"/><circle cx="409.3" cy="247.1" r="27.7" fill="#a0616a" transform="rotate(-69 162 352)"/><path fill="#2f2e41" d="M187 58a11 11 0 0 0-13-2l2-9-14-2c-7-1-15-3-21-1a28 28 0 0 0-21 21 19 19 0 0 0-30 17c0 5 3 10 4 15 6 20-3 43-21 52 5 4 11 9 18 11s16 0 20-5c3-3 4-7 5-10l13-44 7 13c3 3 2 8 0 11l-5 11c-1 4 1 9 5 10 5-13 11-26 9-39-1-5-3-10-2-15l8-9a30 30 0 0 1 11-4c9-1 21 0 26-7a11 11 0 0 0-1-14Z"/><circle cx="169.6" cy="206.7" r="23.5" fill="#4E4FEB"/><path fill="#fff" d="M175 195a6 6 0 0 0 1 1 3 3 0 0 0 2 2c1 0 2-1 2-3a6 6 0 0 0 0-1 6 6 0 0 0-1-2l-2-2c-2 1-2 3-2 5Z"/><path fill="#3f3d56" d="M177 196a3 3 0 0 0 1 2c1 0 2-1 2-3a6 6 0 0 0 0-1 6 6 0 0 0-1-2 3 3 0 0 0-2 4Z"/><path fill="#fff" d="m165 197 3 4c2-1 2-3 2-5a6 6 0 0 0-1-1c0-2-1-2-2-2-2 0-2 2-2 4Z"/><path fill="#3f3d56" d="M167 199a3 3 0 0 0 1 2c2-1 2-3 2-5a6 6 0 0 0-1-1 3 3 0 0 0-2 4Z"/><path fill="#fff" d="M185 204c1 6-1 12-5 13s-9-3-10-9c5 1 10 0 15-4Z"/><path d="M147 212a23 23 0 0 1 10-25 23 23 0 0 0 30 35 23 23 0 0 1-40-10Z" opacity=".2"/><path fill="#f2f2f2" d="M680 556a2 2 0 0 1-1-4v-1a6 6 0 0 0-11 0c-2 5-5 9-5 14a18 18 0 0 0 0 6 72 72 0 0 1-6-30 70 70 0 0 1 0-8l1-6a73 73 0 0 1 14-31 19 19 0 0 0 9-8 15 15 0 0 0 1-4c-1 0-2-6-1-7l-2-2c-3-4-8-3-10 2-4 3-4 7-1 10l3 8v1a74 74 0 0 0-8 12 31 31 0 0 0-2-14l-8-12a6 6 0 0 0-11 4h1a3 3 0 0 1-1 6 31 31 0 0 0 1 5c-4 14 4 19 15 19l1 1a75 75 0 0 0-4 19 71 71 0 0 0 0 11 19 19 0 0 0-6-11c-5-4-12-5-17-8a4 4 0 0 0-6 3 21 21 0 0 1 2 1l2 1a3 3 0 0 1-2 6 31 31 0 0 0 6 8c2 13 12 14 23 10a75 75 0 0 0 5 15h18a20 20 0 0 1-5-1l4-5 2-2a30 30 0 0 0-1-8Z"/><path fill="#ccc" d="M0 572a1 1 0 0 0 1 1h687a1 1 0 0 0 0-2H1a1 1 0 0 0-1 1Z"/><path fill="#ffb6b6" d="M487 556h-15l-6-56h21v56z"/><path fill="#2f2e41" d="M487 571h-44v-1a17 17 0 0 1 17-17l8-6 16 6h3Z"/><path fill="#ffb6b6" d="M550 556h-14l-7-56h21v56z"/><path fill="#2f2e41" d="M551 571h-45v-1a17 17 0 0 1 18-17l8-6 15 6h4ZM451 251s-14 43-12 49 7 1 3 5-8 0-4 7 10 69 13 72 7 3 3 6-8-3-3 3 16 141 16 141h23s5-6 2-11 0-6 0-8l1-12c0-3 4-70-5-108l17-73 20 88s-9 74 0 98c0 0-7 7-4 10s6 1 3 4 5 13 5 13l25-1 14-139s2-15 0-17-3 6-3-3v-11l-1-77c0-5-18-35-18-35Z"/><path fill="#4E4FEB" d="M451 103v84a81 81 0 0 1 4 26c0 14-3 31-3 38a9 9 0 0 0 0 3c14 40 88 4 95 0h1l-2-46v-13l2-89-2-1-13-11-1-1-4 6-37-3-14-4-4 2-20 8Z"/><path fill="#ffb6b6" d="m430 273 4-26h16l-6 28a9 9 0 1 1-14-2Z"/><path fill="#4E4FEB" d="M453 103c8 2 13 12 16 20 3 10-3 71-10 80-5 7-4 5-2 11s6 0 2 9-7 7-4 10 5 4 2 9l-4 10-1 17s-17-3-25 0c0 0 6-14 3-17s-5-3-3-7 8-3 3-5-1-34-1-34c-6-21-2-52 4-85a23 23 0 0 1 20-18Z"/><path fill="#ffb6b6" d="m557 271 1-27 15-1-2 28a9 9 0 1 1-14 0Z"/><path fill="#4E4FEB" d="M540 103h1a25 25 0 0 1 19 13c5 10 20 73 17 82-4 8-4 6-1 11s6 0 3 9-6 7-3 11 6 2 4 8l-3 10c-1 2 1 17 1 17s-16 0-24 4c0 0 3-15 1-18s-6-2-4-6 7-4 1-5-5-34-5-34Z"/><path fill="#ffb6b6" d="M501 69h2a27 27 0 0 0 6 1 28 28 0 1 0-29-36v1a28 28 0 0 0 21 34Z"/><path fill="#2f2e41" d="M527 66c4-3 4-9 8-13 5-6 8-13 5-20s-2-15-8-19c3-1 4-3 1-3-1 0-7 3-5-1s-2-2-2-4 3-2 4-1c-3-4-11-3-13 1-3-5-7-8-12-5s-5 7-10 6c-3 0-3 5-5 6s-4 4-6 3-5-3-3-5l-6 13-3-3c-4 3-2 9 2 12s11-4 13 0c3 7 11 4 16-1 6-5 14 11 11 19 3-3 9-1 11 4s0 8-1 13Z"/><path fill="#3f3d56" d="m473 94 1 1 3 4 9 29 47-34-1-1-7-15-37-3-11 17-4 2z"/><path fill="#fff" d="M522 168c-2 25-19 44-37 43s-31-24-29-49c19 12 41 15 66 6Zm-43-30a18 18 0 0 1-1 5c-1 3-3 6-6 6a4 4 0 0 1-1 0c-3 0-5-3-6-7a18 18 0 0 1 0-5 18 18 0 0 1 1-4c1-4 4-7 7-7 4 0 7 6 6 12Z"/><path fill="#3f3d56" d="M475 143a10 10 0 0 1-3 6 4 4 0 0 1-1 0c-3 0-5-3-6-7a18 18 0 0 1 0-5 18 18 0 0 1 1-4 10 10 0 0 1 9 10Z"/><path fill="#fff" d="M508 140c0 6-3 11-7 11s-7-5-7-12a18 18 0 0 1 1-4c1-4 4-7 7-7 4 0 7 6 6 12Z"/><path fill="#3f3d56" d="M504 145a10 10 0 0 1-3 6c-4 0-7-5-7-12a18 18 0 0 1 1-4 10 10 0 0 1 9 10Z"/><circle cx="262" cy="68.1" r="13.8" fill="#f2f2f2"/><path fill="#fff" d="M264 62a4 4 0 0 0 0 1 2 2 0 0 0 1 2l2-2a4 4 0 0 0 0-1l-2-2-1 2Z"/><path fill="#f2f2f2" d="M265 63a2 2 0 0 0 0 2l2-2a4 4 0 0 0 0-1 2 2 0 0 0-2 1Z"/><path fill="#fff" d="m258 62 1 3c1 0 2-1 2-3a4 4 0 0 0 0-1l-2-1-1 2Z"/><path fill="#f2f2f2" d="M259 63a2 2 0 0 0 0 2c1 0 2-1 2-3a4 4 0 0 0 0-1 2 2 0 0 0-2 2Z"/><path fill="#fff" d="M268 69c0 4-3 7-5 6s-5-3-5-6a10 10 0 0 0 10 0Z"/><circle cx="335" cy="211.1" r="13.8" fill="#f2f2f2"/><path fill="#fff" d="M337 205a4 4 0 0 0 0 1 2 2 0 0 0 1 2l2-2a4 4 0 0 0 0-1l-2-2-1 2Z"/><path fill="#f2f2f2" d="M338 206a2 2 0 0 0 0 2l2-2a4 4 0 0 0 0-1 2 2 0 0 0-2 1Z"/><path fill="#fff" d="m331 205 1 3c1 0 2-1 2-3a4 4 0 0 0 0-1l-2-1-1 2Z"/><path fill="#f2f2f2" d="M332 206a2 2 0 0 0 0 2c1 0 2-1 2-3a4 4 0 0 0 0-1 2 2 0 0 0-2 2Z"/><path fill="#fff" d="M341 212c0 4-3 7-5 6s-5-3-5-6a10 10 0 0 0 10 0Z"/><circle cx="601" cy="49.1" r="13.8" fill="#f2f2f2"/><path fill="#fff" d="M603 43a4 4 0 0 0 0 1 2 2 0 0 0 1 2l2-2a4 4 0 0 0 0-1l-2-2-1 2Z"/><path fill="#f2f2f2" d="M604 44a2 2 0 0 0 0 2l2-2a4 4 0 0 0 0-1 2 2 0 0 0-2 1Z"/><path fill="#fff" d="m597 43 1 3c1 0 2-1 2-3a4 4 0 0 0 0-1l-2-1-1 2Z"/><path fill="#f2f2f2" d="M598 44a2 2 0 0 0 0 2c1 0 2-1 2-3a4 4 0 0 0 0-1 2 2 0 0 0-2 2Z"/><path fill="#fff" d="M607 50c0 4-3 7-5 6s-5-3-5-6a10 10 0 0 0 10 0Z"/><circle cx="19" cy="416.1" r="13.8" fill="#f2f2f2"/><path fill="#fff" d="M21 410a4 4 0 0 0 0 1 2 2 0 0 0 1 2l2-2a4 4 0 0 0 0-1l-2-2-1 2Z"/><path fill="#f2f2f2" d="M22 411a2 2 0 0 0 0 2l2-2a4 4 0 0 0 0-1 2 2 0 0 0-2 1Z"/><path fill="#fff" d="m15 410 1 3c1 0 2-1 2-3a4 4 0 0 0 0-1l-2-1-1 2Z"/><path fill="#f2f2f2" d="M16 411a2 2 0 0 0 0 2c1 0 2-1 2-3a4 4 0 0 0 0-1 2 2 0 0 0-2 2Z"/><path fill="#fff" d="M25 417c0 4-3 7-5 6s-5-3-5-6a10 10 0 0 0 10 0Z"/><circle cx="22" cy="197.1" r="13.8" fill="#f2f2f2"/><path fill="#fff" d="M24 191a4 4 0 0 0 0 1 2 2 0 0 0 1 2l2-2a4 4 0 0 0 0-1l-2-2-1 2Z"/><path fill="#f2f2f2" d="M25 192a2 2 0 0 0 0 2l2-2a4 4 0 0 0 0-1 2 2 0 0 0-2 1Z"/><path fill="#fff" d="m18 191 1 3c1 0 2-1 2-3a4 4 0 0 0 0-1l-2-1-1 2Z"/><path fill="#f2f2f2" d="M19 192a2 2 0 0 0 0 2c1 0 2-1 2-3a4 4 0 0 0 0-1 2 2 0 0 0-2 2Z"/><path fill="#fff" d="M28 198c0 4-3 7-5 6s-5-3-5-6a10 10 0 0 0 10 0Z"/></svg>