<svg xmlns="http://www.w3.org/2000/svg" width="100" height="100" viewBox="0 0 24 24"><path d="M12 0a12 12 0 1 1 0 24 12 12 0 0 1 0-24zm3.12 4.5H8.88C6.32 4.5 4.6 6.15 4.5 8.66v6.43c0 1.3.42 2.41 1.27 3.23a4.34 4.34 0 0 0 2.88 1.17l.27.01h6.16c1.3 0 2.4-.42 3.18-1.18a4.25 4.25 0 0 0 1.23-2.95l.01-.26V8.9c0-1.28-.42-2.36-1.21-3.15a4.24 4.24 0 0 0-2.92-1.23l-.26-.01zm-6.2 1.4h6.23a3 3 0 0 1 2.2.8c.47.5.77 1.18.81 1.97v6.43c0 .94-.32 1.7-.87 2.21-.5.47-1.17.74-1.98.78H8.92a3.1 3.1 0 0 1-2.21-.78c-.5-.5-.77-1.17-.81-2V8.88a3 3 0 0 1 .8-2.2 2.97 2.97 0 0 1 2-.78h6.45-6.23zM12 8.1a3.88 3.88 0 0 0-3.87 3.87A3.86 3.86 0 0 0 12 15.84a3.88 3.88 0 0 0 0-7.74zm0 1.39a2.5 2.5 0 0 1 2.48 2.48A2.5 2.5 0 0 1 12 14.45a2.5 2.5 0 0 1-2.48-2.48A2.5 2.5 0 0 1 12 9.49zm4.02-2.36a.88.88 0 1 0 0 1.76.88.88 0 0 0 0-1.76z"/></svg>