<svg xmlns="http://www.w3.org/2000/svg" data-name="Layer 1" viewBox="0 0 673 738"><path fill="#4E4FEB" d="M467 150a999 999 0 0 0-298-2v-2a149 149 0 0 1 298 2v2Z"/><path fill="#fff" d="M338 1a149 149 0 0 0-169 144v2l40-5A149 149 0 0 1 338 1Z" opacity=".1"/><path fill="#3f3d56" d="M532 162a600 600 0 0 0-65-14 943 943 0 0 0-109-11 1134 1134 0 0 0-83 0 973 973 0 0 0-106 9 624 624 0 0 0-77 16c-59 16-92 38-92 61s33 46 92 62a755 755 0 0 0 220 25 1109 1109 0 0 0 209-22h1a473 473 0 0 0 10-3l3-1 5-1 5-1 3-2h3l1-1 3-1h1l2-1 2-1a109 109 0 0 0 4-1l4-2 2-1h2l4-2 1-1h2l3-2 11-5c20-12 31-25 31-39 0-23-33-45-92-61Zm0 121a755 755 0 0 1-220 25c-24 0-47 0-70-2-56-3-108-11-150-23-58-16-90-37-90-60a24 24 0 0 1 1-5c5-21 36-40 89-54a624 624 0 0 1 77-16 976 976 0 0 1 107-9l36-1 46 1a941 941 0 0 1 109 11 599 599 0 0 1 65 14c53 14 84 33 89 53a24 24 0 0 1 1 6c0 23-32 44-90 60Z"/><path fill="#3f3d56" d="M623 224c0 14-11 26-30 38a163 163 0 0 1-15 7h-1l-1 1-4 2h-2l-2 1-4 2a106 106 0 0 0-4 1l-2 1-2 1h-1l-3 1-1 1h-3l-3 2-5 1-5 1-3 1a382 382 0 0 0-11 3 790 790 0 0 1-209 22c-24 0-48 0-71-2-137-9-240-43-240-84a25 25 0 0 1 2-7v1c14 37 115 67 247 75a1104 1104 0 0 0 125 0c131-8 232-38 246-76l1-1a25 25 0 0 1 1 8ZM92 214c-17 0-35-4-35-11s18-10 35-10 34 4 34 10-18 11-34 11Zm0-19c-19 0-33 4-33 8s14 9 33 9 32-5 32-9-13-8-32-8Z"/><path fill="#3f3d56" d="M163 261c-17 0-35-4-35-11s18-10 35-10c16 0 34 4 34 10s-18 11-34 11Zm0-19c-19 0-33 4-33 8s14 9 33 9 32-5 32-9-13-8-32-8Zm369-28c-17 0-35-4-35-11s18-10 35-10c16 0 34 4 34 10s-18 11-34 11Zm0-19c-19 0-33 4-33 8s14 9 33 9 32-5 32-9-13-8-32-8Zm-71 66c-17 0-35-4-35-11s18-10 35-10c16 0 34 4 34 10s-18 11-34 11Zm0-19c-19 0-33 4-33 8s14 9 33 9 32-5 32-9-13-8-32-8Zm-149 41c-17 0-35-4-35-11s18-10 35-10c16 0 34 4 34 10s-18 11-34 11Zm0-19c-19 0-33 4-33 8s14 9 33 9 32-5 32-9-13-8-32-8Z"/><circle cx="337" cy="450.7" r="42" fill="#2f2e41"/><path fill="#2f2e41" d="m301 489 20-10 6 11-20 11z"/><ellipse cx="563.8" cy="573.7" fill="#2f2e41" rx="4" ry="10.6" transform="rotate(-57 357 778)"/><path fill="#2f2e41" d="m348 490 6-12 20 10-6 12z"/><ellipse cx="637.6" cy="573.7" fill="#2f2e41" rx="10.6" ry="4" transform="rotate(-33 371 973)"/><circle cx="334" cy="440.4" r="14.4" fill="#fff"/><circle cx="597.9" cy="515.1" r="4.8" fill="#3f3d56" transform="rotate(-45 368 793)"/><path fill="#4E4FEB" d="M370 405c1-16-13-29-30-29s-31 11-32 26 11 20 28 20 33-1 34-17Z"/><ellipse cx="644.4" cy="537.6" fill="#2f2e41" rx="6.6" ry="21" transform="rotate(-41 403 853)"/><ellipse cx="557.2" cy="537.6" fill="#2f2e41" rx="21" ry="6.6" transform="rotate(-49 337 784)"/><path fill="#fff" d="M349 467a10 10 0 0 1-19 4c-1-6 3-7 8-8s10-1 11 4Z"/><path fill="#ccc" d="M266 495a2 2 0 0 1-2-2V375a2 2 0 0 1 4 0v118a2 2 0 0 1-2 2Zm-30 106a2 2 0 0 1-2-2v-86a2 2 0 1 1 4 0v86a2 2 0 0 1-2 2Zm77-71a2 2 0 0 1-2-2V410a2 2 0 1 1 4 0v118a2 2 0 0 1-2 2Zm-29 85a2 2 0 0 1-2-2v-48a2 2 0 1 1 4 0v48a2 2 0 0 1-2 2Zm41-246a2 2 0 0 1-2-2v-48a2 2 0 0 1 4 0v48a2 2 0 0 1-2 2Zm-100 21a2 2 0 0 1-2-2v-48a2 2 0 0 1 4 0v48a2 2 0 0 1-2 2Zm174 5a2 2 0 0 1-2-2v-48a2 2 0 1 1 4 0v48a2 2 0 0 1-2 2Zm-4 150a2 2 0 0 1-2-2v-58a2 2 0 1 1 4 0v58a2 2 0 0 1-2 2Zm-40 51a2 2 0 0 1-2-2v-86a2 2 0 1 1 4 0v86a2 2 0 0 1-2 2Zm8-147a2 2 0 0 1-2-2V329a2 2 0 1 1 4 0v118a2 2 0 0 1-2 2Z"/><ellipse cx="858.1" cy="764.8" fill="#2f2e41" rx="6.8" ry="21.5" transform="rotate(-40 615 1087)"/><circle cx="812.3" cy="757.3" r="43.1" fill="#2f2e41" transform="rotate(-72 624 900)"/><path fill="#2f2e41" d="M554 710h13v23h-13zm-26 0h13v23h-13z"/><ellipse cx="555.9" cy="734" fill="#2f2e41" rx="10.9" ry="4.1"/><ellipse cx="529.7" cy="733.5" fill="#2f2e41" rx="10.9" ry="4.1"/><path fill="#ccc" d="M535 622c4-15 21-24 38-20s28 20 24 36-17 15-34 11-32-11-28-27Z"/><ellipse cx="763.8" cy="737.3" fill="#2f2e41" rx="6.8" ry="21.5" transform="rotate(-65 568 905)"/><circle cx="542.1" cy="667.4" r="14.4" fill="#fff"/><circle cx="536.2" cy="662.3" r="4.8" fill="#3f3d56"/><circle cx="542" cy="697.4" r="6" fill="#fff"/><path fill="#3f3d56" d="M672 738H436a1 1 0 0 1 0-2h236a1 1 0 0 1 0 2Z"/></svg>