<svg xmlns="http://www.w3.org/2000/svg" width="256" height="256" fill="#fff" stroke="#fff" viewBox="-6.6 -6.6 33.2 33.2"><rect width="33.2" height="33.2" x="-6.6" y="-6.6" fill="#4E4FEB" stroke="none" rx="16.6"/><path fill-rule="evenodd" stroke="none" d="M18.2 1.8a6 6 0 0 0-8.5 0L7.2 4.3l1.4 1.4 2.6-2.5a4 4 0 1 1 5.6 5.6l-2.5 2.6 1.4 1.4 2.5-2.5a6 6 0 0 0 0-8.5Zm-9.4 15a4 4 0 0 1-5.6 0 4 4 0 0 1 0-5.6l2.5-2.6-1.4-1.4-2.5 2.5a6 6 0 0 0 8.5 8.5l2.5-2.5-1.4-1.4-2.6 2.5Zm3.5-10.5 1.4 1.4-6 6-1.4-1.4 6-6Z"/></svg>