<svg xmlns="http://www.w3.org/2000/svg" version="1.0" viewBox="0 0 512 512"><path d="M407 15c-3 3-4 5-2 8 2 4 4 5 15 5 35 2 62 29 64 64 0 11 1 13 5 15s7 0 10-4l1-12c-2-18-8-35-19-48a83 83 0 0 0-61-31h-10l-3 3z"/><path d="M406 38c-3 2-3 8 0 11 1 2 4 2 11 3 13 1 22 5 30 13s12 17 13 30c1 11 3 13 9 13 5 0 7-3 7-12 0-27-19-52-46-59-9-2-21-2-24 1zM199 71l-8 19-10 3c-12 3-30 11-43 19-3 2-2 2-29-10l-10-4-21 21-22 21 8 19 8 17-2 4c-7 12-14 28-19 45l-3 8-18 7-18 7v60l11 4 18 7 8 3 2 6c3 13 7 22 14 36l7 14-8 18-8 18 21 22 22 21 18-8 18-8 14 7c14 7 23 11 36 15l6 1 4 11 7 18 3 8h61l7-18 8-19 14-5 27-11 14-7 18 8 18 8 21-21 21-22a348 348 0 0 0-15-36l6-12c7-13 11-23 14-35l3-9 19-8 18-6v-61l-19-7-18-7-3-8c-3-12-8-25-15-37l-5-11 7-17 8-19-42-42-19 8-17 7-11-5c-12-7-25-12-37-15l-8-3-7-18-7-19h-61l-6 18zm63 69c28 5 51 18 72 38a135 135 0 0 1 39 123 141 141 0 0 1-138 115 140 140 0 0 1-131-187 140 140 0 0 1 158-89z"/><path d="M256 185c-3 1-13 11-13 13l32 119c0 2 16 6 19 5s7-6 7-8l-33-124c-2-4-8-7-12-5zm57 5c-3 3-11 17-11 20l2 5c3 3 8 3 11 0 3-2 11-17 11-20 0-6-9-9-13-5zm-92 28a288 288 0 0 1-23 18l9 33 9 35 1 4h8l17 3c16 3 15 2 15 1a3726 3726 0 0 1-28-101l-9 7zm113 13c-9 2-11 4-12 8-1 3 2 8 5 9 4 1 21-4 24-7s3-7 0-11c-3-3-6-3-17 0zm-36 7 6 20c2-1 1-11 0-14-2-4-6-8-6-6zm-134 12c-19 5-25 8-30 13-6 8-8 12-8 23l3 15c6 10 17 17 28 17 8 0 43-9 43-10a943 943 0 0 0-18-63l-19 5zm157 21c-3 3-4 5-2 8 2 4 18 13 22 13 5 0 8-6 6-11 0-3-16-12-20-13-2 0-4 0-6 3zm-128 56-12 3c0 1 8 30 10 31 2 4 7 7 11 8l14-3a1035 1035 0 0 0-11-41c0-1-1-1-12 2zM405 62c-3 3-4 5-1 9 1 3 3 4 8 4 14 0 25 12 25 26 0 9 11 12 15 3 2-3 0-15-3-22-7-14-22-23-37-23-3 0-5 1-7 3zm6 26c-6 2-9 5-9 12l3 7c4 3 9 4 14 2 7-4 7-15 1-19-3-2-7-3-9-2z"/></svg>