<svg xmlns="http://www.w3.org/2000/svg" version="1.0" viewBox="0 0 512 512" fill='#4E4FEB'><path d="M96 20c-9 3-14 8-18 17-2 4-2 6-2 219v215l3 6c3 6 7 10 13 13l5 3h231l5-3c6-3 10-9 13-15 2-4 3-6 3-40v-36l-11-1-13-1c-2-1-2-1-2 4v6H101V248l1-158 110-1h111v46c0 43 0 45 2 44l13-1h11v-68c0-63-1-69-2-72-3-7-8-12-14-15l-5-3-114-1-118 1zm140 29 2 5-2 5c-2 2-3 2-24 2s-22 0-24-2l-2-5 2-5c2-2 3-2 24-2s22 0 24 2zm6 399c3 3 3 7 0 10-2 2-3 2-30 2h-28l-2-3-2-4 2-4 2-3h28c27 0 28 0 30 2z"/><path d="m227 108-2 2-45 114 2 4c2 4 7 4 10 1 2-2 46-111 46-115 0-5-6-8-11-6zm-68 23c-2 0-10 8-19 18-15 15-17 17-17 20s2 5 17 21l20 18c3 0 7-2 8-5 1-4-1-7-14-21l-13-13 13-14c12-12 14-14 14-17 0-5-5-9-9-7zm102 0c-3 1-5 3-5 7 0 3 1 5 14 17l13 14-13 14c-13 12-14 14-14 17 0 4 4 8 7 8 2 0 9-6 20-18 17-16 18-18 18-21s-1-5-17-21c-17-16-20-18-23-17zm67 63c-3 2-3 3-4 13l-1 9-6 2-9 4-5 2-8-5c-10-7-12-7-21 2l-8 9c-2 4 0 7 6 15l5 6-3 6-4 10-1 4-8 1c-14 2-15 3-15 17 0 10 0 11 2 13s4 3 9 3c11 2 12 2 13 5l4 10 3 7-5 7c-7 11-7 13 3 22 10 10 11 10 21 2 7-5 9-6 11-4l8 4 8 3 2 9c2 13 2 13 17 13 14 0 15-1 16-9 2-14 2-14 5-15l10-4 7-3 8 5c10 8 11 8 21-2s10-11 2-21l-5-8 3-7 4-10c0-3 0-3 10-5 13-2 13-2 13-17s0-15-13-16l-9-2-3-7-5-10c-1-2-1-2 2-6 6-10 8-12 8-15 0-4-16-19-19-19-2 0-5 2-10 6l-8 6-5-2c-2-2-7-4-10-4-5-2-5-2-7-14-2-10-3-11-16-11l-13 1zm27 65a32 32 0 0 1 1 58c-5 2-6 3-14 3s-10-1-14-3c-17-8-23-28-15-44 8-14 26-21 42-14z"/></svg>