<svg xmlns="http://www.w3.org/2000/svg" viewBox="0 0 512 512"><path d="M329 157a27 27 0 1 0 19 8 27 27 0 0 0-19-8Z"/><path d="M477 50a20 20 0 0 0-15-15c-29-8-76 0-128 21-53 21-102 52-135 85a321 321 0 0 0-29 34c-23-1-42 2-59 9-58 26-74 91-79 118a25 25 0 0 0 28 29l64-7v2a34 34 0 0 0 10 21l32 31a34 34 0 0 0 20 10h2l-7 64a25 25 0 0 0 25 28 25 25 0 0 0 4 0c27-5 92-21 117-79 8-16 11-36 10-58a315 315 0 0 0 34-30c33-33 64-82 85-133 21-52 29-99 21-130ZM370 225a59 59 0 1 1 0-83 58 58 0 0 1 0 83Z"/><path d="M162 386a16 16 0 0 0-11 3l-19 13c-13 9-29-6-21-20l12-21a16 16 0 0 0-15-25 61 61 0 0 0-36 18c-4 3-15 14-21 57a358 358 0 0 0-3 37 16 16 0 0 0 16 16 360 360 0 0 0 37-3c43-6 54-17 57-21a60 60 0 0 0 18-36 16 16 0 0 0-14-18Z"/></svg>