<svg xmlns="http://www.w3.org/2000/svg" version="1.0" viewBox="0 0 512 512"><path d="M340 19c-4 1-10 7-46 43l-41 41-38-38c-44-44-45-44-59-44-12 0-17 2-31 16-15 14-18 20-18 32 1 11 3 17 13 27l7 7h-24c-20 0-25 0-30 2-18 5-32 20-36 38l-1 116c0 122 0 117 6 129 4 8 13 17 21 21 11 6 13 6 72 6h53v30h-11c-10 0-11 1-15 4-3 1-6 5-7 8-3 5-3 6-3 18l1 14c3 5 0 5 103 5s100 0 103-5l1-14c0-12 0-13-3-18-1-3-4-7-7-8-4-3-5-4-15-4h-11v-30h53l60-1c18-5 33-19 38-37 2-9 2-227 0-236-3-9-7-16-14-23-13-13-20-15-50-15h-21l7-7c7-8 9-12 9-18s-4-11-28-34c-27-27-28-28-38-25zm29 36 22 24-7 9-8 7-4-3c-5-5-8-5-12-2-3 3-3 7 2 12l3 4-12 13-12 12-8-7c-4-5-8-8-9-8-3 0-7 2-8 5-1 4 0 6 8 14l6 7-12 12-13 12-4-3c-5-5-9-5-12-1-3 3-2 7 2 11l3 4-12 13-12 12-8-8c-8-8-11-9-15-5s-3 8 5 16l8 7-13 12-12 13-5-4c-5-4-9-4-12 0-3 3-2 5 2 10l4 5-12 12-13 12-7-7c-8-8-12-9-16-5s-3 7 5 16l7 7-9 10-12 10c-2 0-46-44-46-46S343 33 345 33l24 22zM163 36l14 12 10 11-20 21-21 20-11-10-12-14V61c2-4 20-22 24-24s12-2 16-1zm3 105 24 24-41 42c-34 34-41 41-42 45-3 10-1 12 26 40 24 23 27 26 34 26s10-2 51-43l41-41 26 26 28 27 76 22c5 0 9-5 9-9l-12-39-12-36-27-27-26-26 27-28 28-27h25c26 0 34 1 41 5 6 3 14 12 17 19l3 6v192H50v-96l1-96 2-6c3-7 10-15 16-19 7-4 13-5 44-5h29l24 24zm207 127c6 19 8 24 6 24l-26-8-24-7 17-18 18-16 9 25zm-111 97c7 3 9 13 5 19-3 5-7 6-12 6-7-1-11-5-12-12-1-10 9-17 18-13z"/></svg>