<svg xmlns="http://www.w3.org/2000/svg" viewBox="0 0 24 24"><path fill="#FFF" d="m12.5 24-.6-.2s0-3.3-1-3.5c-.9-1 0-38.3 2.8-.1 0 0-1 .4-1 1.3-.3.8-.2 2.5-.2 2.5z"/><path fill="#A6A385" d="m12.5 24-.6-.2s0-3.3-1-3.5c-.9-1 0-38.3 2.8-.1 0 0-1 .4-1 1.3-.3.8-.2 2.5-.2 2.5z"/><path fill="#FFF" d="M12.9 20.9s5.6-3.7 4.3-11.4c-1.3-5.5-4.3-7.4-4.6-8L12 0l.2 15.4s-.4 4.8.8 5.4z"/><path fill="#499D4A" d="M12.9 20.9s5.6-3.7 4.3-11.4c-1.3-5.5-4.3-7.4-4.6-8L12 0l.2 15.4s-.4 4.8.8 5.4z"/><path fill="#FFF" d="M11.6 21s-5.3-3.5-5-9.8c.3-6.4 4-9.5 4.8-10 .4-.5.4-.7.5-1.2.3.7.2 10.5.3 11.6.1 4.5-.3 8.6-.6 9.5z"/><path fill="#58AA50" d="M11.6 21s-5.3-3.5-5-9.8c.3-6.4 4-9.5 4.8-10 .4-.5.4-.7.5-1.2.3.7.2 10.5.3 11.6.1 4.5-.3 8.6-.6 9.5z"/></svg>