<svg xmlns="http://www.w3.org/2000/svg" viewBox="0 0 24 24"><path fill="#105E86" d="M6.5 19.6h-.4v.4l.6.1c.6 0 1.1-.3 1.6-1 .6-1 1.1-2.4 1.5-4.4h-.9a14.7 14.7 0 0 1-.8 3.4l-.2-1-.8-2.4h-.9l1 3.1.3 1c0 .2-.1.4-.3.5a1 1 0 0 1-.7.3z"/><path fill="#DE8A03" d="M19.5 13.3v5.4H22v-.6h-1.7v-4.8z"/><path fill="#105E86" d="m1 14.4 1.4 4.3h.8l1.4-4.3a49 49 0 0 1 .2 4.3h1a57.8 57.8 0 0 0-.5-5.4h-1l-1.4 4-1.3-4H.4a54.6 54.6 0 0 0-.4 5.4h.8l.2-4.3z"/><path fill="#DE8A03" d="M18.7 16c0-1.9-.7-2.8-2.2-2.8a2 2 0 0 0-1.6.7c-.5.5-.7 1.2-.7 2.2 0 1 .2 1.7.6 2.1.4.4.9.6 1.6.6h.7l1.3.7.4-.6-1-.5.2-.3c.5-.5.7-1.2.7-2.2zm-2.2 2c-.5 0-.8-.1-1-.5-.2-.3-.3-.9-.3-1.7 0-1.3.4-2 1.2-2 .5 0 .8.1 1 .5.2.3.3.9.3 1.7 0 1.3-.4 2-1.2 2zm-3.3-2-1.2-.7c-.4-.2-.7-.5-.7-.8a.7.7 0 0 1 .3-.5c.1-.2.4-.2.6-.2.4 0 .8 0 1.1.2l.2-.5a2.5 2.5 0 0 0-1.4-.4c-.5 0-.9.2-1.2.4-.3.3-.5.7-.5 1 0 .6.2 1 .7 1.3l1.1.6c.4.2.7.5.7.8a.7.7 0 0 1-.3.6c-.2.2-.5.2-.8.2-.4 0-.8 0-1.2-.3l-.2.5c.5.3 1 .5 1.5.5.6 0 1-.2 1.4-.4.4-.3.5-.7.5-1.2s-.2-.8-.6-1.1z"/><path fill="#105E86" d="M16.4 5.8h-.3l.3.3.1.3.2-.3-.1-.2-.2-.1z"/><path fill="#105E86" d="M23.7 13.2a3.2 3.2 0 0 0-.7-.7c-.2-.1-.7-.3-.8-.5l.5-.2h.6l.4-.2-.4-.4a8.9 8.9 0 0 0-1-.8l-.8-.3-.2-.2-.3-.5-.5-1.1-.4-.8a6.7 6.7 0 0 0-2.6-2.4c-.2-.2-.5-.2-.8-.3h-.5l-.3-.2c-.4-.3-1.4-.8-1.7-.1-.2.4.3.8.4 1l.4.5v.4l.4.9.3.4.1.2-.1.5c-.2.7-.2 1.6.2 2.2 0 .2.3.5.7.4.3-.1.2-.5.3-.8V10l.3.5c.2.4.6.7.9 1 .2 0 .3.2.5.3l-.2-.1a3.4 3.4 0 0 1-.3-.4 8.6 8.6 0 0 1-.8-1.2l-.3-.7v-.2l-.4.4-.2 1c-.2 0-.3-.2-.4-.4-.2-.5-.2-1.2 0-1.7 0-.2.2-.6.1-.8l-.2-.2a2.4 2.4 0 0 1-.3-.5l-.4-1c0-.2-.2-.4-.3-.5l-.4-.5v-.3c.2-.2.4 0 .5 0 .3 0 .5.2.7.3l.3.2h.1l.7.1 1 .5a5.9 5.9 0 0 1 2 2.2l.2.4.5 1 .4.9.7.3c.2 0 .4 0 .5.2l.7.4s.4.2.4.4c-.5 0-1 0-1.3.2l-.2.1v.2l.4.4.4.3.8.4.5.4.2.1-.1-.2-.2-.2z"/></svg>