<svg xmlns="http://www.w3.org/2000/svg" data-name="Layer 1" viewBox="0 0 860 571"><path fill="#f2f2f2" d="M436 161c-8-13-17-27-31-31-17-5-34 5-48 14a1392 1392 0 0 0-124 92l93-6c22-2 45-4 65-14 7-4 14-9 23-10 10 0 19 7 27 15 42 45 55 114 102 154a1517 1517 0 0 0-107-214Z"/><path fill="#e4e4e4" d="m698 545-12-13q-56-73-106-152-34-53-65-108l-28-53-21-42-6-12-13-28c-5-11-12-22-22-29a29 29 0 0 0-15-6c-8 0-15 3-22 6-51 27-98 60-141 97a731 731 0 0 0-114 127c-1 1-3 0-2-2l12-16a735 735 0 0 1 188-175l37-23 19-10c7-4 13-7 21-7 24 0 37 28 46 47l9 18 33 66 22 41q34 62 74 123c34 53 68 100 108 149 1 2-1 4-2 2ZM245 191l-4-4c-12-13-24-26-40-33a57 57 0 0 0-24-5c-8 0-17 2-24 5a143 143 0 0 0-24 12l-22 13q-22 13-43 29l-20 17-19 16c-1 1-3-1-2-2l5-4 14-12 26-21q21-16 44-30l23-13 7-3a113 113 0 0 1 17-7 60 60 0 0 1 25-3 66 66 0 0 1 24 9c15 8 27 21 39 34 1 2-1 4-2 2Z"/><path fill="#e4e4e4" d="m561 322 36-13 19-7 18-6a29 29 0 0 1 16 0 38 38 0 0 1 13 8 104 104 0 0 1 10 11l12 15 49 60 48 60 47 61 6 8c1 1 3 0 2-1l-47-62-49-62-49-61-12-15-11-12c-7-7-16-14-26-14-7 0-13 2-18 4l-19 7-37 13-9 4c-2 0-1 3 1 2Z"/><path fill="#f2f2f2" d="M196 170c-18-10-42-8-60 4a856 856 0 0 1 98 23c-13-8-24-20-38-27Zm-60 4-3 3 3-3Zm526 148c-4-4-8-9-13-10h-5a575 575 0 0 0 153 175L662 322Zm-316-36a37 37 0 0 0 15 21c3 2 6 4 7 7a8 8 0 0 1-1 6 25 25 0 0 1-4 5v1c-7-5-13-10-17-17s-5-16 0-23m233 203a37 37 0 0 0 15 21c3 2 6 4 7 7a8 8 0 0 1-1 6 25 25 0 0 1-4 5v1c-7-5-13-10-17-17s-5-16 0-23m-465-14a37 37 0 0 0 15 21c3 2 6 4 7 7a8 8 0 0 1-1 6 25 25 0 0 1-4 5v1c-7-5-13-10-17-17s-5-16 0-23"/><circle cx="649.2" cy="51" r="51" fill="#4E4FEB"/><path fill="#f0f0f0" d="M741 12c-24-3-53 10-59 34a22 22 0 0 0-41 2l3 2a372 372 0 0 0 160-1c-17-18-38-34-63-37ZM635 80c-24-3-53 10-59 34a22 22 0 0 0-41 2l3 2a372 372 0 0 0 160-1c-17-18-38-34-63-37Z"/><path fill="#ccc" d="M851 93a1412 1412 0 0 0-741-30l-8 2a972 972 0 0 0-25 6 926 926 0 0 0-24 7h-1l-1 1-3 1C23 87 10 93 9 93a1 1 0 1 1 0-2s13-6 38-13l3-1h1l1-1h1a594 594 0 0 1 23-7 941 941 0 0 1 26-6l7-2a1026 1026 0 0 1 95-19C353 18 587 7 851 91a1 1 0 0 1 0 2Z"/><path fill="#3f3d56" d="M263 420a7 7 0 0 0-2-3 6 6 0 0 0-1-1c-2-1-6-2-9 0a6 6 0 0 0 0 1l-3 3-4 4-1 1v1a89 89 0 0 1-7 5v1h-1 1-1l-5 4a99 99 0 0 1-15 8h-1a86 86 0 0 1-40 6h-5l-5-1a98 98 0 0 1-18-6 119 119 0 0 1-20-12l-3-2a516 516 0 0 0 16-45l11-33 1-3 5-17v-2l2-5c1-4-2-9-6-9a8 8 0 0 0-9 5l-1 5-7 23-1 3-17 51-2 6-1 3-2 5-2 4-1 2a42 42 0 0 0-8-2h-1a27 27 0 0 0-7 0 24 24 0 0 0-17 10c-5 8-5 19 2 25 7 7 17 7 25 3a28 28 0 0 0 11-10 51 51 0 0 0 3-5l3 2a112 112 0 0 0 14 9 108 108 0 0 0 35 11h5a104 104 0 0 0 55-11l4-3 7-4 3-2a101 101 0 0 0 14-12l4-5a8 8 0 0 0 2-6 8 8 0 0 0 0-2ZM97 444Zm4-4-1 1a23 23 0 0 1-2 2l-1 1-1 1a17 17 0 0 1-3 0 17 17 0 0 1-2 0 15 15 0 0 1-2 0l-1-1v-1a13 13 0 0 1 0-2 13 13 0 0 1 0-2 11 11 0 0 1 1-1v-1l1-1a18 18 0 0 1 2-1 19 19 0 0 1 3 0 25 25 0 0 1 4 0 30 30 0 0 1 4 1 37 37 0 0 1-2 4Zm-12-3a2 2 0 0 1 0 1 1 1 0 0 1 0-1Z"/><path fill="#3f3d56" d="M233 318v9l-1 21-1 24v12l-1 32v20l-1 18v13l-3 96a8 8 0 0 1-7 7 8 8 0 0 1-8-7l2-54 1-49v-16l1-24v-7l2-46v-19l1-21v-9a8 8 0 0 1 7-8 8 8 0 0 1 8 8Zm411 2a893 893 0 0 1-28 88l-9 23 1-1a55 55 0 0 1-6 10v1-1l-1 1a24 24 0 0 1-2 2l-1 1 1-1-1 1a18 18 0 0 1-2 1l2-1a19 19 0 0 1-5 2l2-1a17 17 0 0 1-4 0l2 1a14 14 0 0 1-3-1h1a12 12 0 0 1-1 0c-1-1-1-1 0 0v-1h-1c-1-1 1 1 0 0a18 18 0 0 1 0-1v1a12 12 0 0 1 0-2v2a14 14 0 0 1 0-4v2a16 16 0 0 1 1-3l-1 2a17 17 0 0 1 1-3 7 7 0 0 1 1-1l-1 1 1-1 1-1-1 1a19 19 0 0 1 3-2l-2 1a20 20 0 0 1 5-2l-2 1a26 26 0 0 1 7 0h-2a33 33 0 0 1 8 2l-2-1 15 9a112 112 0 0 0 14 9 108 108 0 0 0 35 11 104 104 0 0 0 93-37 8 8 0 0 0 2-6 8 8 0 0 0-2-5c-3-2-8-3-11 0a96 96 0 0 1-8 9l-4 4-3 2v-1l-1 1a99 99 0 0 1-20 12l2-1a97 97 0 0 1-24 7h2a98 98 0 0 1-26 0h2a100 100 0 0 1-25-7l2 1a116 116 0 0 1-22-13 87 87 0 0 0-11-7 43 43 0 0 0-15-4c-9-1-19 2-24 11-5 7-5 18 2 24 7 7 17 7 26 3 7-4 12-13 15-20l21-54q9-26 16-53l2-7c1-4-1-9-5-9a8 8 0 0 0-10 5Z"/><path fill="#3f3d56" d="m719 318-3 96-2 95-2 54a8 8 0 0 0 8 7 8 8 0 0 0 7-7l3-96 3-95 1-54a8 8 0 0 0-7-8 8 8 0 0 0-8 8Z"/><path d="M460 536h2V430h54v-2h-54v-45h42l-2-2h-40v-30l-2-1v31h-46v-38h-2v38h-37v-29l-2 1v28h-31v2h31v45h-31v2h31v106h2V430a36 36 0 0 1 37 36v70h2V430h46Zm-85-108v-45h37v45Zm39 0v-45h1a45 45 0 0 1 45 45Z" opacity=".2"/><path fill="#3f3d56" d="M445 504a63 63 0 0 1-20 34l-2 2h-6l-4 1-1-2v-7a38 38 0 0 1-4-32c3-7 8-13 13-20 6-8 12-17 13-27a61 61 0 0 1 7 13 16 16 0 0 0-5 4v1l1 1h4l3 1a64 64 0 0 1 2 12 61 61 0 0 1-1 19Z"/><path fill="#4E4FEB" d="M479 478c-6 4-10 10-12 17a17 17 0 0 0-8 5v1l1 1h4c-3 8-5 17-10 24a37 37 0 0 1-12 10 38 38 0 0 1-4 2l-15 2h-6l-4 1v-2a63 63 0 0 1 15-40l2-1a62 62 0 0 1 16-13 63 63 0 0 1 33-7Z"/><path fill="#4E4FEB" d="m419 535-1 3-1 2-4 1h-5l-2-1a62 62 0 0 1 9-87c-2 6 0 13 2 20h-1a16 16 0 0 0-5 4v1l1 1h4l3 1h2l7 19a44 44 0 0 1 1 5 38 38 0 0 1-10 31Z"/><path fill="#3f3d56" d="M520 390c-9-17-22-31-38-41a114 114 0 0 0-52-19h-8c-3 0-47 13-61 23a114 114 0 0 0-36 39 102 102 0 0 0-12 52 114 114 0 0 0 15 52 110 110 0 0 0 36 38c16 10 31 36 49 37s39-24 56-31a104 104 0 0 0 42-34 110 110 0 0 0 19-49c3-18 2-37-5-54a112 112 0 0 0-5-13c-2-3-7-5-10-3a8 8 0 0 0-3 11l3 6-1-2a101 101 0 0 1 7 26v-2a109 109 0 0 1 0 28v-2a110 110 0 0 1-8 28l1-2a104 104 0 0 1-7 13q-1 4-4 7a118 118 0 0 1-1 2h-1l-1 2a94 94 0 0 1-10 10l-3 3-2 1 1-1-1 1-6 4a103 103 0 0 1-14 8l1-1a109 109 0 0 1-27 8l2-1a108 108 0 0 1-29 0l2 1a100 100 0 0 1-25-7l2 1a94 94 0 0 1-14-7l-6-5h-1 1a19 19 0 0 1-1-1l-3-2a102 102 0 0 1-11-11l-2-3v1-1l-2-2-4-6a109 109 0 0 1-8-15l1 2a107 107 0 0 1-7-27v2a98 98 0 0 1 0-26v2a95 95 0 0 1 6-24v2a102 102 0 0 1 7-14l4-6 1-2v1-1l3-3a107 107 0 0 1 11-11l3-3 1-1h1c-2 1-1 0 0 0l6-5a104 104 0 0 1 16-8l-2 1c7-3 42-11 48-10h-2a106 106 0 0 1 27 7l-2-1a110 110 0 0 1 13 7l6 3 2 2 2 1v1c1 1-1-1 0 0a111 111 0 0 1 10 9l5 5 2 3c1 0 2 2 0 0l2 1a98 98 0 0 1 8 14c2 3 7 4 10 2a8 8 0 0 0 3-10Z"/><path fill="#3f3d56" d="M432 512a4 4 0 0 1-2-6v-1c-4-9-26 14-27 22a30 30 0 0 0 1 11 120 120 0 0 1-11-50 116 116 0 0 1 1-13l1-11a122 122 0 0 1 24-52c7 1 13 0 14-13l2-7h-3a4 4 0 0 1-3-6l1-1 1-2a2 2 0 0 0 1 0l1-2a11 11 0 0 0-3-3c-5-3-12-1-16 3-3 5-4 11-3 17a43 43 0 0 0 6 13l-1 1a123 123 0 0 0-12 20c1-7-12-36-17-42-5-8-17-4-18 5l2 1a5 5 0 0 1-2 10c-10 13 21 49 28 41a125 125 0 0 0-6 32 119 119 0 0 0 0 19c-2-14-31-35-40-33-5 1-10 1-9 6a34 34 0 0 1 4 2l2 1a5 5 0 0 1-2 9c-5 15 28 39 47 32a125 125 0 0 0 9 24h30v-1a34 34 0 0 1-8 0l6-8a2 2 0 0 0 1-1l3-4a50 50 0 0 0-2-13Zm-34-67Zm-7 60v-2 2Z"/><circle cx="95.2" cy="439" r="11" fill="#3f3d56"/><circle cx="227.2" cy="559" r="11" fill="#3f3d56"/><circle cx="728.2" cy="559" r="11" fill="#3f3d56"/><circle cx="755.2" cy="419" r="11" fill="#3f3d56"/><circle cx="723.2" cy="317" r="11" fill="#3f3d56"/><path fill="#3f3d56" d="M264 419a11 11 0 1 1 0-2 11 11 0 0 1 0 2Z"/><circle cx="484.2" cy="349" r="11" fill="#3f3d56"/><path fill="#3f3d56" d="M375 349a11 11 0 1 1 0-2 11 11 0 0 1 0 2Zm-142-32a11 11 0 1 1 0-2 11 11 0 0 1 0 2Z"/><circle cx="599.2" cy="443" r="11" fill="#3f3d56"/><circle cx="426.2" cy="338" r="16" fill="#3f3d56"/><path fill="#cacaca" d="M859 571H1a1 1 0 1 1 0-2l858-1a1 1 0 0 1 0 3Z"/></svg>