<svg xmlns="http://www.w3.org/2000/svg" xml:space="preserve" fill="#ffffff" stroke="#ffffff" viewBox="-122.9 -122.9 757.8 757.8"><rect width="757.8" height="757.8" x="-122.9" y="-122.9" fill="#4E4FEB" stroke="none" rx="378.9"/><path d="M256 192a64 64 0 1 0 0 128.1 64 64 0 0 0 0-128z"/><path d="M505.4 236.5c-56.1-73-125-140.4-249.2-140.5h-.4C131.6 96 62.6 163.6 6.5 236.5a32 32 0 0 0 0 39c56.1 73 125 140.4 249.2 140.5h1.1c123.7-.3 192.5-67.7 248.5-140.5a32 32 0 0 0 0-39zM256 352h-.2a96 96 0 1 1 .2 0z"/></svg>