<svg xmlns="http://www.w3.org/2000/svg" viewBox="0 0 24 24"><path fill="#08ddff" d="m19.1 12.4-.4-.4.3-.3C20.6 9.9 21.3 8 20.7 7 20 6 18.3 5.6 16 6l-.6.2-.2-.4C14.5 3.5 13.2 2 12 2c-1.2 0-2.4 1.4-3.1 3.6l-.2.6-.5-.1C6 5.6 4 5.9 3.3 7.1c-.6 1 0 2.7 1.6 4.4l.4.5-.5.6c-1.5 1.7-2 3.3-1.5 4.4.7 1 2.5 1.4 4.8 1l.6-.2q0 .4.2.7c.7 2.1 1.9 3.5 3 3.5 1.3 0 2.6-1.5 3.3-3.7l.2-.5q.4 0 .7.2c2.2.4 4 0 4.6-1 .6-1 0-2.9-1.6-4.6Zm-15-5c.4-.6 2-.9 4-.5l.4.1A20.5 20.5 0 0 0 8 9.7a20.9 20.9 0 0 0-2 1.7l-.5-.5C4.2 9.5 3.7 8.1 4.1 7.5ZM8 13.3 6.5 12 8 10.8v2.4Zm0 4a7.2 7.2 0 0 1-2.7 0 1.8 1.8 0 0 1-1.2-.6c-.4-.7 0-2 1.3-3.5l.5-.5A20.5 20.5 0 0 0 8 14.3a20.8 20.8 0 0 0 .5 2.7l-.5.1ZM15 9l-1-.6-1-.6 1.8-.6A18.2 18.2 0 0 1 15 9ZM9.8 5.8c.6-1.8 1.6-3 2.3-3 .8 0 1.8 1.3 2.4 3.3l.1.3a20.5 20.5 0 0 0-2.5 1 20 20 0 0 0-2.5-1l.2-.6Zm-.4 1.5a18.3 18.3 0 0 1 1.7.6L9 9.1c0-.7.1-1.3.3-1.8ZM9 14.9l1 .6 1 .6a18.2 18.2 0 0 1-1.7.7 19.1 19.1 0 0 1-.3-1.9Zm5.4 3.2a7.2 7.2 0 0 1-1.2 2.3 1.8 1.8 0 0 1-1.2.7c-.7 0-1.7-1-2.3-2.8l-.2-.7a20.1 20.1 0 0 0 2.5-1 20.8 20.8 0 0 0 2.6 1l-.2.5Zm.4-1.4-1.8-.6 1-.6 1-.6a18.2 18.2 0 0 1-.2 1.8Zm.4-4.7v1.8a25.4 25.4 0 0 1-3.2 1.8l-1.6-.8-1.5-1-.1-1.8v-1.8A24.2 24.2 0 0 1 12 8.4l1.6.8 1.6 1V12Zm1-5.1c2-.4 3.4-.1 3.7.5.4.7-.1 2.2-1.5 3.7l-.3.3A20 20 0 0 0 16 9.7a20 20 0 0 0-.4-2.7l.6-.1Zm-.1 3.9a18.2 18.2 0 0 1 1.4 1.2 18.1 18.1 0 0 1-1.4 1.2v-2.4Zm3.8 5.8c-.3.6-1.7.9-3.6.5l-.7-.1a20 20 0 0 0 .4-2.7 20 20 0 0 0 2.1-1.7l.4.3a7.2 7.2 0 0 1 1.4 2.3 1.8 1.8 0 0 1 0 1.4Zm-8.8-6.2a1.8 1.8 0 1 0 2.4.7 1.8 1.8 0 0 0-2.4-.7Z" class="color6563ff svgShape"/></svg>