<svg xmlns="http://www.w3.org/2000/svg" xml:space="preserve" fill="#fff" stroke="#fff" viewBox="-107.5 -107.5 727 727"><rect width="727" height="727" x="-107.5" y="-107.5" fill="#4E4FEB" stroke="none" rx="363.5"/><path d="M256 118a67.7 67.7 0 1 0 .2 135.4 67.7 67.7 0 0 0-.2-135.3zm0 115a47.4 47.4 0 1 1 .1-94.7 47.4 47.4 0 0 1-.1 94.7z"/><path d="M256 168.8a17 17 0 1 0 0 33.8 17 17 0 0 0 0-33.8z"/><path d="M256 0a185.9 185.9 0 0 0-132.4 316l2.8 2.7a136.6 136.6 0 0 1 25.6 38.1h208a137.8 137.8 0 0 1 25.5-38l2.9-2.9A185.9 185.9 0 0 0 256 0zm124 200.9h-27.2a97.5 97.5 0 0 1-17.6 42.5l19.2 19.2-21.5 21.5-19.2-19.2a97.5 97.5 0 0 1-42.5 17.6v27.2h-30.4v-27.2a97.5 97.5 0 0 1-42.5-17.6L179.1 284l-21.5-21.5 19.2-19.2a97.5 97.5 0 0 1-17.6-42.5H132v-30.4h27.2a97.5 97.5 0 0 1 17.6-42.5l-19.2-19.3L179 87.2l19.2 19.3a97.5 97.5 0 0 1 42.5-17.7V61.7h30.4v27.1a97.5 97.5 0 0 1 42.5 17.7l19.2-19.3 21.6 21.5-19.3 19.3a97.5 97.5 0 0 1 17.6 42.5H380v30.4zM145.3 387.3v33.2a27 27 0 0 0 24.4 26.8v17.9c0 25.8 21 46.8 46.8 46.8h79c25.8 0 46.8-21 46.8-46.8v-17.9a27 27 0 0 0 24.4-26.8v-33.2H145.3z"/></svg>