<svg xmlns="http://www.w3.org/2000/svg" fill="#fff" stroke="#fff" data-name="Layer 1" viewBox="0 0 100 100"><path d="M73 69c-2 0-2-1-2-2a4 4 0 0 1 1-3 6 6 0 0 0 2-5c0-4-2-7-6-7s-6 3-6 7a7 7 0 0 0 2 5 4 4 0 0 1 1 3l-3 2c-3 2-6 4-6 7 0 2 1 4 3 4h18c1 0 3-2 3-4 0-3-3-5-7-7Z"/><path d="M52 76c0-6 5-9 8-10a11 11 0 0 1-2-7 13 13 0 0 1 0-5h-8a1 1 0 0 1-1-1v-2a1 1 0 0 1 1-1h12a11 11 0 0 1 11-1V26a6 6 0 0 0-5-6H32a6 6 0 0 0-5 6v44a6 6 0 0 0 5 6h20Zm-3-41a1 1 0 0 1 1-1h15a1 1 0 0 1 1 1v2a1 1 0 0 1-1 1H50a1 1 0 0 1-1-1Zm-4 20a1 1 0 0 1 0 2l-1 1a1 1 0 0 1-2 0l-3-4-3 4a1 1 0 0 1-1 0l-2-2a1 1 0 0 1 0-1l4-3-4-3a1 1 0 0 1 0-1l2-2a1 1 0 0 1 1 0l3 4 3-4a1 1 0 0 1 2 0l1 1a1 1 0 0 1 0 2l-4 3Zm3-24-9 9a2 2 0 0 1-2 1 2 2 0 0 1-1-1l-4-4a1 1 0 0 1 0-1l1-2a1 1 0 0 1 1 0l3 3 8-7a1 1 0 0 1 1 0l2 1v1Z"/></svg>