<svg xmlns="http://www.w3.org/2000/svg" xml:space="preserve" fill="#fff" stroke="#fff" viewBox="-413.7 -413.7 1767.6 1767.6"><rect width="1767.6" height="1767.6" x="-413.7" y="-413.7" fill="#4E4FEB" stroke="none" rx="883.8"/><g stroke="none"><path d="M414.2 674.9c0-49.4 15.5-95.3 42-133H190.3a25 25 0 0 1 0-50h313.1a231.4 231.4 0 0 1 197.7-43.1V52.9A53 53 0 0 0 648.3 0h-378v17.5c.2 1.8.3 3.7.3 5.6V168a74.6 74.6 0 0 1-74.5 74.5H51.2l-4.6-.2H28.1v554a53 53 0 0 0 53 52.9H493a232.5 232.5 0 0 1-78.8-174.3zM190.4 356.3h370a25 25 0 0 1 0 50h-370a25 25 0 0 1 0-50zm185 313.1h-185a25 25 0 0 1 0-50h185a25 25 0 0 1 0 50z"/><path d="M51.2 212.5h145a44.5 44.5 0 0 0 44.4-44.5V23.1a22.3 22.3 0 0 0-38-15.7L35.4 174.5c-14 14-4 38 15.8 38zm784.3 598.1-10.8-10.8L814 789a202.9 202.9 0 0 0-167.2-316.7 200.7 200.7 0 0 0-152.5 69.5A202.6 202.6 0 0 0 761 841.9l10.7 10.9 10.7 10.7 65.7 65.7a37.4 37.4 0 1 0 53-53l-65.6-65.6zM646.8 547.4a127.2 127.2 0 0 1 84.4 32 127.3 127.3 0 0 1-84.4 223 127.6 127.6 0 0 1 0-255z"/></g></svg>