<svg xmlns="http://www.w3.org/2000/svg" width="586.7" height="1042.7" version="1.0" viewBox="0 0 440 782"><path fill="#fff" d="M212 28a407 407 0 0 0-112 279v19l-6 6a272 272 0 0 0-69 180c1 7 5 11 11 11 3 0 7-3 38-25l34-26 1 7c0 8 2 13 5 15s4 2 102 2c80 1 100 0 103-1 4-2 6-6 6-14l1-8 33 23c18 14 34 26 36 26 3 2 10 0 12-4 2-3 2-5 2-18-3-59-26-117-65-164l-10-11v-28A385 385 0 0 0 234 39c-12-12-15-13-22-11zm19 150c9 3 16 7 24 14 10 11 15 22 15 38 0 15-5 27-15 37-7 7-17 13-26 15-12 3-30-1-41-7a54 54 0 0 1-8-83c7-7 14-11 24-14l9-1c2-1 13 0 18 1zm-21 355a66 66 0 0 0-58 73c2 13 9 33 20 59 11 23 36 73 39 75 3 3 9 3 13-1a638 638 0 0 0 55-118c3-10 3-13 3-23 0-9 0-13-2-18a66 66 0 0 0-70-46z"/></svg>