<svg xmlns="http://www.w3.org/2000/svg" data-name="Layer 1" viewBox="0 0 865 861"><circle cx="215.9" cy="587.9" r="215.9" fill="#2f2e41"/><path fill="#3f3d56" d="m332 611-1 21v3c-8 83-54 148-111 152h-5a77 77 0 0 1-11-1h-1c-55-9-99-75-104-158l-1-2v-15c0-97 52-175 117-175s117 78 117 175Z"/><circle cx="211.4" cy="396.4" r="147.5" fill="#3f3d56"/><ellipse cx="211.4" cy="518.7" fill="#2f2e41" rx="30.6" ry="7.2"/><circle cx="164.6" cy="432.3" r="12.6" fill="#2f2e41"/><circle cx="258.1" cy="432.3" r="12.6" fill="#2f2e41"/><path d="M213 729a165 165 0 0 1-2 25 148 148 0 0 1-8 32c-55-9-99-75-104-158l-1-2c11-8 23-12 36-12 38 0 70 39 77 91a165 165 0 0 1 2 24Z" opacity=".1"/><path fill="#3f3d56" d="M213 745a165 165 0 0 1-2 25c-6 40-26 73-53 85a58 58 0 0 1-16 5 54 54 0 0 1-8 0 56 56 0 0 1-22-4 67 67 0 0 1-16-10c-25-20-41-57-41-101 0-63 35-115 79-115 38 0 70 39 77 91a165 165 0 0 1 2 24Z"/><path d="M331 632v3c-8 83-54 148-111 152a149 149 0 0 1-9-33 168 168 0 0 1 0-49c8-52 40-91 78-91 15 0 30 7 42 18Z" opacity=".1"/><path fill="#3f3d56" d="M368 745c0 48-20 89-48 106a61 61 0 0 1-16 7 55 55 0 0 1-31 0 62 62 0 0 1-17-8c-22-14-39-44-45-80a168 168 0 0 1 0-49c8-52 40-91 78-91 43 0 79 52 79 115Z"/><path fill="#4E4FEB" d="M211 427c-44 0-81 30-81 61 0 18 13 34 32 44 7-13 27-22 49-22s42 9 50 22c19-10 31-26 31-44 0-31-36-61-81-61Z"/><ellipse cx="207.8" cy="491.7" fill="#3f3d56" rx="21.6" ry="18"/><ellipse cx="64.8" cy="369.4" fill="#4E4FEB" rx="30.6" ry="58.5"/><ellipse cx="349" cy="369.4" fill="#4E4FEB" rx="30.6" ry="58.5"/><path fill="#3f3d56" d="M245 230a18 18 0 0 0-12 4 27 27 0 0 0-48 5 18 18 0 1 0 0 18 27 27 0 0 0 48 5 18 18 0 1 0 12-32Z"/><path fill="#2f2e41" d="M112 789v67a67 67 0 0 1-16-10Zm46 66a58 58 0 0 1-16 5l9-61Zm115-66v69a62 62 0 0 1-17-8Zm47 62a61 61 0 0 1-16 7l9-59Z"/><circle cx="167.9" cy="430" r="4" fill="#fff"/><circle cx="261.9" cy="430" r="4" fill="#fff"/><path fill="#f2f2f2" d="M668 45c-109 0-197 88-197 197a196 196 0 0 0 23 94 83 83 0 1 0 111 93 197 197 0 0 0 63 10 197 197 0 1 0 0-394Z"/><ellipse cx="663.9" cy="329.9" opacity=".1" rx="97.2" ry="16.4"/><circle cx="599.1" cy="95.6" r="69.9" fill="#ff6584"/><path fill="#4E4FEB" d="M790 207c0 91-54 123-120 123h-5l-9-1c-61-4-107-37-108-122C548 119 660 9 669 0s121 116 121 207Z"/><path fill="#3f3d56" d="m665 316 44-62-44 69v7l-9-1 4-91v-1l1-8-45-69 45 62v2l4-69-38-71 38 59 4-143-1 113 38-45-38 55-1 61 36-59-36 68-1 35 52-83-52 95Z"/></svg>