<svg xmlns="http://www.w3.org/2000/svg" viewBox="0 0 803 507"><path fill="#f2f2f2" d="m707 464 1-18c8-4 17-6 26-6-13 10-11 30-20 44-5 9-14 15-25 16l-10 6a57 57 0 0 1 22-55l6 13Zm-538-19-26-8c-3-14-3-28 0-42 11 23 41 28 58 46 11 12 16 27 14 43l6 18a87 87 0 0 1-74-54l22-3Z"/><path fill="#e6e6e6" d="m618 503-1 2h-9c-1 0-2 0-2-2V260c0-5-2-9-4-9H101c-2 0-4 4-4 9v242l-2 2h-5l-2 1-2-3V248a66 66 0 0 1 1-11c2-9 6-15 10-15h511l2 2 2 3c2 3 4 9 5 16v93l1 167Z"/><path fill="#ccc" d="M432 147h-51l-3 3v81h57v-81c0-1-1-3-3-3Zm-25 46c-4 0-6-2-6-6v-9a6 6 0 1 1 12 0v9c0 4-3 6-6 6Z"/><path fill="#3f3d56" d="M378 228v8l2 2h53l2-2v-8h-57Z"/><path fill="#e6e6e6" d="M516 22H298c-3 0-7 3-7 7v147c0 4 4 7 7 7h218c4 0 8-3 8-7V29c0-4-4-7-8-7Z"/><path fill="#fff" d="M515 27H300c-2 0-4 2-4 4v143c1 2 2 4 4 4h215c2 0 3-2 3-4V31c0-2-1-4-3-4Z"/><path fill="#ccc" d="M473 240H345a2 2 0 0 1-2-3l2-9 2-2h124l2 2 2 9a2 2 0 0 1-2 3Z"/><rect width="3.9" height="2.4" x="348" y="228" fill="#e6e6e6" rx=".5" ry=".5"/><rect width="3.9" height="2.4" x="356" y="228" fill="#e6e6e6" rx=".5" ry=".5"/><rect width="3.9" height="2.4" x="364" y="228" fill="#e6e6e6" rx=".5" ry=".5"/><rect width="3.9" height="2.4" x="372" y="228" fill="#e6e6e6" rx=".5" ry=".5"/><rect width="3.9" height="2.4" x="380" y="228" fill="#e6e6e6" rx=".5" ry=".5"/><rect width="3.9" height="2.4" x="388" y="228" fill="#e6e6e6" rx=".5" ry=".5"/><rect width="3.9" height="2.4" x="395" y="228" fill="#e6e6e6" rx=".5" ry=".5"/><rect width="3.9" height="2.4" x="403" y="228" fill="#e6e6e6" rx=".5" ry=".5"/><rect width="3.9" height="2.4" x="411" y="228" fill="#e6e6e6" rx=".5" ry=".5"/><rect width="3.9" height="2.4" x="419" y="228" fill="#e6e6e6" rx=".5" ry=".5"/><rect width="3.9" height="2.4" x="427" y="228" fill="#e6e6e6" rx=".5" ry=".5"/><rect width="3.9" height="2.4" x="435" y="228" fill="#e6e6e6" rx=".5" ry=".5"/><rect width="3.9" height="2.4" x="443" y="228" fill="#e6e6e6" rx=".5" ry=".5"/><rect width="3.9" height="2.4" x="450" y="228" fill="#e6e6e6" rx=".5" ry=".5"/><rect width="3.9" height="2.4" x="458" y="228" fill="#e6e6e6" rx=".5" ry=".5"/><rect width="3.9" height="2.4" x="466" y="228" fill="#e6e6e6" rx=".5" ry=".5"/><rect width="3.9" height="2.4" x="348" y="232" fill="#e6e6e6" rx=".5" ry=".5"/><rect width="3.9" height="2.4" x="356" y="232" fill="#e6e6e6" rx=".5" ry=".5"/><rect width="3.9" height="2.4" x="364" y="232" fill="#e6e6e6" rx=".5" ry=".5"/><rect width="3.9" height="2.4" x="372" y="232" fill="#e6e6e6" rx=".5" ry=".5"/><rect width="3.9" height="2.4" x="380" y="232" fill="#e6e6e6" rx=".5" ry=".5"/><rect width="3.9" height="2.4" x="387" y="232" fill="#e6e6e6" rx=".5" ry=".5"/><rect width="3.9" height="2.4" x="395" y="232" fill="#e6e6e6" rx=".5" ry=".5"/><rect width="3.9" height="2.4" x="403" y="232" fill="#e6e6e6" rx=".5" ry=".5"/><rect width="3.9" height="2.4" x="411" y="232" fill="#e6e6e6" rx=".5" ry=".5"/><rect width="3.9" height="2.4" x="419" y="232" fill="#e6e6e6" rx=".5" ry=".5"/><rect width="3.9" height="2.4" x="427" y="232" fill="#e6e6e6" rx=".5" ry=".5"/><rect width="3.9" height="2.4" x="435" y="232" fill="#e6e6e6" rx=".5" ry=".5"/><rect width="3.9" height="2.4" x="442" y="232" fill="#e6e6e6" rx=".5" ry=".5"/><rect width="3.9" height="2.4" x="450" y="232" fill="#e6e6e6" rx=".5" ry=".5"/><rect width="3.9" height="2.4" x="458" y="232" fill="#e6e6e6" rx=".5" ry=".5"/><rect width="3.9" height="2.4" x="466" y="232" fill="#e6e6e6" rx=".5" ry=".5"/><rect width="31.4" height="2.4" x="386" y="236" fill="#e6e6e6" rx=".5" ry=".5"/><path fill="#cacaca" d="M504 47H303a1 1 0 0 1 0-2h201a1 1 0 0 1 0 2Z"/><ellipse cx="316.9" cy="36.2" fill="#ccc" rx="4.7" ry="4.8"/><ellipse cx="333.1" cy="36.2" fill="#ccc" rx="4.7" ry="4.8"/><ellipse cx="349.2" cy="36.2" fill="#ccc" rx="4.7" ry="4.8"/><path fill="#3f3d56" d="M403 59v-2l83-43v2l-83 43zm250 79v-1l50-43v2l-50 42zm-95 10-83-43v-2l83 44v1zm42-30-49-79 2-2 49 80-2 1zm38-103-47-1v-2l47 1v2z"/><path fill="#4E4FEB" d="M724 27h-53a13 13 0 0 1 0-26h53a13 13 0 0 1 0 26Zm66 76h-53a13 13 0 0 1 0-26h53a13 13 0 0 1 0 26Z"/><path fill="#3f3d56" d="m704 157-47-1v-2l47 1v2z"/><path fill="#4E4FEB" d="M790 169h-53a13 13 0 0 1 0-26h53a13 13 0 0 1 0 26Zm-155-9h-53a13 13 0 0 1 0-26h53a13 13 0 0 1 0 26ZM563 26h-53a13 13 0 0 1 0-26h53a13 13 0 0 1 0 26Z"/><path fill="#3f3d56" d="M309 249h-60a8 8 0 0 0 0 16h22v62h16v-62h22a8 8 0 0 0 0-16Z"/><path fill="#3f3d56" d="M349 362H188c-32-1-59-24-64-56l-5-21c-12-43-30-85-53-123-11-17-17-34-4-51 10-13 60-16 77-16h104c17 0 34 10 42 26 8 17 7 37-3 52-35 53-46 86-35 107s43 31 103 33c16 1 23 13 23 25 0 11-7 23-23 23l-1 1Z"/><path fill="#3f3d56" d="M216 504h60a8 8 0 0 0 0-16h-22V353h-16v135h-22a8 8 0 0 0 0 16Z"/><path fill="#a0616a" d="m270 450 10 5 28-38-16-8-22 41z"/><path fill="#2f2e41" d="m275 436 19 6-3 8 13 19a5 5 0 0 1-7 7l-21-8-1-9-5 7-8-3 13-27Z"/><path fill="#a0616a" d="M296 68a12 12 0 0 1-12 13l-40 85-12-17 41-80a12 12 0 0 1 23-1Z"/><path fill="#4E4FEB" d="M164 183s-1 15 16 18 61-25 68-30 21-59 21-59l-11-20c-15 19-27 36-27 48l-67 43Z"/><path fill="#a0616a" d="m183 234 4 16s0 14 2 17c3 2 58-3 58-3s-6-23-5-40l-59 10Z"/><path fill="#2f2e41" d="m300 433-20-11c0-26 16-61 34-98-41 7-81 9-114 1a22 22 0 0 1-16-28c4-13-5-20 4-34 22-7 43-10 62-3l12 26 59-7a22 22 0 0 1 24 21c-12 56-25 107-45 133Z"/><path fill="#4E4FEB" d="m175 136 23-1c2-1 4 1 5 2l6 16 27 22s10 14 11 31l3 58s-15-22-25-16l-4 4-3 1c-14 8-27 15-29 14-2-3-5-16-5-16l-21-77c-2-8-1-17 4-24l4-4c4-1 2-8 4-10Z"/><path fill="#a0616a" d="m370 482 9-7-22-41-14 10 27 38z"/><path fill="#2f2e41" d="m371 454-15 14c-24-27-42-64-58-107-40-12-71-31-97-54-9-7-16-17-8-26l1-2c9-9 32-7 46-16l30 33-2 8 56 19a22 22 0 0 1 13 30l34 101Zm-7 25 15-12 5 7h23a5 5 0 0 1 3 10l-19 13-8-5 3 8-7 5-15-26Z"/><path fill="#a0616a" d="M209 330a12 12 0 0 1-5-17l-52-78 21-2 48 77a12 12 0 0 1-12 20Z"/><path fill="#4E4FEB" d="M179 157s-12-9-23 4-10 66-11 74a278 278 0 0 0 17 24c2 3 1 6 2 8 2 2 6 2 8 3l13 14h23c1-17-11-33-27-48l-2-79Z"/><path fill="#2f2e41" d="m156 81-8 4c-3 1-6-1-6-4-1-3 2-6 4-8l9-7 5-3h5c2 1 3 3 3 6l-2 6c-3 4-8 8-14 9"/><path fill="#3f3d56" d="M218 253h-60a8 8 0 0 0 0 16h22v62h16v-62h22a8 8 0 0 0 0-16Z"/><path fill="#2f2e41" d="M159 64c0-6-6-11-12-10s-11 4-14 9c-4 5-6 11-9 16s-6 11-11 14-13 2-17-3c-2 4-2 8-1 12 2 4 4 7 8 9l5 2 2-4v5h7c5-1 9-5 11-9 3-5 1-12 2-17 0-6 4-13 10-13 4 0 3 1 6 4m53 17c0 14-12 26-26 26s-28-17-28-31 14-21 28-21 26 11 26 26Z"/><circle cx="181" cy="102.6" r="24.8" fill="#a0616a" transform="rotate(-12 181 103)"/><path fill="#2f2e41" d="M212 99c-7 2-15 4-18 0 0-3-1-6-3-8l-1 8c-10 2-18 2-26 0l-2 6-1-1h-1l-1 1v1l1 4 3 2c1 6 9 14 9 14-25 1-25-16-25-32l3-6h10V75h28c13 0 24 10 24 24Z"/><path fill="#cacaca" d="M440 507H1a1 1 0 1 1 0-2h439a1 1 0 0 1 0 2Zm293 0H506a1 1 0 1 1 0-2h227a1 1 0 0 1 0 2Z"/><path fill="#e6e6e6" d="M450 148h-86c-7 0-13-6-14-14V78c1-8 7-14 14-14h86c7 0 13 6 13 14v56c0 8-6 14-13 14Zm-86-82c-6 0-11 5-12 12v56c1 7 6 12 12 12h86c6 0 11-5 11-12V78c0-7-5-12-11-12h-86Z"/><path fill="#e6e6e6" d="M367 82h23v2h-23zm0 8h51v2h-51zm0 7h51v2h-51zm0 7h65v2h-65zm0 7h34v2h-34zm0 7h62v2h-62zm0 7h11v2h-11z"/><path fill="#ccc" d="M366 39h-1l-2-2v-1l2-2h1l-2 2 2 2v1Zm3 0v-1l2-2-2-2h1l2 2v1l-2 2h-1Zm112-5h-5v4l1 1h4l1-1v-4h-1Zm-10 0h-5v4l1 1h4l1-1v-4h-1Zm19 0h-4l-1 1v4h6v-4l-1-1Zm-60 1h-31a1 1 0 1 0 0 2h31a1 1 0 0 0 0-2Z"/></svg>