<svg xmlns="http://www.w3.org/2000/svg" viewBox="0 0 24 24"><path fill="#fff" d="m22.3 13.8-2.6-6.5a.5.5 0 0 0-.1-.1l-1.4-1.5-1.5-3.9a.5.5 0 0 0-.1-.1 2.9 2.9 0 0 0-3.7 0 .5.5 0 0 0-.1.3v4.5a.5.5 0 0 1-.6.5h-.4a.5.5 0 0 1-.5-.5V2a.5.5 0 0 0-.2-.3 2.9 2.9 0 0 0-3.7 0 .5.5 0 0 0-.1.1l-1.5 4-1.4 1.4a.5.5 0 0 0-.1.1l-2.6 6.5a5.5 5.5 0 1 0 9.5 3.7v-5a.5.5 0 0 1 .6-.5 5.3 5.3 0 0 1 .5 0 .5.5 0 0 1 .5.5v5a5.5 5.5 0 1 0 9.5-3.7Zm-13 3.7A3.5 3.5 0 1 1 5.7 14a3.5 3.5 0 0 1 3.5 3.5Zm9 3.5a3.5 3.5 0 1 1 3.4-3.5 3.5 3.5 0 0 1-3.4 3.5Z"/></svg>