<svg xmlns="http://www.w3.org/2000/svg" data-name="Layer 1" viewBox="0 0 865 682"><path fill="#f0f0f0" d="M522 301H324a21 21 0 0 1-21-21V22a21 21 0 0 1 21-21h198a21 21 0 0 1 21 21v258a21 21 0 0 1-21 21Z"/><path fill="#4E4FEB" d="M522 302H324a22 22 0 0 1-22-22V22a22 22 0 0 1 22-22h198a22 22 0 0 1 22 22v258a22 22 0 0 1-22 22ZM324 2a20 20 0 0 0-20 20v258a20 20 0 0 0 20 20h198a20 20 0 0 0 20-20V22a20 20 0 0 0-20-20Z"/><path fill="#f0f0f0" d="M844 301H646a21 21 0 0 1-21-21V22a21 21 0 0 1 21-21h198a21 21 0 0 1 21 21v258a21 21 0 0 1-21 21Z"/><circle cx="419.6" cy="297.2" r="35.8" fill="#4E4FEB"/><path fill="#fff" d="M415 316a4 4 0 0 1-4-2l-9-13a4 4 0 1 1 6-5l6 9 17-25a4 4 0 0 1 7 5l-20 29a4 4 0 0 1-3 2Z"/><path fill="#3f3d56" d="M389 439H9a9 9 0 0 1-9-8V87a9 9 0 0 1 9-9h380a9 9 0 0 1 8 9v344a9 9 0 0 1-8 8Z"/><path fill="#fff" d="M381 431H17a9 9 0 0 1-9-8V95a9 9 0 0 1 9-9h364a9 9 0 0 1 8 9v328a9 9 0 0 1-8 8Z"/><path fill="#3f3d56" d="M35 122h129q64 0 128 3l72 4c2 0 2-3 0-3l-128-6-129-2-72 1c-2 0-2 3 0 3Zm299-19 18-1c2 0 2-3 0-3l-18 1c-2 0-2 3 0 3Zm0 18 18-1c2 0 2-3 0-3l-18 1c-2 0-2 3 0 3Zm-2-8 27 2c2 0 2-3 0-3l-27-2c-2 0-2 3 0 3ZM46 99a7 7 0 0 0-6 4 6 6 0 0 0 1 7 7 7 0 0 0 7 2 6 6 0 0 0 4-6 7 7 0 0 0-4-7 2 2 0 0 0-2 1 2 2 0 0 0 1 2l1 1a5 5 0 0 1 1 1 6 6 0 0 1 0 1c0 1 0 0 0 0v1c0 1 0 0 0 0a3 3 0 0 0 0 1 5 5 0 0 1 0 1h-1c1 0 0 0 0 0v1h-1s1 0 0 0h-1 1a1 1 0 0 0-1 0h-1c1 0 1 0 0 0h-1v-1h-1s1 0 0 0q0-1 0 0v-1a3 3 0 0 1-1 0h1-1v-2h1v-1s0 1 0 0c0 0 0-1 0 0v-1h1l1-1h1-1 1a2 2 0 0 0 2-1 2 2 0 0 0-2-2Zm21 0a7 7 0 0 0-6 4 6 6 0 0 0 1 7 7 7 0 0 0 7 2 6 6 0 0 0 4-6 7 7 0 0 0-4-7 2 2 0 0 0-2 1 2 2 0 0 0 1 2l1 1a5 5 0 0 1 1 1 6 6 0 0 1 0 1c0 1 0 0 0 0v1c0 1 0 0 0 0a3 3 0 0 0 0 1 5 5 0 0 1 0 1h-1c1 0 0 0 0 0v1h-1s1 0 0 0h-1 1a1 1 0 0 0-1 0h-1c1 0 1 0 0 0h-1v-1h-1s1 0 0 0q0-1 0 0v-1a3 3 0 0 1-1 0h1-1v-2h1v-1s0 1 0 0c0 0 0-1 0 0v-1h1l1-1h1-1 1a2 2 0 0 0 2-1 2 2 0 0 0-2-2Zm21 0a7 7 0 0 0-6 4 6 6 0 0 0 1 7 7 7 0 0 0 7 2 6 6 0 0 0 4-6 7 7 0 0 0-4-7 2 2 0 0 0-2 1 2 2 0 0 0 1 2l1 1a5 5 0 0 1 1 1 6 6 0 0 1 0 1c0 1 0 0 0 0v1c0 1 0 0 0 0a3 3 0 0 0 0 1 5 5 0 0 1 0 1h-1c1 0 0 0 0 0v1h-1s1 0 0 0h-1 1a1 1 0 0 0-1 0h-1c1 0 1 0 0 0h-1v-1h-1s1 0 0 0q0-1 0 0v-1a3 3 0 0 1-1 0h1-1v-2h1v-1s0 1 0 0c0 0 0-1 0 0v-1h1l1-1h1-1 1a2 2 0 0 0 2-1 2 2 0 0 0-2-2Zm-44 79 2 51 1 51c0 7-1 16 6 19 2 2 6 2 9 2h63c7 0 15 0 19-5s6-11 6-17v-23l1-26v-49c0-6-1-12-5-17-5-5-12-6-19-6l-51-2H65a30 30 0 0 0-11 1c-5 2-9 7-9 13a9 9 0 0 0 3 7c1 1 3-1 2-2-4-3-2-10 1-13 6-4 13-3 20-3l48 1 11 1c3 0 7 0 10 2 5 3 7 8 8 14v45l-1 49c0 6 0 12-2 17a15 15 0 0 1-4 7 16 16 0 0 1-9 3H61c-3 0-6 0-8-2-3-3-3-6-3-9l-2-97-1-12c0-2-3-2-3 0Zm190 0 2 51 1 51c0 7-1 16 6 19 2 2 6 2 9 2h63c7 0 15 0 19-5s6-11 6-17v-23l1-26v-49c0-6-1-12-5-17-5-5-12-6-19-6l-51-2h-11a30 30 0 0 0-11 1c-5 2-9 7-9 13a9 9 0 0 0 3 7c1 1 3-1 2-2-4-3-2-10 1-13 6-4 13-3 20-3l48 1 11 1c3 0 7 0 10 2 5 3 7 8 8 14v45l-1 49c0 6 0 12-2 17a15 15 0 0 1-4 7 16 16 0 0 1-9 3h-71c-3 0-6 0-8-2-3-3-3-6-3-9l-2-97-1-12c0-2-3-2-3 0ZM96 313a8 8 0 0 0-8-3 10 10 0 0 0-6 6c-3 6-1 13 3 18 4 4 10 7 16 5a14 14 0 0 0 8-14c-1-6-6-12-13-13-2-1-2 2-1 3a14 14 0 0 1 10 8 11 11 0 0 1-3 12c-9 7-20-6-19-15a8 8 0 0 1 4-6 6 6 0 0 1 7 1 2 2 0 0 0 2-2Z"/><path fill="#3f3d56" d="M279 208c-3-1-7-2-11-1-3 2-5 5-6 9l3 11 7 12 8 14a2 2 0 0 0 2-1 29 29 0 0 1 3-14c1-4 5-8 7-12s3-8 2-13c-1-3-3-7-7-8a8 8 0 0 0-10 5c0 2 3 3 3 1 1-3 5-4 7-3 3 2 5 5 5 8 0 5-3 8-5 12l-6 11a31 31 0 0 0-2 13h3l-15-28c-1-4-3-8 0-12s8-2 12-1c1 1 2-2 0-3ZM88 321l5 8a2 2 0 0 0 3 0 33 33 0 0 1 8-16c1-1-1-3-3-2a36 36 0 0 0-8 17h2l-4-9c-1-1-4 0-3 2Z"/><path fill="#3f3d56" d="m138 281-34 31a1 1 0 0 1-2-1l33-36Z"/><path fill="#ffb6b6" d="M185 657h14l6-53h-20v53z"/><path fill="#2f2e41" d="M178 680h10l1-9 5 9h26a6 6 0 0 0 3-10l-21-15v-9l-21 1Z"/><path fill="#ffb6b6" d="M303 657h13l7-53h-20v53z"/><path fill="#2f2e41" d="M295 680h10l2-9 4 9h26a6 6 0 0 0 4-10l-21-15v-9l-22 1Zm-32-304-70-8s-31 41-19 75v39l8 151 22 2 6-69 6-28 5-104 24 30 3 11 8 6 14 19 29 121h26l-15-125-41-84v-4l-1-9s4-3 2-5l-3-6Z"/><path fill="#4E4FEB" d="m238 268 14 16 19 7-11 63 4 18 5 20c-20 12-45-4-67-11l-22 10 1-27 1-67a19 19 0 0 1 20-19l15-11Z"/><path fill="#ffb8b8" d="M112 297a8 8 0 0 0 9 6l16 23 6-13-16-20a8 8 0 0 0-15 4Z"/><path fill="#4E4FEB" d="M195 279s-21-1-18 40l-9 18-18-17v-5l-15-17-12 14 8 12 1 7 5 3 13 19 6 6s7 8 16 7a22 22 0 0 0 6-2c4-2 8-6 12-12a349 349 0 0 0 19-37Z"/><path fill="#ffb8b8" d="M286 232a8 8 0 0 0 7 10l6 27 10-10-8-25a8 8 0 0 0-15-2Z"/><path fill="#4E4FEB" d="M242 287s11-18 43 8l20 3-3-25-5-3-5-21 18-3 6 14 4 5v6l9 21 1 8s2 11-3 17a22 22 0 0 1-6 4c-4 3-9 4-15 3a349 349 0 0 1-42-5Z"/><circle cx="400.9" cy="342.1" r="26.8" fill="#ffb6b6" transform="rotate(-29 111 630)"/><path fill="#2f2e41" d="M263 229h-1a13 13 0 0 1-3 1 13 13 0 0 1-2 0 13 13 0 0 1-1 0 13 13 0 0 1-2 0 9 9 0 0 1-1-1 14 14 0 0 1-9-9 14 14 0 0 1 0-4 14 14 0 0 1 2-7l2-4c-2-5 6-9 11-7a5 5 0 0 1 1 0c3 0 4 5 6 8a3 3 0 0 0 0 5l4 1c5 5 0 21-7 17Z"/><path fill="#2f2e41" d="M260 243c-1 6-4 11-9 15-4 4-26 12-27 5 1 5 0 7-2 9l-1-1a17 17 0 0 0-5-4 54 54 0 0 0 1 9 32 32 0 0 0-2 2c-4-10-11-22-6-32 3-3 1-4-1-4-4-1-5-15-6-18-1-4-1-9 1-13s9-3 11 1l2-4c4-8 14-6 22-5 9 1 16 7 20 15s4 17 2 25Z"/><path fill="#ff6584" d="M247 207a24 24 0 0 0 13 23c2 1 4-2 2-3a21 21 0 0 1-12-20c0-2-3-2-3 0Z"/><path fill="#4E4FEB" d="M129 662a3 3 0 0 1-2-4v-1c-2-6-18 10-18 15a21 21 0 0 0 0 8 83 83 0 0 1-7-35 80 80 0 0 1 0-9l1-7a84 84 0 0 1 17-36c5 1 9 0 9-9l2-5h-2a3 3 0 0 1-2-4v-1l1-1 1-1a7 7 0 0 0-2-3c-4-2-8 0-11 3-2 3-3 7-2 11a30 30 0 0 0 4 9v1a84 84 0 0 0-9 14c1-5-8-25-11-29-4-5-12-3-13 3l1 1a4 4 0 0 1-1 7c-7 9 14 34 20 28a86 86 0 0 0-5 22 82 82 0 0 0 0 13c-1-10-21-24-27-23-4 1-7 1-6 4v1a24 24 0 0 1 2 1l2 1a4 4 0 0 1-2 6c-3 10 19 27 33 22a86 86 0 0 0 6 17h20l1-1a24 24 0 0 1-6 0l4-6a1 1 0 0 0 1 0l2-3a34 34 0 0 0-1-9Zm-24-46Zm-4 41h-1v-2l1 2Z"/><path fill="#ccc" d="M67 680h292v2H67z"/><path fill="#4E4FEB" d="M745 135a13 13 0 0 0-19 17l17 19 19-17a13 13 0 1 0-17-19Z"/></svg>