<svg xmlns="http://www.w3.org/2000/svg" data-name="Layer 1" viewBox="0 0 1118 827"><defs><linearGradient id="a" x1="377.5" x2="377.5" y1="611.1" y2="84.2" gradientTransform="rotate(27 354 470)" gradientUnits="userSpaceOnUse"><stop offset="0" stop-color="gray" stop-opacity=".3"/><stop offset=".5" stop-color="gray" stop-opacity=".1"/><stop offset="1" stop-color="gray" stop-opacity=".1"/></linearGradient></defs><ellipse cx="741.3" cy="764.2" fill="#4E4FEB" opacity=".1" rx="314.1" ry="31.7"/><path fill="#4E4FEB" d="M650 116c-72-2-140-21-206-42S315 29 245 18c-45-7-97-8-133 12-35 19-46 53-52 84-5 23-7 48 5 69 9 16 24 28 35 43 37 50 11 112-30 162-18 23-40 45-55 69s-21 53-8 78c12 25 42 44 75 57 66 27 144 34 220 39 168 9 337 5 506 1 62-2 125-3 186-11 34-5 69-12 94-29 31-22 39-58 18-85-35-46-133-57-157-106-14-27 0-57 20-82 42-54 113-101 117-162 2-43-32-85-85-105-55-20-132-18-172 17-42 35-116 49-179 47Z" opacity=".1"/><path fill="#4E4FEB" d="M172 626c-8-3-1-42 16-101 11-38 27-84 45-135l4-12 5-12v-1l1-1 19-50v-1l5-12v-2l1-1v-1l1-1 5-12 7-19 2-3 4-10 1-4 1-2 12-29c15-36 30-69 44-98v-1l2-3C382 42 409-4 419 0c9 5-3 61-29 143l-1 3a6 6 0 0 1 0 1l-4 13h-1l-10 32-2 4-18 53-2 3-21 56-1 3v1l-6 14-1 4-4 10-1 1v1l-1 1-2 5-3 8v1l-13 32-4 10-4 8-23 53c-46 103-84 171-96 166Z" opacity=".5"/><path fill="#4E4FEB" d="M191 555c-5-2 1-30 15-72l35-97 3-8 4-10v-1l14-36h1v-1l4-9 1-2v-1l4-9 5-13 1-3 3-7 1-2 1-2 9-21 33-71 1-3c26-53 46-86 51-84 6 3-4 43-25 102v2l-4 10-8 23-1 3-15 38-1 2-16 40-1 3-4 11-1 2-3 8h-1v2l-2 3-2 6v1l-10 23-3 7-3 6-17 39c-34 74-62 124-69 121Z" opacity=".5"/><path fill="url(#a)" d="M554 389c0-3-3-1-3-1a19 19 0 0 0-4-2c-6-3-15-5-22-7h-1l-11-1h-5a4 4 0 0 1 2-1c1-1-5-1-7-1h-2c-5 1-16-6-16-6l-1-7c4-4 3-16 3-16l4-9c3-5 0-9 0-9l6-6a9 9 0 0 1 1-7 6 6 0 0 1 1-2h1c4-3 7-14 7-14s-1-2 4-7l2-3c7-7 4-11 4-11l-8-11c2-3-15-28-15-28s-2-5-1-10a7 7 0 0 0 0-3 4 4 0 0 0-1-2 3 3 0 0 0-1-1v-1h3a38 38 0 0 0 36-6l1-1 1-1 1-1v1a19 19 0 0 0 1 2 2 2 0 0 0 1 1 13 13 0 0 0 2 3 7 7 0 0 0 1 1 1 1 0 0 0 1 0l1-1a33 33 0 0 0 3-14 14 14 0 0 1 0-1 4 4 0 0 1 1-1 4 4 0 0 1 1-2 19 19 0 0 1 4-2h2v-1a1 1 0 0 1 1 0 4 4 0 0 0 1-1l1-1a10 10 0 0 0 1-5l-1-7c0-6 4-12 4-18 0-5-4-9-8-12s-8-6-10-11l-4-11c-3-7-11-11-19-9-5 1-9 4-14 6l-9 3a25 25 0 0 0-10 6l-1 2v1l-1 1h-1a20 20 0 0 0-1 2v2l-4 10a17 17 0 0 1-2 2l-2 3a3 3 0 0 1-1 1v1h-1v2a8 8 0 0 0-1 3 5 5 0 0 0 0 2 3 3 0 0 0 1 1l-1 1a47 47 0 0 0-1 4 38 38 0 0 0-1 6v1a31 31 0 0 1-4 1c-1 0-8 2-10 1l-9-1-4-2a19 19 0 0 1-5-3c-1-2-13-9-15-9a4 4 0 0 1-3-1 27 27 0 0 1-2-3s0 0 0-1l-1-1-7-4-1 3v1c-14 28-30 61-45 97l-13 29-1 2-2 4-4 9-1 3-8 19-6 12v2l-1 2v1l-5 12h-1v2l-20 48-1 2-5 13-4 11a2932 2932 0 0 0-52 134l2-1a15 15 0 0 1 1-1 14 14 0 0 0 4-2l1-2a65 65 0 0 0 6-8 8 8 0 0 1 1-1l1-1h1v-1h1l6-5v-1l3-1 1-1 3-2a1 1 0 0 1 0-1l1-1v-1a5 5 0 0 1 1 0l4-4v-1h1l1-1a31 31 0 0 1 3-2 40 40 0 0 0 3-3l1-1a5 5 0 0 0 1-1l1-1 1-1 1-1h1l1-2 1-1 1-1 2-1 1-2 1-1 1-1v-1l2-1 1-1v-1l2-1 9-10 9-11 5-7a20 20 0 0 1 3-3 17 17 0 0 0 2-2l8-10v-1a20 20 0 0 0 3-2 13 13 0 0 0 2-4 16 16 0 0 1 2-3v-1h1a15 15 0 0 0 2 0 30 30 0 0 0 9-1 2 2 0 0 0 1 0l2-1 6-9 7-7 1-1 4-6c1-3 7-9 7-9l13-17 1-1a6 6 0 0 1 1 1l1-2a5 5 0 0 1 1 1v1s21-29 24-37a24 24 0 0 1 3-5c4-6 11-13 15-16l1-1 1-1v1c1 2 3 7 2 8l-5 17s-4 7-1 18 14 14 17 14l27 10 3 1 2 1 4 2 1 1 1-1 1 1-1-1 2-3v-1h1v-2a53 53 0 0 0 3-4h2l2-1h3l25 2h1a17 17 0 0 0 19-17Z" transform="translate(-41 -37)"/><path fill="#65617d" d="M452 380s19-26 6-40l-30 9 2 12s13 15 22 19Z"/><path d="m428 349 2 12s9 10 18 16a29 29 0 0 0 5 3s0-1 0-1a70 70 0 0 0 6-10l2-5c2-5 3-12 1-17a16 16 0 0 0-3-6v-1a2 2 0 0 0-1 0l-11 3Z" opacity=".1"/><path fill="#65617d" d="m301 271-2 3 1-4Z"/><path d="m301 271-2 3 1-4Z" opacity=".1"/><path fill="#fbbebe" d="M462 343s-14 14-6 23l10 2c13 3 36 5 43-8 11-19-39-18-39-18h-4Z"/><path d="M462 343s-14 14-6 23l10 2h2a16 16 0 0 1-6-4c-2-2-4-5-2-10a68 68 0 0 1 3-7 23 23 0 0 1 3-5Z" opacity=".1"/><path fill="#e7effd" d="M439 370h5l15-1 7-1a16 16 0 0 1-5-4c-3-2-4-5-2-10a70 70 0 0 1 3-7c2-4 4-6 5-6l-7-1h-2l-10 3h-1c-2 2-17 14-8 27Z"/><path fill="#3f3d56" d="m324 376-15 35-5 6-1 1a18 18 0 0 0-3 4 13 13 0 0 1-1 3 21 21 0 0 1-3 3s-4 6-8 10a22 22 0 0 1-2 3 17 17 0 0 0-3 2l-5 7-9 11-10 10v1l-1 1-1 1-2 1v1l-1 1-1 1-1 2-2 1-1 1-1 1-1 2h-1l-1 1-1 1-1 1a5 5 0 0 1-1 1l-1 1a37 37 0 0 1-3 3 36 36 0 0 0-4 3h-1v1l-4 4a5 5 0 0 0-1 1l-1 2-3 2-1 1-3 2-6 5h-1v1h-1v1h-1a7 7 0 0 0-1 1 63 63 0 0 1-6 8l-1 2a14 14 0 0 1-3 2 15 15 0 0 0-2 1c12-37 29-83 50-133l4-11 5-13 1-2 20-48v-2h1l5-12v-1l1-2v-2l6-11 17 19 1 1 12 14h1l4 5 2 2 1 1 12 14h1Z"/><path fill="#fbbebe" d="m412 155-2 34s29 14 30 9l9-9 17-10s-30-45-34-35c-1 3-4 6-7 7a40 40 0 0 1-13 4Z"/><path d="M432 144c-1 3-1 4-4 6-1 10-1 22 7 30a38 38 0 0 0 14 10c7-6 17-11 17-11s-30-45-34-35Z" opacity=".1"/><path fill="#fbbebe" d="M437 125a38 38 0 1 0 52 56h1a38 38 0 0 0-53-56Z"/><path d="M326 367c-1 1-3 1-6-3a50 50 0 0 0-6-6l-1-1-13-12h-1l-7-7-1-1-10-10-3-4v-2l5-12 1-1 1-2 1 1 6 7 3 4 1 1 3 4 1 1a126 126 0 0 0 21 18l1 1 1 1 5 3a76 76 0 0 0 0 7c0 5 0 10-2 13Z" opacity=".1"/><path fill="#5f5d7e" d="M326 367c-1 0-3 0-6-4a50 50 0 0 0-5-6l-1-1-13-11a3 3 0 0 1 0-1l-9-7-1-2-9-9-4-4v-1l5-12 1-1 1-2v-1l7 7v1l1 1 3 4 3 3 1 1 1 1a152 152 0 0 0 13 12l1 1 7 5 1 1 1 1 4 3a97 97 0 0 0 1 10c0 4-1 9-3 11Z"/><path d="M444 225 341 349l-9 10-1 2a47 47 0 0 0-2-5l-1-2a29 29 0 0 0-6-8l-1-1h-1a11 11 0 0 0-2-1 21 21 0 0 1-6-4l-1-1a120 120 0 0 1-12-14v-1l-2-3-2-2-4-4a52 52 0 0 0-7-7l1-2v-1l5-12 9-19 1-4 4-9 2-4 1-2 12-29 66-58 8-4 7-3 6 1v1l6 1 1 1h3l1 18 2 4 2 2 3 1h1l3 1 6 3 2 5 1 3v2l1 1Z" opacity=".1"/><path fill="#e7effd" d="M446 224 341 349l-9 10a48 48 0 0 0-3-7l-1-2a24 24 0 0 0-5-6h-1a9 9 0 0 0-1-1 10 10 0 0 0-1 0 21 21 0 0 1-7-5v-1a102 102 0 0 1-9-9l-3-5-1-1-1-1-1-1-6-7v-1a55 55 0 0 0-6-5 11 11 0 0 0-1-1v-1l5-12 9-19 1-4 4-9 2-4 1-2 12-29 67-59 7-3 9-4 5 1h1l4 1 1 1h1l3 1 1 18 1 1 2 3 1 1 3 2 5 1 6 3 2 6v1l1 2v1Z"/><path d="M430 199s-13 0-14 2l-5 5-5 13-12 16-20 26-29 36-37 46-17 3v-13l67-81 13-16 28-30c2-3 12-8 12-8s5-8 1-16 1 0 1 0l6 1 2 4s11 7 9 12Z" opacity=".1"/><path fill="#4E4FEB" d="M432 199s-14 0-15 2l-5 5-5 13-12 16c-3 2-20 26-20 26l-28 36-38 46-16 4-1-14 68-81 13-16 28-30 11-8s6-8 1-16 1 0 1 0l7 1 1 4s11 7 10 12Z"/><path d="M448 191s0 2-5 7-12 17-12 17-3-20-9-25Z" opacity=".1"/><path fill="#e7effd" d="M449 190s0 2-4 6-12 18-12 18-3-20-10-25Z"/><path d="M421 155v34l-28-7c-4 0 19-25 19-25Z" opacity=".1"/><path fill="#e7effd" d="m421 153 1 34s-24-7-29-7 19-25 19-25Z"/><path d="M447 191s3 1 2 6 1 10 1 10 16 24 14 27l9 11s2 4-5 11-6 10-6 10-3 11-7 14-3 8-3 8l-52 21s-16 14-19 22-24 36-24 36-1-2-3-1l-14 18-7 10c-1 3-12 13-12 13l-6 10s-14 4-19-4 10-45 10-45l22-34 23-33 17-19 40-42 25-31s10-18 14-18Z" opacity=".1"/><path fill="#65617d" d="M449 190s3 1 2 6 1 10 1 10 16 24 14 28l9 10s2 4-5 11-6 10-6 10-3 11-7 14-3 9-3 9l-52 20s-16 14-19 22-24 37-24 37-1-3-3-1l-14 18s-6 6-7 9-12 14-12 14l-6 9s-14 5-19-3 11-45 11-45l21-35 23-32 17-20 40-42 25-30s11-19 14-19Z"/><path d="m428 349 2 12s9 10 18 16l5 2 1 1-1-1c-5-3-8-6-9-9-6-13 11-26 15-29l1-1a7 7 0 0 1-1 0 8 8 0 0 1-1 0l-10 3h-1Z" opacity=".1"/><path fill="#65617d" d="m452 283 2 5-6 6s4 3 0 9-4 9-4 9 1 11-3 16l1 6s11 8 16 6c0 0-34 24-6 40 0 0-34-15-37-15s-14-4-17-14 2-17 2-17l4-18c1-2-2-8-2-8l15-33Z"/><path d="m421 153-1 2-6 8-1 1-1 3-3 3-11 11-2 2-17 17-38 37-27 16-8 4 1-2 12-29 45-97a4 4 0 0 1 1 0l8 5 1 1a27 27 0 0 0 2 2l4 3c2 0 13 7 15 9a11 11 0 0 0 2 2l7 3 8 1c2 1 7-1 9-2Z" opacity=".1"/><path fill="#65617d" d="m421 153-2 2-6 8-1 1-4 5-12 11-2 2-13 13-41 41-28 16-5 3 13-29c15-36 31-68 45-97v-1l8 5v1a21 21 0 0 0 3 3 4 4 0 0 0 3 2c2 0 13 7 15 9a16 16 0 0 0 4 2l4 2 9 2 10-1Z"/><path d="m258 375-1-2a12 12 0 0 0 1 2Zm-2 11-9 11 5-11Z" opacity=".1"/><path fill="#3f3d56" d="M296 318h-1v1l-13 7-4-4v-1l13-6 1-1h1l3 4Z"/><path d="M460 259s-7-3-11-1 11 1 11 1Zm-20 48s-2 16-9 16 9-16 9-16Zm-130-7c0-2 9-40 3-42Zm127-175a38 38 0 0 0-10 16h1l7 1a7 7 0 0 1 7 5 9 9 0 0 1-3 9c4-3 8-7 13-9s10-4 14 0c1 1 2 4 5 4l3-2c7-1 12 9 13 14l3 18a38 38 0 0 0-53-56Z" opacity=".1"/><path fill="#7c5c5c" d="m475 149-4 1c-2 0-3-2-5-4-3-4-9-3-14 0l-13 9a9 9 0 0 0 4-8 7 7 0 0 0-7-6c-3 0-6 1-8-1s-2-4 0-7l5-6c3-4 3-9 6-14a25 25 0 0 1 13-12l9-3 13-6c8-2 17 2 20 9l3 11c2 4 6 7 10 10s8 7 8 12c0 6-4 12-4 18l1 7c0 2-1 5-3 7s-7 2-8 5a8 8 0 0 0-1 2 33 33 0 0 1-4 15c-8-4-7-18-8-25-1-6-6-15-13-14Z"/><path d="M430 278s-27 25-27 29 27-29 27-29Zm73-110c1-3 6-3 8-4a6 6 0 0 1-2 2l-6 3a4 4 0 0 1 0-1Zm-61-15 12-9c4-2 11-4 14 0 2 1 3 3 5 3l4-1c7-1 12 9 13 14 1 8 0 21 7 25l-1 3c-8-4-7-18-8-26-1-5-6-14-13-13l-4 1c-2 0-3-2-5-4-3-4-9-3-14 0l-13 9a9 9 0 0 0 3-2Zm-12-22c-2 2-2 5 0 7s5 0 8 1a8 8 0 0 1 6 5 9 9 0 0 1-2 8 8 8 0 0 0 1-6 7 7 0 0 0-7-5c-3 0-6 1-8-1s-2-4 0-7a22 22 0 0 1 2-3 13 13 0 0 0 0 1Zm11-20c-3 4-3 9-6 13l-2 3 6-14a24 24 0 0 1 3-6 23 23 0 0 0-1 4Z" opacity=".1"/><circle cx="512.8" cy="358.4" r=".4" fill="#e6e8ec"/><path fill="#4E4FEB" d="M819 760c1 12-99-2-95-12h-1c-12 3-78-20-73-31-54-48-79-92-30-190a7 7 0 0 0 0-2l1-3v-1l5-22a594 594 0 0 1 35-107l1-2 1-1 1-3 1-2c13-27 27-50 41-70-7-4-29-34-24-58 6-26 39-36 47-34s10 24 4 50a139 139 0 0 1-5 17c26-25 53-38 78-32 21 5 37 22 49 47l1-4c6-25 17-44 26-42s35 30 29 55c-4 17-36 25-42 32 12 55 16 136 24 217 12 107-8 165-74 198Z"/><path d="M806 404c-5 19-31 30-60 26l-8-2-6-1c-29-9-49-31-44-50 3-15 19-25 40-27a84 84 0 0 1 13 0 92 92 0 0 1 15 2c32 8 55 31 50 52Z" opacity=".2"/><ellipse cx="798.3" cy="444.5" fill="#3f3d56" rx="24.5" ry="36.3" transform="rotate(-77 755 452)"/><path fill="#fff" d="M738 362c-5 11-7 8-11 6s-7-1-2-11a57 57 0 0 1 3-7 84 84 0 0 1 13 0 48 48 0 0 1-3 12Zm8 68-8-2-6-1c2-11 6-12 10-11s6 3 4 14Z"/><circle cx="766.2" cy="307.2" r="22.1" opacity=".2"/><ellipse cx="751" cy="304" opacity=".1" rx="17" ry="9.2" transform="rotate(-77 707 311)"/><ellipse cx="921" cy="338.6" opacity=".1" rx="17" ry="9.2" transform="rotate(-53 863 362)"/><path fill="#3f3d56" d="M767 296a10 10 0 0 0-1 0 6 6 0 0 1 0 4 6 6 0 0 1-11 2 11 11 0 0 0-1 2 11 11 0 1 0 13-8Z"/><path d="M735 336c-1 4-2 3-3 2s-4 1-3-3 6-11 6-11v12Zm43-61c-1 4-2 2-4 2s-3 0-3-4 6-10 6-10 2 8 1 12Zm39 26c-1 4-2 2-4 2s-3 0-2-4 6-10 6-10v12Zm11 36c-1 4-2 3-4 2s-3 1-2-3l5-11s2 8 1 12ZM724 746l-1 2c-12 3-78-20-73-31Z" opacity=".2"/><path d="M724 748h-1l1-2c19-6 95 14 95 14 1 12-99-2-95-12Z" opacity=".2"/><path d="M734 412c-5 23-26 53-57 78a239 239 0 0 1-57 35l1-3 5-23a594 594 0 0 1 35-107l1-2 1-1c21-10 40-14 53-11a25 25 0 0 1 12 6 20 20 0 0 1 2 2 24 24 0 0 1 5 13 43 43 0 0 1-1 13Z" opacity=".1"/><path d="M732 409c-5 23-26 53-57 79a240 240 0 0 1-54 33l5-22a594 594 0 0 1 35-107l1-2 1-1 1-3 1-2c19-8 37-12 50-9a25 25 0 0 1 12 6 20 20 0 0 1 1 2 24 24 0 0 1 5 13 43 43 0 0 1-1 13Z" opacity=".1"/><path fill="#4E4FEB" d="M732 410c-5 23-26 53-57 79a240 240 0 0 1-54 33s0-1 0-1l5-22a594 594 0 0 1 35-107l1-2 1-1 1-3c20-9 38-13 50-10a25 25 0 0 1 12 7 19 19 0 0 1 2 1 24 24 0 0 1 5 13 43 43 0 0 1-1 13Z"/><ellipse cx="755.8" cy="648.6" opacity=".1" rx="108.9" ry="105" transform="rotate(-77 712 656)"/><ellipse cx="755.3" cy="650.7" fill="#4E4FEB" rx="108.9" ry="105" transform="rotate(-77 712 658)"/><path fill="#65617d" d="M723 585a7 7 0 0 1-13-3c1-4 3-1 7 0s7-1 6 3Z"/><path d="M796 258c21 5 37 22 49 47a134 134 0 0 1 3-13c-11-19-25-31-43-35a57 57 0 0 0-24 0 55 55 0 0 1 15 1Zm96 304c-8-81-12-162-24-217 6-7 38-15 42-32 6-26-21-54-29-56-2 0-5 1-7 3 10 5 32 31 27 54-4 17-36 25-42 32 12 55 15 136 24 217 11 107-8 165-74 198l-4 3c8 0 13-1 13-4 66-33 86-91 74-198ZM719 223c8 2 10 24 4 50a139 139 0 0 1-5 17l12-11 2-7c6-26 5-48-4-50-2-1-6 0-10 1a8 8 0 0 1 1 0Z" opacity=".1"/><g opacity=".1"><path d="M876 586c-24 11-71-35-96-89-16-37-22-73-16-96a43 43 0 0 1 4-12 24 24 0 0 1 11-10 19 19 0 0 1 2 0 25 25 0 0 1 14-1c22 6 51 37 71 80 24 54 33 118 10 128Z"/><path d="M789 420c-3 2-12-4-21-14l-4-5a43 43 0 0 1 4-12 77 77 0 0 1 10 9c8 9 14 19 11 22Zm6-42a86 86 0 0 1 6 7c9 9 14 19 12 22s-12-4-21-13l-11-15Z" opacity=".1"/></g><path d="M879 583c-24 10-71-36-96-90-16-37-22-73-16-96a43 43 0 0 1 4-12 24 24 0 0 1 11-9 21 21 0 0 1 2-1 25 25 0 0 1 14 0c22 5 51 36 71 79 24 54 33 118 10 129Z" opacity=".1"/><path fill="#4E4FEB" d="M877 584c-23 11-71-35-95-89-17-37-22-73-17-96a43 43 0 0 1 5-12 24 24 0 0 1 10-9 21 21 0 0 1 3-1 25 25 0 0 1 13-1c23 6 52 37 71 80 25 54 34 118 10 128Zm164 30s6 7-2 18-15 21-13 28c0 0 13-21 23-21s3-13-8-25Z"/><path d="M1041 614a9 9 0 0 1 1 2c10 12 16 23 6 23-9 0-19 16-22 20v1s13-21 23-21 3-13-8-25Z" opacity=".1"/><path fill="#ffd037" d="m1052 623-1 5v-6s1-1 1 1Zm3 3-4 2 4-3c2-2 1 0 1 0s2 0-1 1Z"/><path fill="#4E4FEB" d="M1012 614s-6 7 2 18 15 21 12 28c0 0-12-21-22-21s-4-13 8-25Z"/><path d="M1012 614a9 9 0 0 0-2 2c-10 12-15 23-5 23 9 0 19 16 22 20a8 8 0 0 1-1 1s-12-21-22-21-4-13 8-25Z" opacity=".1"/><path fill="#ffd037" d="m1001 623 1 5v-6s-1-1-1 1Zm-4 3 5 2-4-3c-2-2-1 0-1 0s-2 0 0 1Z"/><ellipse cx="1026.4" cy="707.3" fill="#4E4FEB" opacity=".1" rx="59" ry="9.1"/><path fill="#65617d" d="M1057 650v2l-1 4v4l-1 2v3l-5 37c0 3-5 6-12 6h-23c-7 0-12-3-13-6l-4-37-1-3v-6l-1-4v-2c0-2 3-3 6-3h48c4 0 7 1 7 3Z"/><path fill="#9d9cb5" d="m1057 652-1 4h-59l-1-4h61zm-1 5v3h-59v-3h59zm-1 5v3h-57l-1-3h58z"/><path fill="#4E4FEB" d="M349 683s8 10-4 26-21 29-17 38c0 0 18-29 32-29s5-18-11-35Z"/><path d="M349 683a13 13 0 0 1 2 3c13 16 21 32 8 32s-28 23-31 28v1s18-29 32-29 5-18-11-35Z" opacity=".1"/><path fill="#ffd037" d="m364 696-1 7-1-7c0-4 0-2 1-2s1-1 1 2Z"/><path fill="#ffd037" d="m369 700-7 3 6-4c3-2 2-1 2 0s2 0-1 1Z"/><path fill="#4E4FEB" d="M307 683s-8 10 4 26 21 29 17 38c0 0-17-29-32-29s-4-18 11-35Z"/><path d="M307 683a13 13 0 0 0-1 3c-14 16-22 32-8 32 12 0 27 23 31 28a12 12 0 0 1-1 1s-17-29-32-29-4-18 11-35Z" opacity=".1"/><path fill="#ffd037" d="M293 696v7l1-7c0-4 0-2-1-2v2Z"/><path fill="#ffd037" d="m288 700 6 3-6-4c-4-2-2-1-2 0l2 1Z"/><ellipse cx="328.1" cy="813.8" fill="#4E4FEB" opacity=".1" rx="82.6" ry="12.7"/><path fill="#65617d" d="m371 733-1 4v4l-1 2v7l-1 4-6 52c-1 5-8 8-17 8h-33c-9 0-17-3-18-8l-6-52v-4l-1-2v-7l-1-4v-3c-1-3 3-5 9-5h67c5 0 9 2 9 4Z"/><path fill="#9d9cb5" d="M370 737v4h-83l-1-4h84zm-1 6v5h-82v-5h82zm0 7-1 4h-80v-4h81z"/></svg>