<svg xmlns="http://www.w3.org/2000/svg" viewBox="0 0 959.3 686"><path fill="#d0cde1" d="M746.7 311c-1.8-4.5.8-6.8 1.8-11s-2.3-16.9-2.3-16.9-10.8-44.3-14.1-53a16 16 0 0 0-7.5-8c-.2-1-.5-1.8-1-2-3-1.5-10.3-4.7-15.3-5.6a25 25 0 0 0-3.2-4.4 10.4 10.4 0 0 0 1.2-5.4c-.4-4.8-4-9.2-3.5-14 .3-3.6 3-6.7 4-10.2a12 12 0 0 0-1.3-9.4l2.2 2.4a8.5 8.5 0 0 0-.6-10.3c-2.4-2.6-6.4-3.6-8.3-6.7-1.9-3.1-.9-7.4-2.7-10.6-4.4-7.8-15.8-2.3-22.6-5-2.7-1.1-4.9-2.4-8-2.3a31.5 31.5 0 0 0-7.9 1.5 16.6 16.6 0 0 0-9 6.5 5.6 5.6 0 0 1 .7-.7c1.7-1.3 4.6-1.2 5.4.7a3.2 3.2 0 0 1 .3 1.5c-.2 2.3-2.2 4-4.2 5.2s-4.2 2.1-5.5 4c-2.1 3.1-.9 7.3-.9 11.1a16.1 16.1 0 0 1-6 12.5l7.1-3a54.6 54.6 0 0 0-6.6 19.7l9.7-8.1a43 43 0 0 0-6.4 19l7.9-8a4 4 0 0 1 .5 2l-.8 3.2a20.5 20.5 0 0 1-1 1.9c-1.3 2.1-2.6 4.8-1.4 7-1.2 4.2-3 8.4-7.3 10.4 4.7.5 9.5-1.8 11.6-5.5a10.3 10.3 0 0 0 1.2 1.9l.4.5-1.1.8-3.1 2s-20.3 4.1-19 11.8l.2 1.1-5.8 10-8.5 28.6s-4.3 9.2-3.6 13 0 5.5 0 12.4-3.3 9.7 0 15.4 13.3 22 13.3 22l2.2 1.6a10.3 10.3 0 0 0 .2 3L649.3 452s-9.7 77.7 10 82.5l7.3 1.7 3 19.6-1.8 24.9s-13.6 30.7 11.3 32.5 13.5-26.7 13.5-26.7a13.5 13.5 0 0 0 1.6-7.9c-.3-2.3-2.4-14.1-4.5-25.6 9.4-1.1 7.7-11.1 6.4-15.5a2.5 2.5 0 0 0 1.1-1.4c.3-1-.3-5-1.5-10.7l-3.8-20.8 6.1 1 26-151.7s.2-2.4 0-6a96 96 0 0 1 11-4.8c8.5-3.3 11.8-15.6 14.6-20.8s-1-6.6-2.8-11.2Zm-91.9-96.5a5.5 5.5 0 0 1 2.8-1c-.2 1.2-2.2 1.6-4 2.2a5 5 0 0 1 1.2-1.2Zm-13 76.3c2.2 3.4-1.6 12.7-5 20-2-1.7-4-1.1-1.6-5.9a24.1 24.1 0 0 0 2.8-9.7c0-.6.4-5 2.9-6.7a13.5 13.5 0 0 0 1 2.3Zm-7.7 29.5 5.4-2a50.4 50.4 0 0 0-3.8 5.2 4 4 0 0 1-1.6-3.2Zm83.1 3.3a64.5 64.5 0 0 1-3.8-4.4l5.9 1.6a7 7 0 0 0 3-.2v4.3l-2.7 2a16.5 16.5 0 0 0-2.4-3.3Zm8-8.9-.1.1a17 17 0 0 0-.7-3 106 106 0 0 1-3-22.7l4.8 16.3s.3 8.2-1 9.3Z"/><path fill="#d0cde1" d="M625.6 247.4s-26.2-45.2-27-50.1-14-14-14-14c-4.5-4.5-11.9-6-19.7-5.8 3-2.5-7.5-4-8.3-5.7-.8-1.6-3.3-1.6-6.5-4.1-3.3-2.5-11.5-.4-11.5-.4a30.3 30.3 0 0 1-2.6-8.2 23 23 0 0 0 5.4-14.8v-.2l.7 1c1.5-9.2 4.2-16.9-1-25.3a28.4 28.4 0 0 0-16.1-12.3l-5 4 2-4.7a26.1 26.1 0 0 0-4.9-.3l-4.4 5.7 1.8-5.5a28 28 0 0 0-19.4 11.5 24.9 24.9 0 0 0 .3 27.7v-.2a23 23 0 0 0 11.8 18.7l1.4 11.1a7.7 7.7 0 0 1-4.5 2c-2.5 0-5 6.6-5 6.6s-1.4.7-2.9 4c-3.9 2.7-15.7 11-20 16.8-2.7 1.3-5.5 4.1-5 10.4.8 11.5 0 65 0 65s-7.4 45.1-5 48.4-.8 14-.8 14l2.5.5v2.8s-7.4 34.3 4.1 32.8c19-2.4 5-30.4 5-30.4v-3.2l3.2.8s1.7-11.5 5-12.4c1.1-.2 2.4-3.3 3.7-7.2l1.2 9.7 5.1-1.1 1.5 5.2a7 7 0 0 0 1 .5l-1 6s-.9 6.7 0 10.8c.4 2 15.6 46.3 30.6 89.7l-.2 10.5s-7.4 8.2-5.8 14-4.1 53.4-4.1 53.4l-5 23.8 1.3.4-1.1 4.2a8.3 8.3 0 0 0-2.6 2c-6.6 7.4-14.8 28.7-14.8 28.7s-14.8 22.2 8.2 21.4 24.7-9 24.7-9 3.3-21.4 3.3-22.2-1.7-9.3-1.7-9.3l-.6-.7.4-10.2 4.3 1.3s4.1-21.4 7.4-23.9a110 110 0 0 0 7.7-22.7c3.6 10.2 7 45.7 8.2 49a11.7 11.7 0 0 0-1 1.7 199.6 199.6 0 0 1-12.4 20.5s-26.3 15.6 0 19.7c0 0 14.8.9 22.2-4s27-12.4 27-14-4.8-25.8-9.8-23.2l-3.3-7.6 3.3-1.3-20.8-93.3a47.1 47.1 0 0 0 1.1-6c0-4.4 10.6-88.2 13.3-109.4 12 3.4 22.9-21.3 22.9-21.3l2.7-4.9 3.8 2.4s3.3-8.2 8.2-9 14-44.4 14-50.1a26.7 26.7 0 0 0-2.5-10.7Zm-38.2 64.4a22.1 22.1 0 0 0-2.8-3.6 101.7 101.7 0 0 0 4.9-17.3c1.6-9-2.5-38.6-2.5-38.6v-2c4 5.3 9 12.4 9 14.3a6.2 6.2 0 0 0 2.5 5l-4.9 17.2s-3.3 8.2-4.1 12.3a42 42 0 0 0-.8 7.4l1.1.8Zm-337.9-49.2 4.4-1-18-51-39-14.3-.5.4a20.7 20.7 0 0 1-5.4-11.5 23 23 0 0 0 10.8-33.8c3.2-.8 4.3-3.7 5.4-7.2a14.4 14.4 0 0 0-2-.4l1.5-3.4-2.7-.3.7-3.1-3.4 2.3a7 7 0 0 0-1.2-6.6 13.3 13.3 0 0 0-5.6-4 25.4 25.4 0 0 0-26 4.5l-.3-1a33 33 0 0 0-12.6 22c-1.1 8.5 3 17.2 8.3 24l-.1-.9.7 1 .7 25-1.7 1.4S136 217.2 134.8 232c-1.7 7.3-2.5 45.1-2.5 45.1h2.3l-2.3 14.8-14.8 57.5s-18.9 24.7-2.4 29.6c10.2 3 13-8.8 13.8-18.2.6 2.3 2.4 4 5.9 4.2h.8c-7.7 20.2-2.5 85.5-2.5 85.5-4 8.2 44.4 64.9 44.4 64.9l3-1.6.5 1.3-2.7.3v25.4s-7.4 25.5 2.5 30.4c2.5 1.3 5.2.4 7.7-1.7-.4 7.9-1.1 19.6-1.1 22.3 0 4 10.6 11.5 10.6 11.5s2.5 9 22.2 9 5-23.8 5-23.8l-10.7-23.8s-.8.4-3.2-1.6l.8-9.5 4.8.4 6.6-96.1 6.6-98.6a91.5 91.5 0 0 0-.3-12.7l24.1-49.8Zm-17.8 31.9-2.4 8.6v-19Zm-102.5 60.9c0-3-.2-5-.2-5l16-32.2-.4 10s-12.8 16.2-15.4 27.2Zm37.6 92.7 15.6-55 9 66.5-.6 24.2a38.6 38.6 0 0 1-2.6-7c-2.5-9.8-21.4-28.7-21.4-28.7Z"/><path fill="#d0cde1" d="M389.1 578.9c-7.6-3.2-22.6-10-24.4-13.6a689.6 689.6 0 0 1-10.9-31.7l-2.3.1c-.3-12.7-1.6-62.1-3.6-68 0 0 9.6-78.4-9.5-109.6l-3.4-13.9c1.1-5.5 1-18.4.3-20.5-1-2.8 10.4-11.4 7.2-16.8s-11.8-24-11.8-24 1-11.8-11.3-22.6c0 0-3.6-20.3-19.7-20.6-2.1-3.8-5.2-9.8-4.3-12.5a515 515 0 0 1 6.7-16.9 21.7 21.7 0 0 0 3.2-1.7 38.7 38.7 0 0 0 21.8-35.7 38.3 38.3 0 0 0-24.6-36.7 12.2 12.2 0 1 0-23.6-4.4 12.2 12.2 0 0 1 11.2-17 12.3 12.3 0 0 1 2.4.3 12.2 12.2 0 0 0-13 20.4 12.1 12.1 0 0 0 .4 1.3 38.5 38.5 0 0 0-23 36.1c0 15.4 8.3 28.7 20.2 34.9-.1 5-1.3 13.4-8.2 18.5-3.6-1.6-8.6-3.4-11.7-2.6-1.7-1.2-4.1-1.7-7.5 1.7-6.8 6.8-12.7 24.5-12.7 35.3s1.4 73.8 1.4 73.8-7.3 2.7-2.3 6.8a5.9 5.9 0 0 0 3.7 1.4l4.9 36.7s-3.2 35.3 9 35.7a4.8 4.8 0 0 0 2.8-.6l-9 41s-21 13.5-37.2 40.2a215 215 0 0 0-14.7 27.2l-3-1.8-10.4 20s-23 14-18.1 24.4 9.5 13.1 9.5 13.1l3.2-1.4 5.9 11s15.4 22 40.3 10.8a9.1 9.1 0 0 0 0-10.9 446.3 446.3 0 0 0-14.5-18.6l6.8-34.4-1.4-.8 43-52.2s12.7-7.7 17.2-14.4 32.6-77 32.6-77l15.9 73.3s-1 26.8 3.2 44a186.4 186.4 0 0 1 4.3 29.3h-1.2l2.7 20.5s-11.7 29-3.6 31.2a119.4 119.4 0 0 0 17.7 3.2l.9-3.2s34.9 19 47.5 5c0 0 2.7-10-5-13.1Zm-124-222.4c1.3 1.4.9 7.7.9 7.7l-2.7 17.7-2.7 12.2a131.6 131.6 0 0 0-2.3-17.2l-1.3-33.8a2.6 2.6 0 0 0 .8.3c1 0 .5-7.7.5-7.7l1.2-3.5c1.7 5.2 3.9 8.7 6.5 9.4l.4 5.9s-5.9 2.7-.4 2.7a4.3 4.3 0 0 0 1-.1l-.6 2.4s-2.7 2.7-1.3 4Z"/><ellipse cx="381.4" cy="594" fill="#3f3d56" rx="364" ry="6"/><ellipse cx="508.8" cy="609.5" fill="#3f3d56" rx="400.4" ry="15.5"/><ellipse cx="434.9" cy="632.5" fill="#3f3d56" rx="196.5" ry="15.5"/><ellipse cx="718.9" cy="651" fill="#3f3d56" rx="87.5" ry="8"/><ellipse cx="598.9" cy="678" fill="#3f3d56" rx="41.5" ry="8"/><ellipse cx="260.9" cy="644" fill="#3f3d56" rx="41.5" ry="8"/><path fill="#ffb8b8" d="m465.9 553.5 4 28 20-2-2-29-22 3zm-95 0-4 28-20-2 2-29 22 3z"/><path fill="#2f2e41" d="M342 263.5s-18 21-14 54 11 108 11 108l5 133 32-2 5-113 16-91 43 106s21 99 22 99l30-3-14-117s-22-170-35-173-101-1-101-1Zm150 312s-18-12-25 2-1 24-1 24 6 4 3 8-4 30 22 26 13-31 13-31Zm-147 0s18-12 25 2 1 24 1 24-6 4-3 8 4 30-22 26-13-31-13-31Z"/><path fill="#ffb8b8" d="M366.4 69s9 25 2 39 11 30 11 30 47-24 41-36-16-28-14-38Z"/><circle cx="383.9" cy="46.5" r="32" fill="#ffb8b8"/><path fill="#d0cde1" d="M361 106.5s32 26.7 56-11.2l25 14.2 13 152s-73 42-108 6l5-141Z"/><path fill="#575a89" d="m371 91.5-45.1 30 16 74-21 115 34-51 16.1-168zm39.8-8.4 11.1 7.4 45 16-7 124 19 80-27 14s-5-38-36-57S403.8 88.8 411 83Z"/><path fill="#ffb8b8" d="m336 277.5 13 9S332.3 304 329.3 301a8.2 8.2 0 0 1-2.5-6.5l-3-7Zm86.3-2-4.4 7s-13 6-10 10 28 13 33 4l5-9Z"/><path fill="#575a89" d="m332 120.5-7 1-11.6 74.5s-4.5 13.5.5 45.5 10 52.8 10 52.8l22-15.8-10-26 13-95Zm119-16 16 2s18 19 21 39 2 77 2 77l-46 73-25-18 35-62-17-74Z"/><path fill="#2f2e41" d="M414.4 17.5a37.4 37.4 0 0 0-21.2-16.2l-6.5 5.2 2.5-6.1a34.4 34.4 0 0 0-6.4-.4l-5.9 7.5 2.4-7.2a37 37 0 0 0-25.5 15.2 32.9 32.9 0 0 0-1.4 36.5c2-6.2 4.5-12 6.5-18.2a18.3 18.3 0 0 0 4.7 0l2.5-5.7.7 5.5c7.5-.7 18.8-2.1 26-3.5L392 26l4.2 3.4c2.2-.5 3.5-1 3.4-1.3 5.3 8.6 10.6 14.1 16 22.8 2-12.2 5.6-22.3-1.3-33.4Z"/><ellipse cx="412.7" cy="45.5" fill="#ffb8b8" rx="2.2" ry="4.3"/><path fill="#4E4FEB" d="M758.8 611c.9 31.6-17.5 43.2-40.7 43.8h-4.8c-20.9-.9-37.5-12-38.3-41.3-1-30.4 36.8-69.9 39.6-72.8l.2-.1s43 38.9 44 70.4Z"/><path fill="#3f3d56" d="m716.5 650 14.7-21.8-14.7 24.2v2.5h-3.2l.8-31.7v-3.3l-16-23.4 16 21.2v.6l.6-23.9-13.9-24.2 14 20-.2-49.5v-.1.1l1 39 12.6-15.8-12.6 19.2.3 21.4 11.6-20.9-11.6 24 .2 11.9 17-29-17 33.1Z"/><path fill="#4E4FEB" d="M222.8 564c.9 31.6-17.5 43.2-40.7 43.8h-4.8c-20.9-.9-37.5-12-38.3-41.3-1-30.4 36.8-69.9 39.6-72.8l.2-.1s43 38.9 44 70.4Z"/><path fill="#3f3d56" d="m180.5 603 14.7-21.8-14.7 24.2v2.5h-3.2l.8-31.7v-3.3l-16-23.4 16 21.2v.6l.6-23.9-13.9-24.2 14 20-.2-49.5v-.1.1l1 39 12.6-15.8-12.6 19.2.3 21.4 11.6-20.9-11.6 24 .2 11.9 17-29-17 33.1Z"/><path fill="#4E4FEB" d="M623.3 655.5c.5 18.6-10.3 25.3-23.9 25.7h-2.8c-12.3-.5-22-7-22.5-24.2-.5-17.9 21.6-41 23.3-42.7v-.1s25.4 22.8 25.9 41.3Z"/><path fill="#3f3d56" d="m598.5 678.4 8.6-12.8-8.6 14.2v1.5h-1.9l.4-18.6v-2l-9.4-13.7 9.5 12.4v.4l.3-14-8.1-14.3 8.2 11.8-.1-29v-.1l.5 23 7.5-9.3-7.5 11.2.2 12.6 6.8-12.3-6.8 14.1.1 7 10-17-10 19.4Z"/><path fill="#2f2e41" d="M959.2 51.2v-.3.1Z"/><path fill="#3f3d56" d="m819.5 581.8 74-110.1-73.9 122 .2 12.4q-8.2 0-16.1-.3l3.7-159.3-.1-1.3.1-.2.4-15-81.2-117.8 81 106.5.3 3.2 2.8-120.4-70-122.1 70.2 101-.7-249.4v-1 .8l4.7 196.6 63.8-79.8-63.6 96.7 1.4 107.7 58.7-105-58.5 120.8.8 59.9 85.4-146.4-85.2 167.3Zm-756.3-4.3 50.4-75-50.3 83.1v8.4l-10.9-.1L55 485.4v-1l.3-10.2L0 394.1l55.1 72.4.2 2.2 2-82-47.8-83 47.8 68.7-.4-169.7v-.6.6L60 336.4l43.5-54.3L60.2 348l1 73.2 40-71.5-40 82.3.6 40.7 58.1-99.6L62 487Z"/></svg>