<svg xmlns="http://www.w3.org/2000/svg" fill="#fff" stroke="#fff" stroke-width="0" viewBox="-10.2 -10.2 52.5 52.5"><rect width="52.5" height="52.5" x="-10.2" y="-10.2" fill="#4E4FEB" stroke="none" rx="26.2"/><path stroke="none" d="M27 29H4a2 2 0 0 1-2-2V15s5.2 2.7 10 3.8V20c0 .6.4 1 1 1h5c.6 0 1-.4 1-1v-1.2c4.8-1.1 10-3.8 10-3.8v12a2 2 0 0 1-2 2zM17 17c.6 0 1 .4 1 1v1c0 .6-.4 1-1 1h-3a1 1 0 0 1-1-1v-1c0-.6.4-1 1-1h3zm2 0c0-.6-.4-1-1-1h-5a1 1 0 0 0-1 1v.9A50 50 0 0 1 2 14v-4c0-1.1.9-2 2-2h6V6c0-1.1.9-2 2-2h7a2 2 0 0 1 2 2v2h6a2 2 0 0 1 2 2v4s-5.2 2.8-10 3.9V17zm0-10c0-.6-.4-1-1-1h-5a1 1 0 0 0-1 1v1h7V7z"/></svg>