<svg class="contact" id="wp" xmlns="http://www.w3.org/2000/svg" fill="#000" viewBox="0 0 24 24"><path d="M12 0a12 12 0 1 1 0 24 12 12 0 0 1 0-24zm.1 4.5a7.3 7.3 0 0 0-6.4 10.8l.1.3-1.3 3.9 4-1.3a7.4 7.4 0 0 0 11-6.4c0-4-3.3-7.3-7.4-7.3zm0 1.2a6 6 0 0 1 6.2 6.1A6.2 6.2 0 0 1 9 17.1l-.3-.2-2.3.8.7-2.3A6 6 0 0 1 6 11.8a6.2 6.2 0 0 1 6-6.1zM9.7 8.5a.7.7 0 0 0-.5.2l-.2.2a2 2 0 0 0-.5 1.3c0 .7.5 1.4.7 1.7l.1.2a7.3 7.3 0 0 0 3 2.7h.5c1.4.6 1.4.4 1.7.4.4 0 1.1-.4 1.2-.9l.2-.8-.2-.1-1.1-.6a5.2 5.2 0 0 0-.3-.1c-.2 0-.3-.1-.4 0l-.6.8H13l-.4-.1a4.6 4.6 0 0 1-2.2-2l.1-.4.3-.3.2-.3a.3.3 0 0 0 0-.2l-.1-.3-.5-1.1c-.1-.4-.3-.3-.4-.3h-.3z"/></svg>